<svg xmlns="http://www.w3.org/2000/svg" viewBox="0 0 1365.43 1365.43"><defs><style>.cls-1,.cls-2{stroke:#000;stroke-miterlimit:10;}.cls-2{stroke-width:7px;}.cls-3{fill:#fff;}</style></defs><title>Logo</title><g id="Layer_1" data-name="Layer 1"><rect class="cls-1" x="0.5" y="0.5" width="1364.43" height="1364.43"/></g><g id="Layer_2" data-name="Layer 2"><line class="cls-2" x1="384.33" y1="331.16" x2="384.33" y2="331.12"/><path class="cls-3" d="M7371.51,6846.43h0a123.66,123.66,0,0,1-123.66,123.66H7025.34a122.53,122.53,0,0,1-122.54-122.5v-.05a111.82,111.82,0,0,1,100-111.21h.09a44.15,44.15,0,0,1,19.93,2.42l38.7,14.07a222.43,222.43,0,0,0,151.3.19l39.62-14.26a44.86,44.86,0,0,1,20.07-2.42,110.83,110.83,0,0,1,99,110.1Z" transform="translate(-6518.47 -6516.43)"/><path class="cls-2" d="M6844.22,7074.08" transform="translate(-6518.47 -6516.43)"/><path class="cls-2" d="M6844.22,7308.44" transform="translate(-6518.47 -6516.43)"/><path class="cls-1" d="M6844.22,7295.85" transform="translate(-6518.47 -6516.43)"/><path class="cls-1" d="M6844.22,7340.54" transform="translate(-6518.47 -6516.43)"/><path class="cls-1" d="M7556.78,7448.4" transform="translate(-6518.47 -6516.43)"/><path class="cls-3" d="M7430.09,7140.16H6844.22A117.18,117.18,0,0,1,6961.4,7023h351.51A117.18,117.18,0,0,1,7430.09,7140.16Z" transform="translate(-6518.47 -6516.43)"/><path class="cls-1" d="M7556.78,7448.4" transform="translate(-6518.47 -6516.43)"/><path class="cls-3" d="M7549.43,7390.24V7650.6a13.33,13.33,0,0,1-13.34,13.33h-89.41a13.33,13.33,0,0,1-13.33-13.33v-45.11a13.33,13.33,0,0,0-13.34-13.33h0a13.33,13.33,0,0,1-13.33-13.33V7462a13.33,13.33,0,0,1,13.33-13.33h0a13.34,13.34,0,0,0,13.34-13.34v-45.1a13.33,13.33,0,0,1,13.33-13.33h89.41A13.33,13.33,0,0,1,7549.43,7390.24Z" transform="translate(-6518.47 -6516.43)"/><circle class="cls-2" cx="727.81" cy="330.77" r="43.29"/><path class="cls-2" d="M6844.22,7199.94" transform="translate(-6518.47 -6516.43)"/><path class="cls-3" d="M7556.78,7333.8H6844.22V7216.62h598C7505.47,7216.62,7556.78,7269.08,7556.78,7333.8Z" transform="translate(-6518.47 -6516.43)"/><path class="cls-3" d="M7373.71,7459.11v117.18H6961.4a117.18,117.18,0,0,1-117.18-117.18h529.49Z" transform="translate(-6518.47 -6516.43)"/><circle class="cls-2" cx="498.41" cy="330" r="43.29"/></g></svg>