<?xml version="1.0" encoding="UTF-8"?>
<svg version="1.1" xmlns="http://www.w3.org/2000/svg" width="512" height="512">
<path d="M0 0 C40.59 0 81.18 0 123 0 C123.33 18.48 123.66 36.96 124 56 C126.18437329 65.82967979 128.71873144 72.300309 137.09375 78.02734375 C141.73454227 80.39528899 146.09825653 81.26034425 151.2734375 81.4140625 C152.31419434 81.44967285 153.35495117 81.4852832 154.42724609 81.52197266 C155.73000488 81.55597168 157.03276367 81.5899707 158.375 81.625 C162.54125 81.74875 166.7075 81.8725 171 82 C171.33 94.87 171.66 107.74 172 121 C178.44604684 122.6662297 178.44604684 122.6662297 181.39941406 120.57910156 C183.60167376 117.03049397 183.60287657 113.79013902 183.609375 109.734375 C183.62591125 108.94097717 183.64244751 108.14757935 183.65948486 107.33013916 C183.70795616 104.80334731 183.72933287 102.27715719 183.75 99.75 C183.77816057 98.03382391 183.80808812 96.31767584 183.83984375 94.6015625 C183.91703442 90.4007652 183.95755691 86.20186631 184 82 C194.56 82 205.12 82 216 82 C216.04898438 84.39636719 216.09796875 86.79273438 216.1484375 89.26171875 C216.20250296 91.59177704 216.25978849 93.92173556 216.31738281 96.25170898 C216.35558072 97.8665417 216.39044945 99.48145684 216.421875 101.09643555 C216.46772609 103.42266217 216.52568584 105.74832592 216.5859375 108.07421875 C216.60326431 109.15107185 216.60326431 109.15107185 216.62094116 110.24967957 C216.73674505 114.21474466 217.04311313 117.50591288 219 121 C221.90351124 122.16448881 221.90351124 122.16448881 225 122 C227.59230504 120.21220342 227.98667605 119.03997185 229 116 C229.15322359 113.41669771 229.25706889 110.85507761 229.31640625 108.26953125 C229.3475779 107.14390022 229.3475779 107.14390022 229.37937927 105.99552917 C229.44469926 103.60127816 229.50367792 101.20691861 229.5625 98.8125 C229.60570193 97.18813987 229.64931676 95.56379067 229.69335938 93.93945312 C229.8011389 89.95974498 229.90034215 85.97995299 230 82 C240.56 82 251.12 82 262 82 C262.02578125 84.55234375 262.0515625 87.1046875 262.078125 89.734375 C262.11655304 92.21007248 262.16171061 94.68556221 262.20751953 97.16113281 C262.23572067 98.87978169 262.25693954 100.59856005 262.27099609 102.31738281 C262.29243833 104.79038747 262.33909156 107.26183675 262.390625 109.734375 C262.39246796 110.88459137 262.39246796 110.88459137 262.39434814 112.05804443 C262.48682994 115.43698363 262.80463552 117.68519977 264.60058594 120.57910156 C267.55395316 122.6662297 267.55395316 122.6662297 274 121 C274.33 108.13 274.66 95.26 275 82 C287.4375 81.75 287.4375 81.75 291.30249023 81.70214844 C301.12594203 81.4110832 309.03249299 79.28421187 316 72 C328.99829118 50.97024434 322.59259143 22.81487971 323 0 C363.59 0 404.18 0 446 0 C446 42.91891892 446 42.91891892 440.6875 48.375 C435.60070453 51.45073679 430.60320104 52.27498567 424.75 52.875 C410.65890713 54.58076387 400.96606902 60.81208663 391.7890625 71.54296875 C383.70948362 82.63915896 381.69750653 95.61862846 383 109 C384.94816348 118.90413652 390.04199025 127.75596415 396.8125 135.1875 C399.58004551 138.7457728 400.70504317 141.52065661 401 146 C399.76498659 153.49338533 395.80810654 158.0564846 390.515625 163.2109375 C389.78180603 163.94575348 389.04798706 164.68056946 388.29193115 165.43765259 C386.74574635 166.97917984 385.19222817 168.51338302 383.63183594 170.04052734 C381.25343045 172.37163776 378.90290536 174.72836745 376.5546875 177.08984375 C375.04324536 178.59013377 373.53027459 180.08888569 372.015625 181.5859375 C371.31745667 182.28592865 370.61928833 182.9859198 369.89996338 183.7071228 C365.34300119 188.13451773 361.13295153 191.63630027 354.55859375 192.21484375 C348.42758912 191.41318384 344.82054325 189.38443515 340.0546875 185.35546875 C329.10389326 176.34755736 317.08339565 172.8496643 303 174 C289.99716179 176.40632235 278.19960346 182.40812322 270 193 C264.23507292 201.66478979 262.06624728 209.78526103 261.0612793 220.07128906 C260.39962854 226.31945495 258.8166316 230.52477829 253.9375 234.8125 C250.58616552 236.86654371 247.81978566 237.13197884 243.98120117 237.16113281 C242.95971481 237.17074036 241.93822845 237.1803479 240.88578796 237.19024658 C239.23109245 237.1966214 239.23109245 237.1966214 237.54296875 237.203125 C236.4072493 237.20882507 235.27152985 237.21452515 234.10139465 237.22039795 C231.69643079 237.22984953 229.29145396 237.23638256 226.88647461 237.24023438 C223.21249712 237.24993401 219.5390804 237.28095426 215.86523438 237.3125 C213.52864916 237.31903072 211.19205993 237.32428092 208.85546875 237.328125 C207.7584111 237.3404718 206.66135345 237.3528186 205.53105164 237.36553955 C199.95448157 237.34930603 195.76529161 237.25075657 191 234 C187.70120651 230.34458018 185.99082101 227.77270032 185.4921875 222.921875 C183.67462574 207.2365929 179.92252373 194.27879956 167 184 C155.23422496 175.58793406 142.31902213 172.40803431 127.97265625 174.42578125 C117.66804572 176.63294487 109.21471624 181.79468495 101.43359375 188.7734375 C97.9487009 191.75506245 95.00456846 192.16421648 90.5625 191.875 C82.98460612 191.19719196 77.64554431 184.98573754 72.51953125 179.92578125 C71.82486252 179.24251266 71.13019379 178.55924408 70.41447449 177.85527039 C68.95363039 176.4132421 67.495614 174.9683442 66.0402832 173.52075195 C63.82274317 171.32265337 61.5847825 169.14682761 59.34570312 166.97070312 C57.92316302 165.56122294 56.50189577 164.1504567 55.08203125 162.73828125 C54.4163765 162.0973201 53.75072174 161.45635895 53.06489563 160.79597473 C48.68037338 156.3690793 46.16499804 152.1787262 45 146 C45.341148 139.1770401 49.00849125 135.19485312 53.17236328 130.0793457 C61.95751138 119.06038768 64.1838265 106.72529086 63 93 C60.44575918 79.58658676 53.70887095 68.29608539 42.6171875 60.27734375 C33.39176657 54.39216144 24.26211522 52.70063182 13.515625 51.72265625 C8.51831788 50.69543201 5.18327959 48.63210978 2.1875 44.5 C-4.15607209 31.14511139 0 12.29839817 0 0 Z " fill="#F37324" transform="translate(33,261)"/>
<path d="M0 0 C1.28985809 -0.0071553 2.57971619 -0.01431061 3.90866089 -0.02168274 C5.34643531 -0.02452315 6.78420998 -0.02723486 8.22198486 -0.02983093 C9.72976845 -0.03609451 11.23755048 -0.04274122 12.74533081 -0.04974365 C16.84878478 -0.0671641 20.95222709 -0.07770844 25.05570889 -0.08594918 C27.61900218 -0.09109757 30.18229185 -0.0971734 32.74558258 -0.10346031 C40.76423557 -0.12251608 48.78287934 -0.13674589 56.80155063 -0.14507228 C66.05998145 -0.15484443 75.31817316 -0.18116166 84.57651973 -0.22157317 C91.73073682 -0.25172943 98.88488536 -0.26654072 106.03916478 -0.26985329 C110.31288709 -0.27220452 114.58635407 -0.28117404 118.86000824 -0.30631447 C122.88197954 -0.32959151 126.90352736 -0.33383008 130.92554855 -0.32355309 C132.40014682 -0.32305751 133.8747659 -0.32938459 135.34930038 -0.34310913 C137.36576454 -0.36082454 139.38241252 -0.35133776 141.39892578 -0.34057617 C142.52644634 -0.34296453 143.6539669 -0.34535288 144.81565475 -0.34781361 C149.65953934 0.41631004 152.86290542 2.68060324 155.76593018 6.58467102 C157.62591627 10.59832523 158.07728448 14.43458363 158.09387207 18.82594299 C158.09958221 19.73695267 158.10529236 20.64796234 158.11117554 21.58657837 C158.11285233 23.06725044 158.11285233 23.06725044 158.11456299 24.57783508 C158.11952789 25.62724777 158.1244928 26.67666046 158.12960815 27.75787354 C158.14420105 31.22618773 158.15102714 34.69445618 158.15655518 38.16279602 C158.16230913 40.57789613 158.16806684 42.99299622 158.17382812 45.40809631 C158.18433004 50.47200228 158.19017796 55.53589241 158.19366455 60.59980774 C158.19914651 67.07714522 158.22317184 73.55427221 158.25163651 80.03154373 C158.27029336 85.02107854 158.27547012 90.01056296 158.27700043 95.0001297 C158.28002075 97.38745524 158.28802825 99.77478003 158.30118561 102.16207123 C158.31830887 105.50785168 158.31635025 108.8531219 158.30987549 112.19892883 C158.31909027 113.17794662 158.32830505 114.15696442 158.33779907 115.16564941 C158.29453223 122.33092745 157.71426917 129.38633203 152.45343018 134.64717102 C148.45057886 137.04888181 145.44998602 137.2753229 140.86253357 137.28761292 C139.58812912 137.29332306 138.31372467 137.2990332 137.0007019 137.30491638 C135.58544932 137.30616173 134.17019662 137.30728683 132.75494385 137.30830383 C131.26671729 137.3129324 129.77849193 137.31795712 128.29026794 137.323349 C124.24471766 137.33647145 120.19918396 137.34291768 116.15361571 137.34735966 C113.62599638 137.35029069 111.09838159 137.35439556 108.57076454 137.35886383 C100.66210297 137.37253848 92.75345177 137.38220524 84.84477919 137.38606572 C75.71601225 137.39054627 66.58739506 137.40809408 57.45867366 137.43706632 C50.40209909 137.4586845 43.34556665 137.46877008 36.28895932 137.47010684 C32.074546 137.47115479 27.86027346 137.47706039 23.645895 137.49492645 C19.68059368 137.5114095 15.71553891 137.51356159 11.75021553 137.50478745 C10.29658727 137.50401719 8.84294573 137.50835837 7.38935089 137.5182457 C5.40136688 137.53097256 3.41328373 137.523294 1.42527771 137.5146637 C-0.24193187 137.51686354 -0.24193187 137.51686354 -1.94282246 137.51910782 C-7.02069548 136.91060216 -10.16537334 135.2427126 -13.35906982 131.27217102 C-15.65738949 127.01602349 -16.16891908 123.25820201 -16.18701172 118.46839905 C-16.19272186 117.55738937 -16.19843201 116.6463797 -16.20431519 115.70776367 C-16.20543304 114.72064896 -16.2065509 113.73353424 -16.20770264 112.71650696 C-16.21266754 111.66709427 -16.21763245 110.61768158 -16.2227478 109.53646851 C-16.2373407 106.06815431 -16.24416679 102.59988586 -16.24969482 99.13154602 C-16.25544878 96.71644591 -16.26120649 94.30134582 -16.26696777 91.88624573 C-16.27746969 86.82233976 -16.28331761 81.75844963 -16.2868042 76.6945343 C-16.29228616 70.21719682 -16.31631148 63.74006983 -16.34477615 57.26279831 C-16.363433 52.2732635 -16.36860977 47.28377908 -16.37014008 42.29421234 C-16.3731604 39.9068868 -16.3811679 37.51956201 -16.39432526 35.13227081 C-16.41144852 31.78649036 -16.40948989 28.44122014 -16.40301514 25.09541321 C-16.41222992 24.11639542 -16.4214447 23.13737762 -16.43093872 22.12869263 C-16.39450198 16.09452424 -15.72749038 10.62916605 -13.04656982 5.14717102 C-8.69229228 0.89909536 -5.96287167 0.0226305 0 0 Z " fill="#F37324" transform="translate(185.04656982421875,192.8528289794922)"/>
<path d="M0 0 C4.17912838 3.58211004 7.25183525 6.80587289 7.86328125 12.44921875 C8.04586165 18.57046686 7.46923626 23.32457229 3.625 28.25 C-0.574129 32.3986587 -4.66014573 33.58789022 -10.5 33.8125 C-15.54724111 33.59001456 -18.5340167 32.70688497 -22.375 29.25 C-23.15875 28.54875 -23.9425 27.8475 -24.75 27.125 C-26.375 25.25 -26.375 25.25 -26.375 23.25 C-39.575 23.25 -52.775 23.25 -66.375 23.25 C-66.32279297 29.44330078 -66.32279297 29.44330078 -66.26953125 35.76171875 C-66.25022941 39.06022113 -66.2339642 42.35870748 -66.21974945 45.65723419 C-66.20392747 49.13578175 -66.18279485 52.61410893 -66.14868164 56.0925293 C-66.10975937 60.08644712 -66.09527371 64.08013263 -66.08203125 68.07421875 C-66.06654739 69.31709152 -66.05106354 70.55996429 -66.03511047 71.84049988 C-66.03477058 73.58173882 -66.03477058 73.58173882 -66.03442383 75.3581543 C-66.02776199 76.37741501 -66.02110016 77.39667572 -66.01423645 78.44682312 C-66.44000564 81.75510177 -67.34863748 83.61378714 -69.375 86.25 C-72.75 87.3125 -72.75 87.3125 -76.375 87.25 C-79.06211853 85.67785645 -79.06211853 85.67785645 -81.375 83.25 C-82.00318909 80.10046387 -82.00318909 80.10046387 -82.00610352 76.34179688 C-82.01683647 75.31180321 -82.01683647 75.31180321 -82.02778625 74.26100159 C-82.04466473 71.99623629 -82.02527924 69.73345315 -82.00390625 67.46875 C-82.00473505 65.89221025 -82.00719483 64.31567058 -82.01121521 62.73913574 C-82.01407259 59.43699088 -81.999379 56.13552453 -81.97192383 52.83349609 C-81.9378402 48.60295512 -81.94385928 44.37362731 -81.9625864 40.14302826 C-81.97316036 36.88814196 -81.96421517 33.63353747 -81.94920158 30.37867737 C-81.94402215 28.81898333 -81.9444987 27.25925983 -81.95074654 25.6995697 C-81.95620393 23.51847166 -81.93581108 21.33910391 -81.90844727 19.15820312 C-81.8991494 17.29766296 -81.8991494 17.29766296 -81.8896637 15.39953613 C-81.375 12.25 -81.375 12.25 -79.66264343 9.84661865 C-76.93103564 7.94014324 -75.54557499 7.76316262 -72.23925781 7.79589844 C-70.70812347 7.79635162 -70.70812347 7.79635162 -69.14605713 7.79681396 C-68.05113953 7.81745911 -66.95622192 7.83810425 -65.828125 7.859375 C-64.7017865 7.86503479 -63.575448 7.87069458 -62.41497803 7.87652588 C-58.81788618 7.89891455 -55.22179074 7.94911787 -51.625 8 C-49.1862123 8.02006167 -46.74740899 8.03831302 -44.30859375 8.0546875 C-38.33038926 8.09878756 -32.35276581 8.16572537 -26.375 8.25 C-26.07770996 7.4569043 -25.78041992 6.66380859 -25.47412109 5.84667969 C-24.29602192 3.06341386 -23.46265859 2.15611102 -21 0.5 C-20.41476562 0.09265625 -19.82953125 -0.3146875 -19.2265625 -0.734375 C-13.1755424 -4.05349995 -5.93482964 -3.07731907 0 0 Z " fill="#F37324" transform="translate(398.375,76.75)"/>
<path d="M0 0 C3.7467412 2.67335047 5.62858192 4.17850339 6.60546875 8.734375 C7.55054291 8.72105133 7.55054291 8.72105133 8.51470947 8.7074585 C15.06814508 8.61901229 21.62141135 8.55865194 28.17529297 8.51464844 C30.62165208 8.49452448 33.06796304 8.4672224 35.51416016 8.43261719 C39.02909216 8.38413537 42.54338859 8.36141372 46.05859375 8.34375 C47.15351135 8.32310486 48.24842896 8.30245972 49.37652588 8.28118896 C50.3972821 8.28088684 51.41803833 8.28058472 52.46972656 8.28027344 C53.36685364 8.27139099 54.26398071 8.26250854 55.18829346 8.25335693 C58.52388149 8.91713921 59.64102796 9.97284349 61.60546875 12.734375 C62.10667419 15.89064026 62.10667419 15.89064026 62.10717773 19.65844727 C62.11528221 20.69085037 62.11528221 20.69085037 62.12355042 21.74411011 C62.13603255 24.01344127 62.11955364 26.28150252 62.1015625 28.55078125 C62.10171748 30.12971564 62.10320637 31.70865042 62.10597229 33.2875824 C62.10735598 36.59382988 62.09480239 39.89964339 62.07202148 43.20581055 C62.04361325 47.44525517 62.04638067 51.68398004 62.0591116 55.92347813 C62.06606318 59.18257301 62.05828593 62.44150126 62.04585457 65.70057487 C62.04133661 67.26388854 62.04100628 68.82722006 62.04491997 70.39053535 C62.04782779 72.57396313 62.03134842 74.75639527 62.00952148 76.93969727 C62.0041185 78.18227798 61.99871552 79.4248587 61.9931488 80.70509338 C61.60546875 83.734375 61.60546875 83.734375 60.25990295 85.60435486 C57.70929939 87.3464812 55.67206214 87.61171126 52.60546875 87.734375 C49.79296875 86.484375 49.79296875 86.484375 47.60546875 84.734375 C46.55435266 81.58102674 46.48476403 79.37925217 46.49194336 76.06958008 C46.49205666 74.32811455 46.49205666 74.32811455 46.49217224 72.5514679 C46.49733353 71.29827255 46.50249481 70.04507721 46.5078125 68.75390625 C46.50922745 67.47078049 46.5106424 66.18765472 46.51210022 64.86564636 C46.5159147 61.45767259 46.52573584 58.04974157 46.5368042 54.64178467 C46.54704131 51.16288848 46.55165758 47.68398516 46.55664062 44.20507812 C46.56682815 37.38147268 46.58640247 30.55798458 46.60546875 23.734375 C33.40546875 23.734375 20.20546875 23.734375 6.60546875 23.734375 C5.94546875 25.054375 5.28546875 26.374375 4.60546875 27.734375 C0.33959059 32.03502934 -2.99347112 33.91104897 -9.01953125 34.109375 C-15.04089211 34.03717643 -19.06228857 33.01454745 -23.39453125 28.734375 C-27.06123563 24.03641001 -28.1066785 19.08853748 -27.84375 13.1953125 C-26.80257036 7.49145884 -23.77904796 3.83633728 -19.33203125 0.296875 C-13.1610063 -2.98558508 -6.29874251 -3.32918854 0 0 Z " fill="#F37324" transform="translate(133.39453125,76.265625)"/>
<path d="M0 0 C4.12933542 4.23800214 5.7985229 7.95164951 6.375 13.8125 C6.23515457 18.44487973 4.76752761 22.29269698 2 26 C0.49143433 26.94105591 0.49143433 26.94105591 -1.04760742 27.90112305 C-3.2005051 29.68463474 -3.91850677 30.64386817 -4.54882812 33.39842224 C-4.74155374 36.45912422 -4.75174248 39.47267727 -4.69921875 42.5390625 C-4.70581009 43.65687103 -4.71240143 44.77467957 -4.7191925 45.92636108 C-4.73667768 49.49318108 -4.71465912 53.0582623 -4.6875 56.625 C-4.67621568 60.1985293 -4.67350483 63.77154205 -4.6879425 67.34506226 C-4.69535391 69.56758115 -4.6870241 71.79021856 -4.6615448 74.01260376 C-4.66197281 75.01729706 -4.66240082 76.02199036 -4.6628418 77.05712891 C-4.65584763 77.94139557 -4.64885345 78.82566223 -4.64164734 79.73672485 C-5 82 -5 82 -6.0896759 83.78466797 C-9.00134233 85.63704552 -11.47552291 85.38170954 -14.90234375 85.38818359 C-15.60022003 85.39344055 -16.29809631 85.39869751 -17.01712036 85.40411377 C-19.3241412 85.41731846 -21.63047213 85.40857455 -23.9375 85.3984375 C-25.54028455 85.40045811 -27.14306821 85.40336945 -28.74584961 85.40713501 C-32.1050695 85.41155898 -35.4640501 85.40512513 -38.82324219 85.39111328 C-43.13106839 85.37402116 -47.4383339 85.38386198 -51.74613953 85.40183067 C-55.05582918 85.41266666 -58.3653857 85.40922307 -61.67507935 85.4014473 C-63.26351996 85.39944477 -64.85197263 85.40190643 -66.44039917 85.40888596 C-68.65981096 85.41649763 -70.87831234 85.40490145 -73.09765625 85.38818359 C-74.36101807 85.38579681 -75.62437988 85.38341003 -76.92602539 85.38095093 C-80 85 -80 85 -81.87670898 83.62417603 C-83.44922331 81.3504642 -83.86822207 79.76733652 -84 77 C-82.32456873 73.2082345 -80.83296382 71.48670164 -77 70 C-74.3550415 69.75949097 -74.3550415 69.75949097 -71.31347656 69.77294922 C-70.17259583 69.77310028 -69.03171509 69.77325134 -67.85626221 69.77340698 C-66.01702179 69.78889084 -66.01702179 69.78889084 -64.140625 69.8046875 C-62.88111023 69.8075174 -61.62159546 69.81034729 -60.32391357 69.81326294 C-56.98326098 69.82255879 -53.64288331 69.84051417 -50.30230713 69.8626709 C-46.89036472 69.88316792 -43.47839301 69.89238262 -40.06640625 69.90234375 C-33.37744964 69.92269967 -26.68897361 69.96184996 -20 70 C-20 56.8 -20 43.6 -20 30 C-21.65 29.34 -23.3 28.68 -25 28 C-28.94149625 24.11689629 -30.34377362 19.82804448 -30.5 14.375 C-30.15070588 7.88171181 -28.36301367 4.05534935 -23.5625 -0.3125 C-16.46201176 -6.364594 -7.27773529 -4.98120549 0 0 Z " fill="#F37324" transform="translate(460,142)"/>
<path d="M0 0 C4.95170091 2.84264311 8.55208681 6.46876044 10.375 11.9375 C11.11818412 18.79672389 10.39766551 24.2318826 6.375 29.9375 C3.1875 32.9375 3.1875 32.9375 0.375 32.9375 C0.375 46.1375 0.375 59.3375 0.375 72.9375 C4.43167969 72.90269531 8.48835938 72.86789063 12.66796875 72.83203125 C15.90912346 72.81272894 19.15026187 72.7964639 22.39144135 72.78224945 C25.80933731 72.76642849 29.22700892 72.74529783 32.64477539 72.71118164 C36.56914534 72.67225509 40.49342471 72.6577727 44.41796875 72.64453125 C45.63896774 72.62904739 46.85996674 72.61356354 48.1179657 72.59761047 C49.82917351 72.59727058 49.82917351 72.59727058 51.57495117 72.59692383 C52.57644699 72.59026199 53.57794281 72.58360016 54.60978699 72.57673645 C57.87159707 73.00228854 59.73275843 74.00724869 62.375 75.9375 C63.8125 78.3125 63.8125 78.3125 64.375 80.9375 C63.500117 84.07249743 62.68155645 85.63094355 60.375 87.9375 C57.42127991 88.19819641 57.42127991 88.19819641 53.58618164 88.2121582 C52.88845139 88.21726913 52.19072113 88.22238007 51.47184753 88.22764587 C49.15953046 88.24157492 46.84751035 88.24058263 44.53515625 88.23828125 C42.93094267 88.24216648 41.32673012 88.24650079 39.72251892 88.25126648 C36.35737781 88.25873589 32.99234159 88.25843232 29.62719727 88.25317383 C25.31152234 88.24737934 20.99627659 88.26430591 16.68067265 88.2875185 C13.36670922 88.30224004 10.05284951 88.3031297 6.73885918 88.30000877 C5.1476195 88.30052282 3.55637415 88.30577621 1.96516609 88.31582069 C-0.25910308 88.32813713 -2.48253171 88.32142305 -4.70678711 88.30981445 C-5.97316513 88.31044388 -7.23954315 88.3110733 -8.54429626 88.3117218 C-11.625 87.9375 -11.625 87.9375 -13.53730774 86.72216797 C-14.97975637 84.35542146 -14.97772112 82.7775786 -14.94628906 80.01049805 C-14.94348938 79.00903244 -14.9406897 78.00756683 -14.93780518 76.97575378 C-14.92223572 75.89449722 -14.90666626 74.81324066 -14.890625 73.69921875 C-14.89339677 71.41210772 -14.89733969 69.12499786 -14.90234375 66.83789062 C-14.89399353 63.22986035 -14.87497431 59.62271191 -14.83447266 56.01489258 C-14.80159997 52.53396148 -14.81198461 49.05522054 -14.828125 45.57421875 C-14.80445862 44.49903488 -14.78079224 43.42385101 -14.75640869 42.31608582 C-14.70514587 36.76816952 -14.70514587 36.76816952 -17.1685791 32.00234985 C-19.00055484 30.40662915 -19.00055484 30.40662915 -20.93255615 29.17048645 C-23.89020688 27.01576606 -24.62449859 24.3509754 -25.625 20.9375 C-26.32960348 14.59606865 -25.24360296 10.22441991 -21.625 4.9375 C-15.27105895 -1.25351948 -8.37280746 -2.45409874 0 0 Z " fill="#F37324" transform="translate(71.625,139.0625)"/>
<path d="M0 0 C4.80373898 2.65718633 8.05016447 6.08799341 9.8125 11.375 C10.35031878 17.38409059 10.28100491 22.23204445 6.8125 27.375 C4.25 30.25 4.25 30.25 1.8125 32.375 C1.1525 32.375 0.4925 32.375 -0.1875 32.375 C-0.18305878 33.5415361 -0.17861755 34.7080722 -0.17404175 35.90995789 C-0.13350526 46.90134885 -0.10352018 57.89272465 -0.08387566 68.88417339 C-0.07343673 74.53503725 -0.05927543 80.18584078 -0.03662109 85.83666992 C-0.01489676 91.28962103 -0.00293219 96.7425141 0.00225449 102.19550514 C0.00595096 104.27632371 0.01316919 106.35713909 0.02396011 108.43793297 C0.03846945 111.35151419 0.04047816 114.26485528 0.03955078 117.1784668 C0.05033661 118.46995636 0.05033661 118.46995636 0.06134033 119.78753662 C0.04272951 125.18805006 -0.18253281 129.37003281 -4.1875 133.375 C-11.31117491 133.94037102 -11.31117491 133.94037102 -14.125 132.125 C-16.01447749 129.01291942 -16.31254954 125.9120576 -16.30775452 122.32537842 C-16.30912918 121.52894928 -16.31050385 120.73252014 -16.31192017 119.91195679 C-16.30832489 119.04736847 -16.30472961 118.18278015 -16.30102539 117.29199219 C-16.30117142 116.37457245 -16.30131744 115.45715271 -16.3014679 114.51193237 C-16.30077166 111.48188913 -16.29299275 108.45190749 -16.28515625 105.421875 C-16.28329104 103.32008905 -16.28186762 101.21830266 -16.28086853 99.11651611 C-16.27705144 93.58616942 -16.26722801 88.05584901 -16.25616455 82.5255127 C-16.24593309 76.88159541 -16.24136719 71.23767388 -16.23632812 65.59375 C-16.22560505 54.52082179 -16.20853829 43.44791308 -16.1875 32.375 C-16.79207031 32.10558594 -17.39664063 31.83617187 -18.01953125 31.55859375 C-22.10493096 29.32818634 -24.73464266 25.73357201 -26.1875 21.375 C-26.97862286 15.01211186 -26.44039968 10.34392142 -22.6875 5.06640625 C-16.67464483 -1.7137143 -8.20613786 -3.74560459 0 0 Z " fill="#F37324" transform="translate(264.1875,15.625)"/>
</svg>
