<?xml version="1.0" encoding="UTF-8"?>
<svg version="1.1" xmlns="http://www.w3.org/2000/svg" width="512" height="512">
<path d="M0 0 C6.36809785 4.62166299 10.18734816 10.35287506 12 18 C12.95966083 24.98753045 11.9036111 30.43192855 8.97265625 36.80859375 C8.00832074 38.98125328 7.30988002 40.64240292 7 43 C7.94458554 45.35029874 7.94458554 45.35029874 9.4921875 47.6953125 C10.03230469 48.57574219 10.57242188 49.45617188 11.12890625 50.36328125 C11.70511719 51.27464844 12.28132812 52.18601563 12.875 53.125 C13.99759133 54.93998326 15.11999639 56.75508175 16.2421875 58.5703125 C16.7460498 59.37227051 17.24991211 60.17422852 17.76904297 61.00048828 C20.00480959 64.6321679 20.1176927 66.81376275 20.09765625 71.1015625 C20.09515869 72.19291504 20.09266113 73.28426758 20.09008789 74.40869141 C20.08098389 75.80007324 20.07187988 77.19145508 20.0625 78.625 C20.041875 83.03875 20.02125 87.4525 20 92 C35.51 92 51.02 92 67 92 C67 83.42 67 74.84 67 66 C64.03 65.01 64.03 65.01 61 64 C54.54845806 59.64922705 50.46109994 54.38329982 48 47 C47.39615169 38.65501435 46.94289981 31.04130964 52 24 C52.5775 23.113125 53.155 22.22625 53.75 21.3125 C59.06319002 15.85172137 64.91017294 12.90949907 72.54760742 12.70800781 C79.51933625 12.64119375 85.20602202 12.74319986 91 17 C91.886875 17.5775 92.77375 18.155 93.6875 18.75 C100.18834898 25.07515036 102.53602761 31.98228026 103 41 C102.297552 50.26084504 97.97033779 56.52623965 91.1953125 62.51953125 C89 64 89 64 83 66 C83 74.58 83 83.16 83 92 C98.51 92 114.02 92 130 92 C129.814375 87.875 129.62875 83.75 129.4375 79.5 C129.18467622 66.85805155 131.48227231 58.99459492 139 49 C142.05129659 45.33123336 142.05129659 45.33123336 142.87890625 40.91015625 C142.58886719 40.27980469 142.29882812 39.64945313 142 39 C141.51853516 37.91525391 141.51853516 37.91525391 141.02734375 36.80859375 C140.66769531 36.02613281 140.30804688 35.24367187 139.9375 34.4375 C136.99337137 27.09335496 136.93195185 20.29881893 139.5 12.8125 C142.87668639 5.41202704 147.8834542 0.52585028 155.4375 -2.5 C164.66665143 -5.34364501 172.38259945 -4.49935073 181 0 C187.36809785 4.62166299 191.18734816 10.35287506 193 18 C194.23422658 26.98671231 191.9204323 34.05772995 187.375 41.75 C183.05515204 45.84248754 177.05285117 50.24482386 171 51 C170.06027344 50.81179687 169.12054688 50.62359375 168.15234375 50.4296875 C164.19488149 49.74686898 161.84182643 49.74095026 158 51 C150.07945812 58.17806382 146.57893741 68.84116104 145.89746094 79.20458984 C145.77573091 83.47843331 145.79426697 87.72937065 146 92 C146.76441406 91.97679688 147.52882813 91.95359375 148.31640625 91.9296875 C170.78482752 91.55115814 189.99815753 96.68419421 206.69604492 112.18066406 C220.6514259 125.71288894 228.75852658 143.80600323 229.11328125 163.3046875 C229.1418797 167.20517404 229.08907383 171.10054564 229 175 C243.93361696 175.67698531 256.89014011 174.70967964 268.6171875 164.54052734 C270.69001418 162.23128717 271.0074953 160.50416898 270.9375 157.4375 C270.62551807 155.62491075 270.31302852 153.8124088 270 152 C270.98122419 143.94427054 274.97247363 138.26468436 281 133 C287.54298647 128.7168877 294.23531778 127.15036912 302 128 C309.82160154 129.99331674 316.13974051 132.71951928 320.69140625 139.53125 C325.31927209 147.69175589 326.7992568 155.41272092 324.296875 164.57421875 C321.18452023 172.34191773 316.45402511 177.81572826 308.83203125 181.2734375 C301.48448392 184.18739017 293.75370913 184.03202017 286.4375 181.0625 C284.95458038 180.38313288 283.47479843 179.69682127 282 179 C281.01 178.67 280.02 178.34 279 178 C276.9753525 179.08508164 276.9753525 179.08508164 274.87890625 180.74609375 C259.10463028 191.83648356 248.2270103 192.23738185 229 191 C229 206.51 229 222.02 229 238 C238.9 237.505 238.9 237.505 249 237 C250.98 233.04 250.98 233.04 253 229 C258.01549043 223.15721218 263.756401 219.43114191 271.421875 218.65234375 C280.78239214 218.28581748 287.54155572 219.44142939 294.80078125 225.50390625 C300.00005086 230.85799283 303.04231292 238.57021308 303.5 246 C303.04231292 253.42978692 300.00005086 261.14200717 294.80078125 266.49609375 C287.66598412 272.45465535 280.84724422 273.82983395 271.625 273.4765625 C263.17103679 272.36515785 257.76753291 268.49205846 252.375 262.0625 C251 260 251 260 249 255 C242.4 254.67 235.8 254.34 229 254 C229 269.51 229 285.02 229 301 C235.249375 300.5978125 235.249375 300.5978125 241.625 300.1875 C256.21451056 299.71559978 265.49536 304.24082111 276.85717773 313.03369141 C279.02619787 314.28992779 279.02619787 314.28992779 281.54711914 313.26708984 C282.76129517 312.63988037 282.76129517 312.63988037 284 312 C291.34147183 308.65125847 298.59286112 307.51847743 306.5234375 309.69140625 C314.31538754 312.86935174 319.78827944 317.48546816 323.2734375 325.16796875 C325.9917103 332.02210824 326.19095757 339.27331358 323.94140625 346.3125 C320.02578041 354.80166172 315.21968443 359.58823427 306.5 362.875 C298.69527058 365.11635819 291.35366183 364.39836922 284 361 C278.03039407 356.93618376 273.04556763 352.05970293 271 345 C270.26997322 340.53173262 269.62922091 336.00600992 270.45703125 331.52734375 C269.90472531 328.4731391 269.24280593 328.04061366 266.87109375 326.140625 C265.41545788 325.14381986 263.93537675 324.18212741 262.4375 323.25 C261.65133301 322.75846436 260.86516602 322.26692871 260.05517578 321.76049805 C250.29445255 316.25791633 239.93365261 316.50434498 229 317 C229.03480469 317.969375 229.06960938 318.93875 229.10546875 319.9375 C229.69006903 343.37465686 223.17963889 362.36878327 206.8125 379.6875 C195.22001915 390.86539419 179.14892803 399.19385338 162.69921875 399.09765625 C161.72275391 399.09443359 160.74628906 399.09121094 159.74023438 399.08789062 C158.73283203 399.07951172 157.72542969 399.07113281 156.6875 399.0625 C155.66076172 399.05798828 154.63402344 399.05347656 153.57617188 399.04882812 C151.05072118 399.03708184 148.52539095 399.02065565 146 399 C145.31281249 414.0269056 146.39546424 427.52264497 156.36474609 439.5234375 C158.98721546 441.89141223 161.10238957 442.03600848 164.5625 441.9375 C166.19058594 441.68226563 166.19058594 441.68226563 167.8515625 441.421875 C174.16509308 440.57589323 179.19307749 443.80674928 184.3125 447.1875 C191.01589255 454.20267825 193.40925922 461.51898434 193.26953125 471.05859375 C192.54680948 478.94568782 189.1288337 484.98555977 183.3359375 490.3046875 C177.5392954 494.51161504 170.49906468 496.78617186 163.31640625 496.375 C154.28972846 494.91368285 147.45939781 491.43762666 142 484 C138.11590586 477.36513097 136.88602788 470.60313009 138 463 C138.84900554 460.293081 139.84309934 457.76788066 141.02734375 455.19140625 C141.99167926 453.01874672 142.69011998 451.35759708 143 449 C142.05541446 446.64970126 142.05541446 446.64970126 140.5078125 444.3046875 C139.96769531 443.42425781 139.42757813 442.54382813 138.87109375 441.63671875 C138.29488281 440.72535156 137.71867187 439.81398438 137.125 438.875 C136.00240867 437.06001674 134.88000361 435.24491825 133.7578125 433.4296875 C133.2539502 432.62772949 132.75008789 431.82577148 132.23095703 430.99951172 C129.95601916 427.30420407 129.88267356 425.04646968 129.90234375 420.6796875 C129.90484131 419.54772949 129.90733887 418.41577148 129.90991211 417.24951172 C129.92356812 415.08412842 129.92356812 415.08412842 129.9375 412.875 C129.958125 408.29625 129.97875 403.7175 130 399 C114.49 399 98.98 399 83 399 C83 405.93 83 412.86 83 420 C84.98 420.66 86.96 421.32 89 422 C94.67393253 424.94542171 98.49635466 429.12904871 101 435 C103.15459728 442.43849061 103.81818646 449.6702431 101 457 C97.24163111 463.60034537 91.44625975 469.72335823 84.23828125 472.48828125 C75.98055573 474.37617312 67.6350374 473.97262073 60.2578125 469.6875 C54.29319271 465.22951427 49.8501208 460.30169035 48 453 C47.23147519 444.7964445 46.79981627 436.7872528 52 430 C54.4375 427.25 54.4375 427.25 57 425 C57.825 424.2575 58.65 423.515 59.5 422.75 C62 421 62 421 67 420 C67 413.07 67 406.14 67 399 C51.49 399 35.98 399 20 399 C20.185625 403.29 20.37125 407.58 20.5625 412 C20.80970559 424.83538918 18.70029449 432.87742744 11 443 C7.9476447 446.66782955 7.9476447 446.66782955 7.12109375 451.08984375 C7.41113281 451.72019531 7.70117188 452.35054688 8 453 C8.32097656 453.72316406 8.64195312 454.44632812 8.97265625 455.19140625 C9.33230469 455.97386719 9.69195312 456.75632812 10.0625 457.5625 C13.00662863 464.90664504 13.06804815 471.70118107 10.5 479.1875 C7.12331361 486.58797296 2.1165458 491.47414972 -5.4375 494.5 C-14.66665143 497.34364501 -22.38259945 496.49935073 -31 492 C-37.36809785 487.37833701 -41.18734816 481.64712494 -43 474 C-44.23422658 465.01328769 -41.9204323 457.94227005 -37.375 450.25 C-33.05515204 446.15751246 -27.05285117 441.75517614 -21 441 C-20.06027344 441.18820312 -19.12054688 441.37640625 -18.15234375 441.5703125 C-14.19753576 442.25267305 -11.8400392 442.25415422 -8 441 C0.09643281 433.74104716 3.4408034 422.94723629 4.10253906 412.43774414 C4.22453462 407.95020083 4.20507849 403.48450402 4 399 C3.41210693 399.02094727 2.82421387 399.04189453 2.21850586 399.06347656 C-20.92445426 399.77660922 -38.80007049 395.46347434 -56.49609375 379.7890625 C-69.97817632 367.1072862 -78.42029635 349.55073379 -79.07275391 330.92285156 C-79.15723885 326.27923313 -79.10605422 321.64281818 -79 317 C-93.93361696 316.32301469 -106.89014011 317.29032036 -118.6171875 327.45947266 C-120.69001418 329.76871283 -121.0074953 331.49583102 -120.9375 334.5625 C-120.62551807 336.37508925 -120.31302852 338.1875912 -120 340 C-120.98175323 348.06007284 -124.97522733 353.72832391 -131 359 C-137.38505916 363.24888128 -144.34321457 364.93123066 -152 364 C-159.81734201 361.95683106 -166.13032506 359.29457127 -170.69140625 352.46875 C-175.31927209 344.30824411 -176.7992568 336.58727908 -174.296875 327.42578125 C-171.18452023 319.65808227 -166.45402511 314.18427174 -158.83203125 310.7265625 C-151.48448392 307.81260983 -143.75370913 307.96797983 -136.4375 310.9375 C-134.95458038 311.61686712 -133.47479843 312.30317873 -132 313 C-131.01 313.33 -130.02 313.66 -129 314 C-126.9753525 312.91491836 -126.9753525 312.91491836 -124.87890625 311.25390625 C-109.10463028 300.16351644 -98.2270103 299.76261815 -79 301 C-79 285.49 -79 269.98 -79 254 C-87.58 254.33 -96.16 254.66 -105 255 C-106.32 257.64 -107.64 260.28 -109 263 C-114.01549043 268.84278782 -119.756401 272.56885809 -127.421875 273.34765625 C-136.68461372 273.71035385 -143.84974743 272.7119332 -150.8359375 266.3203125 C-156.75813875 259.82033552 -159.35141927 252.96902655 -159.21875 244.1796875 C-158.50645868 237.08221325 -155.5461447 230.10660156 -150.140625 225.37109375 C-141.83902452 218.89522119 -134.33759509 217.99067674 -124 219 C-116.60843171 221.09932257 -111.2330126 225.6504811 -107 232 C-106.01 234.475 -106.01 234.475 -105 237 C-96.42 237.33 -87.84 237.66 -79 238 C-79 222.49 -79 206.98 -79 191 C-85.249375 191.4021875 -85.249375 191.4021875 -91.625 191.8125 C-106.21451056 192.28440022 -115.49536 187.75917889 -126.85717773 178.96630859 C-129.02619787 177.71007221 -129.02619787 177.71007221 -131.54711914 178.73291016 C-132.35656982 179.1510498 -133.16602051 179.56918945 -134 180 C-141.34147183 183.34874153 -148.59286112 184.48152257 -156.5234375 182.30859375 C-164.31538754 179.13064826 -169.78827944 174.51453184 -173.2734375 166.83203125 C-176.12561188 159.64025823 -176.32708891 151.16780711 -173.25 144 C-169.10899867 136.12059468 -163.79002062 131.79625773 -155.5 128.6875 C-147.87226985 127.18919586 -141.09023302 127.7233699 -134 131 C-128.03039407 135.06381624 -123.04556763 139.94029707 -121 147 C-120.26490982 151.49925887 -119.65645942 156.02388164 -120.44140625 160.5390625 C-120.21622151 163.40136062 -120.21622151 163.40136062 -116.82421875 165.38671875 C-115.45599698 166.17254875 -114.07640933 166.93884088 -112.6875 167.6875 C-111.31631253 168.46207369 -109.94521551 169.23680754 -108.57421875 170.01171875 C-107.65515747 170.51384888 -107.65515747 170.51384888 -106.7175293 171.02612305 C-105.10050605 171.94301085 -103.54668446 172.96887702 -102 174 C-99.48497823 174.36696181 -99.48497823 174.36696181 -96.67578125 174.4140625 C-95.13374023 174.47207031 -95.13374023 174.47207031 -93.56054688 174.53125 C-92.48869141 174.5621875 -91.41683594 174.593125 -90.3125 174.625 C-88.68731445 174.68300781 -88.68731445 174.68300781 -87.02929688 174.7421875 C-84.35303533 174.83650509 -81.67678157 174.92210005 -79 175 C-79.03480469 174.030625 -79.06960937 173.06125 -79.10546875 172.0625 C-79.69006903 148.62534314 -73.17963889 129.63121673 -56.8125 112.3125 C-40.51745801 96.57858205 -20.4697787 91.55646582 1.68359375 91.9296875 C2.44800781 91.95289062 3.21242187 91.97609375 4 92 C4.70942884 77.27359655 3.31429636 64.2590658 -6.36474609 52.49267578 C-8.98288183 50.10281584 -11.09193582 49.95957698 -14.5625 50.0625 C-15.64789063 50.23265625 -16.73328125 50.4028125 -17.8515625 50.578125 C-24.16509308 51.42410677 -29.19307749 48.19325072 -34.3125 44.8125 C-41.01589255 37.79732175 -43.40925922 30.48101566 -43.26953125 20.94140625 C-42.54680948 13.05431218 -39.1288337 7.01444023 -33.3359375 1.6953125 C-22.93642579 -5.85215921 -11.13062166 -5.81156352 0 0 Z M-49.05078125 127.57421875 C-58.96049558 139.90674901 -63.11209234 153.57224423 -63.13371277 169.25921631 C-63.13597833 169.94362171 -63.13824388 170.62802712 -63.14057809 171.33317208 C-63.14685398 173.60201522 -63.14609289 175.87079764 -63.14526367 178.13964844 C-63.14825919 179.77651038 -63.15166263 181.41337161 -63.15544128 183.05023193 C-63.16424599 187.48017851 -63.16661792 191.91010575 -63.16725707 196.34006023 C-63.16796964 199.11281979 -63.17010787 201.88557448 -63.17275429 204.65833282 C-63.18199639 214.34611827 -63.18609064 224.03388998 -63.18530273 233.72167969 C-63.18470241 242.72843124 -63.19524822 251.73512281 -63.2110464 260.7418592 C-63.22415594 268.49416373 -63.22948519 276.24644875 -63.22884732 283.99876428 C-63.22859332 288.62014646 -63.2313904 293.24147531 -63.24202538 297.86284637 C-63.25176387 302.21313499 -63.25174643 306.56331992 -63.24450874 310.91361237 C-63.24346998 312.50178683 -63.24578323 314.08996796 -63.2518692 315.6781311 C-63.3239405 335.80392232 -59.8499372 352.50814177 -45.75 367.6875 C-38.35970331 374.68188794 -29.67575569 379.08315955 -20 382 C-19.44091414 382.17694995 -18.88182829 382.3538999 -18.30580044 382.53621197 C-15.10628466 383.17976165 -11.9465074 383.14804224 -8.69703674 383.14717102 C-7.59085893 383.15268605 -7.59085893 383.15268605 -6.4623341 383.1583125 C-3.98993767 383.16932982 -1.5175833 383.17318993 0.95483398 383.17700195 C2.72741326 383.18326831 4.49999122 383.18991526 6.27256775 383.19691467 C12.09706713 383.21794508 17.92156674 383.22831925 23.74609375 383.23828125 C25.75420711 383.24232983 27.76232034 383.24644678 29.77043343 383.25063133 C39.2098981 383.26968437 48.64935497 383.28391259 58.08883518 383.2922433 C68.96644459 383.30200268 79.84384981 383.32828776 90.72138733 383.36874419 C99.13943761 383.39897248 107.5574296 383.41371872 115.97553307 383.41702431 C120.99781836 383.41936803 126.01988554 383.42823924 131.04211235 383.45348549 C135.77408414 383.47688748 140.50569613 383.48095101 145.23771095 383.47072411 C146.96576514 383.4702315 148.69383778 383.47646998 150.42183685 383.49028015 C168.81822637 383.62896551 183.01984287 379.23499471 196.6796875 366.41015625 C210.97215236 351.56427946 213.30916607 334.06030522 213.2746582 314.36791992 C213.27901366 312.71415478 213.28419956 311.06039165 213.29014587 309.40663147 C213.30345837 304.94365224 213.30412317 300.4807581 213.30158257 296.0177629 C213.30050745 292.27810473 213.30541007 288.5384634 213.310188 284.79880887 C213.32125666 275.96831727 213.32173567 267.13786822 213.31567383 258.30737305 C213.30963754 249.22955856 213.32194238 240.1518992 213.3432439 231.07411116 C213.36091862 223.25122001 213.36685198 215.42837798 213.36360615 207.60546762 C213.36180229 202.9460387 213.36433902 198.28672044 213.37832069 193.6273098 C213.39099022 189.24163404 213.38886966 184.85619825 213.37590981 180.47052574 C213.37356409 178.8719016 213.37620566 177.27326009 213.38453293 175.67465591 C213.47689947 156.54583242 210.11415019 139.40098246 196.3125 125.1796875 C179.67925631 109.50173146 162.11959863 107.84636479 140.21582031 107.85473633 C138.64102093 107.85173886 137.06622227 107.84833499 135.49142456 107.84455872 C131.23914225 107.83577418 126.98688009 107.83338295 122.73458958 107.83274293 C120.07068488 107.83202926 117.40678522 107.82988895 114.74288177 107.82724571 C105.42884499 107.81801054 96.11482246 107.81390852 86.80078125 107.81469727 C78.15189018 107.81529752 69.50306157 107.80475125 60.8541863 107.7889536 C53.40074602 107.77583008 45.94732604 107.77051538 38.49387431 107.77115268 C34.05466303 107.77140625 29.61550733 107.76863303 25.17630768 107.75797462 C20.99670639 107.74821224 16.81721292 107.74826954 12.63760757 107.75549126 C11.11477372 107.75652707 9.59193285 107.75423484 8.06911087 107.7481308 C-13.83884273 107.66609174 -33.28996294 111.11007792 -49.05078125 127.57421875 Z " fill="#F37324" transform="translate(181,10)"/>
<path d="M0 0 C1.72217398 -0.0054255 3.44434331 -0.01255056 5.16650391 -0.02124023 C9.82769217 -0.03942565 14.48852502 -0.03242588 19.14971924 -0.01972389 C24.03602023 -0.0095714 28.92229152 -0.01899581 33.80859375 -0.02526855 C42.0130762 -0.03253841 50.21741446 -0.02297462 58.421875 -0.00390625 C67.89686133 0.01786121 77.37150333 0.01080937 86.84648132 -0.01121187 C94.99280232 -0.02938472 103.13901988 -0.03191498 111.28535461 -0.0214572 C116.1458602 -0.01523263 121.00620413 -0.01435806 125.86669922 -0.02760315 C130.43707333 -0.03918848 135.00700504 -0.03108706 139.57733154 -0.00802612 C141.25103014 -0.00275334 142.9247662 -0.00422825 144.59844971 -0.01307678 C154.56173352 -0.06088048 161.82758033 0.11548658 169.8125 6.83007812 C175.526629 13.65528776 177.181437 19.59766884 177.20294189 28.43621826 C177.20591302 29.12017709 177.20888414 29.80413592 177.2119453 30.50882077 C177.2205966 32.79397897 177.22213751 35.07908456 177.22363281 37.36425781 C177.22826352 39.00554516 177.23328852 40.64683143 177.23867798 42.28811646 C177.25177973 46.74282765 177.2582426 51.19752379 177.26268864 55.65225124 C177.26562298 58.43753447 177.26972847 61.22281362 177.27419281 64.00809479 C177.28786193 72.72887234 177.29753143 81.44964052 177.3013947 90.17042804 C177.30587403 100.22565722 177.32341861 110.28075038 177.3523953 120.33593822 C177.37403519 128.11616058 177.38410022 135.89634474 177.38543582 143.67659688 C177.3864822 148.31975746 177.39235443 152.96279007 177.41025543 157.60591888 C177.42677603 161.97589154 177.42887233 166.34564057 177.42011642 170.71563339 C177.41934818 172.31474534 177.42366061 173.9138695 177.43357468 175.5129509 C177.54974045 195.42603112 177.54974045 195.42603112 170.875 202.83007812 C170.34519531 203.44496094 169.81539062 204.05984375 169.26953125 204.69335938 C160.891889 211.61788845 152.42211097 211.08959563 142.125 211.03515625 C140.40282602 211.04058175 138.68065669 211.04770681 136.95849609 211.05639648 C132.29730783 211.0745819 127.63647498 211.06758213 122.97528076 211.05488014 C118.08897977 211.04472765 113.20270848 211.05415206 108.31640625 211.0604248 C100.1119238 211.06769466 91.90758554 211.05813087 83.703125 211.0390625 C74.22813867 211.01729504 64.75349667 211.02434688 55.27851868 211.04636812 C47.13219768 211.06454097 38.98598012 211.06707123 30.83964539 211.05661345 C25.9791398 211.05038888 21.11879587 211.04951431 16.25830078 211.0627594 C11.68792667 211.07434473 7.11799496 211.06624331 2.54766846 211.04318237 C0.87396986 211.03790959 -0.7997662 211.0393845 -2.47344971 211.04823303 C-12.02350554 211.09405407 -19.42264937 211.0758706 -27.14453125 204.69335938 C-27.67433594 204.07847656 -28.20414063 203.46359375 -28.75 202.83007812 C-29.56404297 201.92708984 -29.56404297 201.92708984 -30.39453125 201.00585938 C-35.78886124 192.30664874 -35.36684149 183.07860357 -35.32568359 173.21679688 C-35.32975422 171.57491711 -35.33509885 169.93304009 -35.34161377 168.29116821 C-35.35523478 163.85315293 -35.35001037 159.41534799 -35.34047651 154.97732925 C-35.3328528 150.32106227 -35.33993304 145.66481265 -35.34463501 141.00854492 C-35.35008468 133.19088526 -35.34292167 125.37331078 -35.32861328 117.55566406 C-35.31228829 108.53231448 -35.31757736 99.50916829 -35.3340925 90.48582363 C-35.34772986 82.72249079 -35.34961604 74.95921899 -35.34177649 67.19587803 C-35.33711233 62.56621024 -35.33644041 57.93663788 -35.34638596 53.30697632 C-35.35508616 48.95333769 -35.34897823 44.59995994 -35.33170319 40.24634933 C-35.3277546 38.65369473 -35.32884433 37.06101797 -35.33549118 35.46837234 C-35.41075652 15.59361326 -35.41075652 15.59361326 -28.75 8.20507812 C-28.22019531 7.59019531 -27.69039062 6.9753125 -27.14453125 6.34179688 C-18.766889 -0.5827322 -10.29711097 -0.05443938 0 0 Z M-17.9375 20.51757812 C-19.31162112 23.92239797 -19.06607207 27.48172581 -19.07121277 31.11509705 C-19.07347833 31.7765224 -19.07574388 32.43794775 -19.07807809 33.1194163 C-19.0844045 35.33410457 -19.08358961 37.54873143 -19.08276367 39.76342773 C-19.08575598 41.35194477 -19.08915868 42.94046109 -19.09294128 44.52897644 C-19.10177744 48.84299119 -19.10411922 53.1569861 -19.10475707 57.47100902 C-19.10570662 61.0719812 -19.10938538 64.67294876 -19.11292917 68.27391917 C-19.12107201 76.7687968 -19.12351353 85.26366383 -19.12280273 93.75854492 C-19.12220174 102.52336908 -19.13275831 111.28813172 -19.1485464 120.05294031 C-19.16161766 127.57745591 -19.16698682 135.10195139 -19.16634732 142.62647825 C-19.16609225 147.12082396 -19.16894892 151.61511499 -19.17952538 156.10944939 C-19.18919957 160.33572715 -19.18929021 164.56189788 -19.18200874 168.7881794 C-19.18096211 170.33897686 -19.18333047 171.88978096 -19.1893692 173.44056702 C-19.19708098 175.55819601 -19.19244997 177.67545461 -19.18473816 179.79307556 C-19.18528293 180.97791503 -19.18582769 182.1627545 -19.18638897 183.38349819 C-18.87341818 187.32451442 -17.93094175 190.03807386 -15.73673153 193.30584812 C-12.9371831 195.1912624 -10.49354355 194.89873566 -7.14979553 194.90525818 C-6.10887816 194.91333649 -6.10887816 194.91333649 -5.04693216 194.92157799 C-2.71608618 194.93591284 -0.3858037 194.92874055 1.94506836 194.92163086 C3.61388101 194.92733157 5.28268975 194.93429467 6.95149231 194.94242859 C11.4886846 194.96040853 16.02568401 194.95918254 20.56290126 194.9534862 C24.34784393 194.95040123 28.13274917 194.9564791 31.91768652 194.96252495 C40.8454651 194.97658453 49.77314802 194.97499707 58.70092773 194.96362305 C67.91742459 194.9521408 77.1336305 194.96621599 86.35008901 194.99301952 C94.25759845 195.01515702 102.16501642 195.0218183 110.07255465 195.01594311 C114.79776349 195.01256759 119.52278582 195.0150279 124.24796867 195.03219414 C128.69103016 195.04763015 133.13365981 195.04374518 137.57670403 195.02488899 C139.2085461 195.02119376 140.84041993 195.02433871 142.47223282 195.03477478 C144.69792761 195.04792353 146.92217982 195.03649377 149.14781189 195.01878357 C150.39386672 195.01857429 151.63992155 195.018365 152.92373562 195.01814938 C156.67584193 194.41976214 157.83455017 193.54953472 160.0625 190.51757812 C161.43662112 187.11275828 161.19107207 183.55343044 161.19621277 179.9200592 C161.1996111 178.92792118 161.1996111 178.92792118 161.20307809 177.91573995 C161.2094045 175.70105168 161.20858961 173.48642482 161.20776367 171.27172852 C161.21075598 169.68321148 161.21415868 168.09469516 161.21794128 166.50617981 C161.22677744 162.19216506 161.22911922 157.87817015 161.22975707 153.56414723 C161.23070662 149.96317505 161.23438538 146.36220749 161.23792917 142.76123708 C161.24607201 134.26635945 161.24851353 125.77149242 161.24780273 117.27661133 C161.24720174 108.51178717 161.25775831 99.74702453 161.2735464 90.98221594 C161.28661766 83.45770034 161.29198682 75.93320486 161.29134732 68.408678 C161.29109225 63.91433229 161.29394892 59.42004126 161.30452538 54.92570686 C161.31419957 50.6994291 161.31429021 46.47325837 161.30700874 42.24697685 C161.30596211 40.69617939 161.30833047 39.14537529 161.3143692 37.59458923 C161.32208098 35.47696024 161.31744997 33.35970164 161.30973816 31.24208069 C161.31028293 30.05724122 161.31082769 28.87240175 161.31138897 27.65165806 C160.99841818 23.71064183 160.05594175 20.99708239 157.86173153 17.72930813 C155.0621831 15.84389385 152.61854355 16.13642059 149.27479553 16.12989807 C148.23387816 16.12181976 148.23387816 16.12181976 147.17193216 16.11357826 C144.84108618 16.09924341 142.5108037 16.1064157 140.17993164 16.11352539 C138.51111899 16.10782468 136.84231025 16.10086158 135.17350769 16.09272766 C130.6363154 16.07474772 126.09931599 16.07597371 121.56209874 16.08167005 C117.77715607 16.08475502 113.99225083 16.07867715 110.20731348 16.0726313 C101.2795349 16.05857172 92.35185198 16.06015918 83.42407227 16.0715332 C74.20757541 16.08301545 64.9913695 16.06894026 55.77491099 16.04213673 C47.86740155 16.01999923 39.95998358 16.01333795 32.05244535 16.01921314 C27.32723651 16.02258866 22.60221418 16.02012835 17.87703133 16.00296211 C13.43396984 15.9875261 8.99134019 15.99141107 4.54829597 16.01026726 C2.9164539 16.01396249 1.28458007 16.01081754 -0.34723282 16.00038147 C-2.57292761 15.98723272 -4.79717982 15.99866248 -7.02281189 16.01637268 C-8.26886672 16.01658196 -9.51492155 16.01679125 -10.79873562 16.01700687 C-14.55084193 16.61539411 -15.70955017 17.48562153 -17.9375 20.51757812 Z " fill="#F37324" transform="translate(184.9375,150.482421875)"/>
<path d="M0 0 C0.77214844 -0.02191406 1.54429687 -0.04382813 2.33984375 -0.06640625 C10.60173789 1.84200832 15.1424836 7.62582579 19.75 14.3125 C20.95661988 16.0103336 22.16499482 17.7069211 23.375 19.40234375 C23.98214844 20.25940918 24.58929688 21.11647461 25.21484375 21.99951172 C28.64024952 26.75108541 32.26363637 31.35287793 35.88745117 35.95410156 C39.83840957 41.04389899 43.48913611 45.79698191 43.5 52.5 C43.51933594 53.29277344 43.53867187 54.08554687 43.55859375 54.90234375 C42.15720333 62.41688608 36.06162159 68.69075071 31.5 74.5625 C25.53954829 82.24633811 25.53954829 82.24633811 19.84765625 90.12890625 C19.37078369 90.81017578 18.89391113 91.49144531 18.40258789 92.19335938 C17.5422648 93.43345343 16.69511739 94.68285233 15.86499023 95.94335938 C12.43193983 100.85768241 7.95464451 103.81558528 2.06640625 104.94555664 C-3.31568381 105.25964304 -7.54365605 103.60368945 -11.9375 100.5625 C-14.795579 97.59751575 -17.16476227 94.34230107 -19.5625 91 C-20.24256104 90.07848145 -20.92262207 89.15696289 -21.62329102 88.20751953 C-23.03474076 86.29189883 -24.43939817 84.37125589 -25.83740234 82.44580078 C-27.8863152 79.63277349 -29.96281402 76.84271725 -32.05078125 74.05859375 C-33.32607836 72.35197898 -34.60084171 70.64496518 -35.875 68.9375 C-36.47199707 68.13884521 -37.06899414 67.34019043 -37.68408203 66.51733398 C-38.2304834 65.77684814 -38.77688477 65.0363623 -39.33984375 64.2734375 C-39.81929443 63.62681152 -40.29874512 62.98018555 -40.79272461 62.31396484 C-42.80786188 59.23087788 -43.14396791 56.40642966 -43.25 52.8125 C-43.28738281 51.99265625 -43.32476562 51.1728125 -43.36328125 50.328125 C-42.20027275 42.77390465 -35.92152448 36.41550317 -31.375 30.5625 C-25.41354189 22.86678838 -25.41354189 22.86678838 -19.6875 14.99609375 C-19.20611572 14.31482422 -18.72473145 13.63355469 -18.22875977 12.93164062 C-17.35833063 11.68965048 -16.49847945 10.44014273 -15.65209961 9.18164062 C-11.82845347 3.75321106 -6.8905729 -0.01146518 0 0 Z " fill="#F37324" transform="translate(255.9375,203.4375)"/>
</svg>
