<?xml version="1.0" encoding="UTF-8"?>
<svg version="1.1" xmlns="http://www.w3.org/2000/svg" width="512" height="512">
<path d="M0 0 C1.27286865 -0.0087616 2.5457373 -0.01752319 3.85717773 -0.02655029 C7.32020332 -0.04917121 10.78247669 -0.04057999 14.24551392 -0.02465487 C17.88700231 -0.01190553 21.52843067 -0.02376084 25.16992188 -0.03158569 C31.28266847 -0.04065622 37.39511202 -0.02876312 43.5078125 -0.00488281 C50.55286702 0.02232384 57.5971978 0.0135078 64.6422348 -0.01401484 C70.71479186 -0.03677953 76.78713234 -0.03987029 82.85971832 -0.02682149 C86.47617945 -0.01906713 90.09230153 -0.01787338 93.70874023 -0.03450394 C97.74375553 -0.05176667 101.7775433 -0.02777401 105.8125 0 C107.58645142 -0.01518173 107.58645142 -0.01518173 109.39624023 -0.03067017 C118.78033976 0.08852976 125.71681421 2.55796977 132.71484375 8.88525391 C136.31117441 12.79813714 138.60495282 17.10956558 140.96875 21.83447266 C141.41835083 22.72807495 141.86795166 23.62167725 142.33117676 24.5423584 C148.01796967 35.85636617 153.67808418 47.18370412 159.33984375 58.51025391 C160.36811163 60.56710385 161.39639116 62.62394797 162.42468262 64.68078613 C164.91867269 69.66944786 167.41251934 74.65818126 169.90625 79.64697266 C170.50001875 79.64751742 171.0937875 79.64806219 171.70554924 79.64862347 C186.18813086 79.66362483 200.67044014 79.70620672 215.15284538 79.77906322 C222.15661946 79.81363973 229.16019822 79.83905905 236.1640625 79.8425293 C242.9269885 79.84590636 249.68940795 79.8753204 256.45218277 79.92040443 C259.02843489 79.9333641 261.60474579 79.9376926 264.18102646 79.93312645 C267.79813964 79.92821002 271.41382441 79.95436314 275.03076172 79.98754883 C276.08884537 79.97892319 277.14692902 79.97029755 278.23707581 79.96141052 C287.19047971 80.09853192 295.54930776 83.11344868 301.90625 89.64697266 C305.83964658 95.48922346 309.02453388 100.43728607 309.04326439 107.61092472 C309.04833893 108.64181597 309.05341347 109.67270722 309.05864179 110.73483759 C309.05938843 112.43907905 309.05938843 112.43907905 309.06015015 114.17774963 C309.0645324 115.38198875 309.06891465 116.58622786 309.0734297 117.82695907 C309.08449997 121.17575245 309.09104391 124.52449907 309.09561086 127.87330401 C309.10156664 131.48289283 309.11317666 135.09246442 309.12390137 138.70204163 C309.14842759 147.42319239 309.16305371 156.14434885 309.17596143 164.86552349 C309.17967348 167.32907684 309.18364671 169.79262964 309.1877141 172.25618243 C309.21295291 187.55613853 309.235005 202.85609553 309.24744225 218.15606785 C309.25037193 221.70031805 309.25333359 225.24456823 309.25634766 228.78881836 C309.25709371 229.66972072 309.25783976 230.55062309 309.25860842 231.45821946 C309.27125747 245.722958 309.30447414 259.98757176 309.34614949 274.25225199 C309.38859177 288.89961682 309.41214001 303.54691783 309.41736281 318.19434398 C309.42077454 326.41743939 309.43250141 334.64033988 309.46546555 342.86337471 C309.49349893 349.86789641 309.50445109 356.87218324 309.49327008 363.87675668 C309.48809156 367.44874914 309.49091662 371.02025002 309.51573563 374.59217072 C309.54245955 378.47074867 309.53013993 382.34866073 309.51425171 386.22731018 C309.5281338 387.3478561 309.54201588 388.46840202 309.55631864 389.62290388 C309.46823826 398.36388425 306.7139796 404.07141331 302.21875 411.39697266 C295.55059246 417.88490972 288.4164808 420.79881229 279.25611019 420.78398705 C278.46548574 420.78663887 277.67486129 420.7892907 276.86027852 420.79202288 C274.18873649 420.79973352 271.51724029 420.80027573 268.84568787 420.8008728 C266.91981815 420.80488627 264.99394928 420.8093243 263.06808144 420.81415236 C257.75822969 420.82613672 252.44838704 420.83177063 247.13852441 420.83633351 C241.41848996 420.84228258 235.69846643 420.85389418 229.97843933 420.86462402 C216.15527517 420.88916435 202.3321074 420.90377775 188.50892815 420.91668409 C184.6058986 420.92039489 180.70286941 420.92436822 176.79984021 420.92843676 C152.57293306 420.95367257 128.34602635 420.97574619 104.11910915 420.9881649 C98.50543147 420.99108624 92.89175381 420.99405376 87.27807617 420.99707031 C86.58064604 420.99744122 85.88321591 420.99781213 85.16465153 420.99819428 C62.55571351 421.01034798 39.94685337 421.0412887 17.33795192 421.08299184 C-6.56385308 421.12699937 -30.46560646 421.15269982 -54.36745304 421.15808547 C-67.39717345 421.16150144 -80.42677101 421.17327863 -93.45645332 421.2061882 C-104.55258674 421.23416783 -115.64857215 421.24519716 -126.74473811 421.23399274 C-132.40673613 421.22880078 -138.06842408 421.2317282 -143.7303772 421.25645828 C-148.91522373 421.27891552 -154.09953681 421.27823798 -159.28439247 421.25925441 C-161.15863444 421.25644948 -163.03291231 421.26208023 -164.90709645 421.27706735 C-182.75463745 421.41104384 -182.75463745 421.41104384 -191.09375 415.64697266 C-192.00125 415.09009766 -192.90875 414.53322266 -193.84375 413.95947266 C-199.27119362 408.38126671 -203.21028419 401.5267764 -203.23076439 393.68302059 C-203.23583893 392.65212934 -203.24091347 391.6212381 -203.24614179 390.55910772 C-203.24663955 389.42294675 -203.24713731 388.28678577 -203.24765015 387.11619568 C-203.2520324 385.91195656 -203.25641465 384.70771745 -203.2609297 383.46698624 C-203.27199997 380.11819287 -203.27854391 376.76944624 -203.28311086 373.4206413 C-203.28906664 369.81105248 -203.30067666 366.20148089 -203.31140137 362.59190369 C-203.33592759 353.87075293 -203.35055371 345.14959646 -203.36346143 336.42842183 C-203.36717348 333.96486847 -203.37114671 331.50131568 -203.3752141 329.03776288 C-203.40045291 313.73780678 -203.422505 298.43784979 -203.43494225 283.13787746 C-203.43787193 279.59362726 -203.44083359 276.04937709 -203.44384766 272.50512695 C-203.44459371 271.62422459 -203.44533976 270.74332223 -203.44610842 269.83572585 C-203.45875747 255.57098731 -203.49197414 241.30637355 -203.53364949 227.04169332 C-203.57609177 212.39432849 -203.59964001 197.74702749 -203.60486281 183.09960133 C-203.60827454 174.87650593 -203.62000141 166.65360544 -203.65296555 158.4305706 C-203.68099893 151.4260489 -203.69195109 144.42176207 -203.68077008 137.41718864 C-203.67559156 133.84519618 -203.67841662 130.27369529 -203.70323563 126.7017746 C-203.72995955 122.82319664 -203.71763993 118.94528458 -203.70175171 115.06663513 C-203.7156338 113.94608921 -203.72951588 112.82554329 -203.74381864 111.67104143 C-203.65573826 102.93006106 -200.9014796 97.222532 -196.40625 89.89697266 C-191.16375152 84.79616332 -184.30982119 80.49650407 -176.86328125 80.54931641 C-175.65961914 80.55415039 -175.65961914 80.55415039 -174.43164062 80.55908203 C-173.18157227 80.57165039 -173.18157227 80.57165039 -171.90625 80.58447266 C-171.06126953 80.58898437 -170.21628906 80.59349609 -169.34570312 80.59814453 C-167.26168845 80.60991863 -165.17771023 80.62785376 -163.09375 80.64697266 C-163.15175781 79.46361328 -163.20976562 78.28025391 -163.26953125 77.06103516 C-163.58780836 67.77500579 -163.64274541 60.52557547 -158.09375 52.64697266 C-157.536875 51.73947266 -156.98 50.83197266 -156.40625 49.89697266 C-147.32049121 41.05677491 -137.99244135 40.3837805 -126.03588867 40.296875 C-124.37851846 40.28039661 -122.7212169 40.25321484 -121.06420898 40.21484375 C-111.31222211 39.99052562 -103.43839054 39.89869293 -95.09375 45.64697266 C-94.18625 46.20384766 -93.27875 46.76072266 -92.34375 47.33447266 C-87.24294066 52.57697114 -82.94328141 59.43090147 -82.99609375 66.87744141 C-82.99859131 67.60084717 -83.00108887 68.32425293 -83.00366211 69.06958008 C-83.01276611 69.98199463 -83.02187012 70.89440918 -83.03125 71.83447266 C-83.051875 74.74259766 -83.0725 77.65072266 -83.09375 80.64697266 C-76.82375 80.31697266 -70.55375 79.98697266 -64.09375 79.64697266 C-62.71038452 76.8173999 -62.71038452 76.8173999 -61.29907227 73.93066406 C-58.22881118 67.65680583 -55.140369 61.39202464 -52.04321384 55.13140297 C-50.16834539 51.34014818 -48.29946791 47.5461927 -46.44458008 43.74511719 C-44.64990166 40.06800114 -42.83910186 36.39922698 -41.01746941 32.73539352 C-40.3297686 31.34535867 -39.64764731 29.95254716 -38.97159004 28.55681229 C-30.27645978 10.62907705 -20.90185433 -0.17888109 0 0 Z M-12.6693573 25.29457092 C-13.00042984 25.90078781 -13.33150238 26.5070047 -13.67260742 27.1315918 C-14.06813812 27.83921661 -14.46366882 28.54684143 -14.8711853 29.27590942 C-15.47635483 30.44958572 -15.47635483 30.44958572 -16.09375 31.64697266 C-16.53965485 32.49170135 -16.98555969 33.33643005 -17.44497681 34.20675659 C-18.93812597 37.08760516 -20.38922864 39.9866919 -21.83203125 42.89306641 C-22.35766159 43.94478531 -22.88329193 44.99650421 -23.42485046 46.08009338 C-24.52675317 48.28690344 -25.62672474 50.49467872 -26.72485352 52.70336914 C-28.41413185 56.1003222 -30.10990222 59.49397502 -31.80664062 62.88720703 C-32.8779839 65.0348041 -33.94896072 67.18258402 -35.01953125 69.33056641 C-35.52881668 70.35025009 -36.03810211 71.36993378 -36.56282043 72.42051697 C-37.25935982 73.82316551 -37.25935982 73.82316551 -37.9699707 75.25415039 C-38.5868853 76.49369728 -38.5868853 76.49369728 -39.21626282 77.75828552 C-40.1639745 79.45102657 -40.1639745 79.45102657 -40.09375 80.64697266 C21.28625 80.64697266 82.66625 80.64697266 145.90625 80.64697266 C137.45964509 62.79945866 137.45964509 62.79945866 128.81152344 45.05249023 C128.02928489 43.46602715 127.25208272 41.87707254 126.47949219 40.28588867 C125.33639205 37.93293629 124.17782724 35.58819316 123.015625 33.24462891 C122.67593689 32.53742203 122.33624878 31.83021515 121.98626709 31.10157776 C119.89760652 26.94176699 117.93578582 24.21298044 113.90625 21.64697266 C110.94191821 20.70505004 108.24498311 20.51767108 105.14445496 20.50653076 C103.71256081 20.49796555 103.71256081 20.49796555 102.2517395 20.48922729 C101.21113373 20.48810944 100.17052795 20.48699158 99.09838867 20.48583984 C97.99714157 20.48087494 96.89589447 20.47591003 95.76127625 20.47079468 C92.11558407 20.45618122 88.46993541 20.44937251 84.82421875 20.44384766 C82.2907969 20.43809571 79.75737507 20.43233798 77.22395325 20.42657471 C72.5893493 20.41740998 67.95475841 20.41110861 63.32014769 20.40807796 C56.5096594 20.40359932 49.69937202 20.38605698 42.8889448 20.35707736 C36.98042572 20.33281269 31.07195641 20.32513155 25.16338539 20.3234024 C22.65439065 20.3203765 20.14539675 20.3123501 17.63643456 20.29921722 C14.12490016 20.282148 10.61385407 20.2840394 7.10229492 20.29052734 C6.06776184 20.28131256 5.03322876 20.27209778 3.96734619 20.26260376 C-2.29310779 20.29880668 -8.07177567 20.4869215 -12.6693573 25.29457092 Z M-140.09375 63.64697266 C-143.88724191 69.64313728 -143.09375 72.98022477 -143.09375 80.64697266 C-129.89375 80.64697266 -116.69375 80.64697266 -103.09375 80.64697266 C-102.69700405 71.31168103 -102.69700405 71.31168103 -106.09375 63.64697266 C-111.77447941 60.48442838 -116.67504002 60.18575118 -123.09375 60.27197266 C-123.95742187 60.26037109 -124.82109375 60.24876953 -125.7109375 60.23681641 C-131.24467827 60.26204623 -135.23261598 60.940709 -140.09375 63.64697266 Z M-180.09375 103.64697266 C-183.88089717 109.49028877 -183.48612007 115.47887557 -183.38671875 122.26806641 C-183.38247391 123.36796402 -183.37822906 124.46786163 -183.37385559 125.60108948 C-183.35713402 129.09580511 -183.31949295 132.58993287 -183.28125 136.08447266 C-183.26619478 138.46141742 -183.25250784 140.83837127 -183.24023438 143.21533203 C-183.20725185 149.02607769 -183.1571173 154.83648316 -183.09375 160.64697266 C-164.7348965 160.85747775 -146.37635739 161.01604964 -128.01655674 161.1132822 C-119.49117688 161.15963497 -110.96654807 161.22279638 -102.44165039 161.32592773 C-95.00883705 161.41580434 -87.57656774 161.47373652 -80.14322609 161.49376911 C-76.2091792 161.50547483 -72.27668824 161.53286009 -68.34314156 161.59854317 C-64.63509393 161.65995509 -60.92923201 161.67841554 -57.22072411 161.66494179 C-55.22187678 161.66857179 -53.223264 161.71684274 -51.22503662 161.76675415 C-44.49340907 161.69776409 -40.78849857 161.11248005 -35.92637634 156.25498962 C-34.63894594 154.72726249 -33.36029709 153.19205702 -32.09375 151.64697266 C-3.87809495 126.81784015 32.41776154 119.43569574 68.90625 121.64697266 C94.67652907 124.13139563 120.92088837 136.05852112 139.90625 153.64697266 C140.35144517 154.23131104 140.79664034 154.81564943 141.25532627 155.41769505 C143.79931156 158.5965239 145.76502977 160.39726963 149.80836296 161.28196526 C153.46838485 161.50921154 157.06953398 161.51248804 160.73608398 161.44165039 C162.13611247 161.43967367 163.5361482 161.44078851 164.93617249 161.44474792 C168.72140347 161.44674996 172.50507014 161.40570438 176.28993869 161.35673022 C180.250996 161.31286121 184.21209235 161.30885054 188.1733551 161.30055237 C195.66748519 161.27882741 203.16089732 161.2214284 210.65471178 161.15110594 C219.18907195 161.07276376 227.72346708 161.03435132 236.25809753 160.9992379 C253.80789642 160.92614223 271.35699721 160.80308097 288.90625 160.64697266 C288.98250818 153.65444956 289.03493729 146.66203431 289.07104492 139.66918945 C289.08610252 137.29187004 289.10655289 134.91457827 289.13256836 132.53735352 C289.16908403 129.11418827 289.18600709 125.69139134 289.19921875 122.26806641 C289.21470261 121.21050644 289.23018646 120.15294647 289.24613953 119.06333923 C289.24746693 113.20227593 289.14277568 108.64071645 285.90625 103.64697266 C280.88020911 100.97574227 276.69935441 100.21270572 271.00541687 100.26944923 C269.85172991 100.26290875 269.85172991 100.26290875 268.67473614 100.25623614 C266.10027836 100.24529719 263.52635808 100.25569542 260.9519043 100.26602173 C259.08643921 100.26256463 257.22097616 100.25779972 255.35551739 100.25184 C250.23128019 100.23930756 245.10721045 100.24551064 239.98297262 100.25479865 C234.45597285 100.26157958 228.92900209 100.25111265 223.40200806 100.24285889 C212.57538015 100.22950917 201.74881459 100.23240482 190.92218423 100.24109681 C182.1242549 100.24786806 173.32634305 100.24879249 164.52841187 100.24552536 C163.27691807 100.24506566 162.02542428 100.24460596 160.73600644 100.24413233 C158.19373329 100.24317317 155.65146015 100.24220053 153.10918701 100.24121456 C129.94236255 100.23290105 106.77557069 100.24152694 83.60875373 100.25724235 C62.46083062 100.27147914 41.3129617 100.27020525 20.16503906 100.25585938 C-3.59562279 100.23979499 -27.35625839 100.23348104 -51.11692715 100.24269617 C-53.64992205 100.24365183 -56.18291695 100.24459494 -58.71591187 100.24552536 C-59.96223981 100.24598819 -61.20856775 100.24645101 -62.4926632 100.24692786 C-71.28146263 100.24951967 -80.07024285 100.24514264 -88.85903931 100.2380867 C-99.56757685 100.22967862 -110.2760484 100.23193729 -120.98457837 100.24792893 C-126.44970027 100.25582093 -131.9147121 100.25888736 -137.37983322 100.24898148 C-142.3810737 100.24005341 -147.3821019 100.24493636 -152.38332307 100.26091413 C-154.19412602 100.26426993 -156.00494683 100.26254998 -157.81573832 100.25528677 C-160.27505363 100.2461777 -162.73363972 100.2555071 -165.19291687 100.26944923 C-166.25007804 100.25891399 -166.25007804 100.25891399 -167.328596 100.24816591 C-172.34584626 100.30510145 -175.72832576 101.32684552 -180.09375 103.64697266 Z M20.90625 145.64697266 C19.76671875 146.00919922 18.6271875 146.37142578 17.453125 146.74462891 C-10.05301477 156.5445217 -32.49080282 175.96386479 -45.50488281 202.17163086 C-57.3536904 227.14037169 -60.83410891 257.05279454 -52.09375 283.64697266 C-50.11238899 289.16054081 -47.70069878 294.40442731 -45.09375 299.64697266 C-44.38412109 301.12230469 -44.38412109 301.12230469 -43.66015625 302.62744141 C-31.19467643 327.09933239 -7.71837112 346.29125327 18.25634766 354.94848633 C39.59037999 361.64913188 63.49172898 362.46934755 84.90625 355.64697266 C86.04578125 355.28474609 87.1853125 354.92251953 88.359375 354.54931641 C115.86551477 344.74942361 138.30330282 325.33008052 151.31738281 299.12231445 C163.1661904 274.15357362 166.64660891 244.24115077 157.90625 217.64697266 C155.92488899 212.13340451 153.51319878 206.889518 150.90625 201.64697266 C150.19662109 200.17164063 150.19662109 200.17164063 149.47265625 198.66650391 C137.00717643 174.19461292 113.53087112 155.00269204 87.55615234 146.34545898 C66.22212001 139.64481343 42.32077102 138.82459777 20.90625 145.64697266 Z M-183.09375 180.64697266 C-183.09375 226.84697266 -183.09375 273.04697266 -183.09375 320.64697266 C-141.84375 320.64697266 -100.59375 320.64697266 -58.09375 320.64697266 C-59.53746803 317.03767759 -61.07735093 313.64480121 -62.81005859 310.17895508 C-66.32176495 303.06347827 -69.18695525 295.93731419 -71.46875 288.33447266 C-71.7069043 287.54806396 -71.94505859 286.76165527 -72.19042969 285.95141602 C-75.50585804 274.41319908 -76.50545652 263.12766261 -76.46875 251.14697266 C-76.46787384 250.44520905 -76.46699768 249.74344543 -76.46609497 249.02041626 C-76.37189608 226.06163575 -70.92896041 204.94508292 -59.37890625 185.01806641 C-57.93491119 182.80341447 -57.93491119 182.80341447 -58.09375 180.64697266 C-99.34375 180.64697266 -140.59375 180.64697266 -183.09375 180.64697266 Z M163.90625 180.64697266 C165.34996803 184.25626772 166.88985093 187.6491441 168.62255859 191.11499023 C172.13426495 198.23046704 174.99945525 205.35663112 177.28125 212.95947266 C177.5194043 213.74588135 177.75755859 214.53229004 178.00292969 215.3425293 C181.31835804 226.88074623 182.31795652 238.1662827 182.28125 250.14697266 C182.28037384 250.84873627 182.27949768 251.55049988 182.27859497 252.27352905 C182.18439608 275.23230956 176.74146041 296.3488624 165.19140625 316.27587891 C163.74741119 318.49053084 163.74741119 318.49053084 163.90625 320.64697266 C205.15625 320.64697266 246.40625 320.64697266 288.90625 320.64697266 C288.90625 274.44697266 288.90625 228.24697266 288.90625 180.64697266 C247.65625 180.64697266 206.40625 180.64697266 163.90625 180.64697266 Z M-183.09375 340.64697266 C-183.17000818 347.63949575 -183.22243729 354.631911 -183.25854492 361.62475586 C-183.27360252 364.00207527 -183.29405289 366.37936704 -183.32006836 368.7565918 C-183.35658403 372.17975704 -183.37350709 375.60255397 -183.38671875 379.02587891 C-183.40220261 380.08343887 -183.41768646 381.14099884 -183.43363953 382.23060608 C-183.43496693 388.09166939 -183.33027568 392.65322886 -180.09375 397.64697266 C-175.06770911 400.31820304 -170.88685441 401.08123959 -165.19291687 401.02449608 C-164.03922991 401.03103656 -164.03922991 401.03103656 -162.86223614 401.03770918 C-160.28777836 401.04864813 -157.71385808 401.0382499 -155.1394043 401.02792358 C-153.27393921 401.03138068 -151.40847616 401.0361456 -149.54301739 401.04210532 C-144.41878019 401.05463776 -139.29471045 401.04843468 -134.17047262 401.03914666 C-128.64347285 401.03236573 -123.11650209 401.04283266 -117.58950806 401.05108643 C-106.76288015 401.06443614 -95.93631459 401.06154049 -85.10968423 401.0528485 C-76.3117549 401.04607725 -67.51384305 401.04515282 -58.71591187 401.04841995 C-56.83867118 401.0491095 -56.83867118 401.0491095 -54.92350644 401.04981298 C-52.38123329 401.05077214 -49.83896015 401.05174478 -47.29668701 401.05273075 C-24.12986255 401.06104426 -0.96307069 401.05241838 22.20374627 401.03670296 C43.35166938 401.02246617 64.4995383 401.02374006 85.64746094 401.03808594 C109.40812279 401.05415032 133.16875839 401.06046427 156.92942715 401.05124915 C159.46242205 401.05029348 161.99541695 401.04935037 164.52841187 401.04841995 C165.77473981 401.04795713 167.02106775 401.0474943 168.3051632 401.04701745 C177.09396263 401.04442564 185.88274285 401.04880267 194.67153931 401.05585861 C205.38007685 401.06426669 216.0885484 401.06200802 226.79707837 401.04601638 C232.26220027 401.03812438 237.7272121 401.03505795 243.19233322 401.04496384 C248.1935737 401.05389191 253.1946019 401.04900896 258.19582307 401.03303118 C260.00662602 401.02967538 261.81744683 401.03139533 263.62823832 401.03865854 C266.08755363 401.04776761 268.54613972 401.03843822 271.00541687 401.02449608 C272.06257804 401.03503133 272.06257804 401.03503133 273.141096 401.04577941 C278.15834626 400.98884386 281.54082576 399.9670998 285.90625 397.64697266 C289.69339717 391.80365654 289.29862007 385.81506974 289.19921875 379.02587891 C289.19497391 377.92598129 289.19072906 376.82608368 289.18635559 375.69285583 C289.16963402 372.1981402 289.13199295 368.70401245 289.09375 365.20947266 C289.07869478 362.83252789 289.06500784 360.45557404 289.05273438 358.07861328 C289.01975185 352.26786762 288.9696173 346.45746216 288.90625 340.64697266 C270.5473965 340.43646756 252.18885739 340.27789567 233.82905674 340.18066311 C225.30367688 340.13431034 216.77904807 340.07114894 208.25415039 339.96801758 C200.82133705 339.87814097 193.38906774 339.82020879 185.95572609 339.8001762 C182.0216792 339.78847048 178.08918824 339.76108522 174.15564156 339.69540215 C170.44759393 339.63399022 166.74173201 339.61552977 163.03322411 339.62900352 C161.03437678 339.62537352 159.035764 339.57710257 157.03753662 339.52719116 C150.30590907 339.59618123 146.60099857 340.18146526 141.73887634 345.03895569 C140.45144594 346.56668282 139.17279709 348.10188829 137.90625 349.64697266 C109.69059495 374.47610517 73.39473846 381.85824957 36.90625 379.64697266 C11.13597093 377.16254968 -15.10838837 365.23542419 -34.09375 347.64697266 C-34.76154275 346.77046507 -34.76154275 346.77046507 -35.44282627 345.87625027 C-37.98681156 342.69742141 -39.95252977 340.89667569 -43.99586296 340.01198006 C-47.65588485 339.78473378 -51.25703398 339.78145727 -54.92358398 339.85229492 C-56.32361247 339.85427164 -57.7236482 339.8531568 -59.12367249 339.84919739 C-62.90890347 339.84719536 -66.69257014 339.88824094 -70.47743869 339.93721509 C-74.438496 339.9810841 -78.39959235 339.98509478 -82.3608551 339.99339294 C-89.85498519 340.0151179 -97.34839732 340.07251691 -104.84221178 340.14283937 C-113.37657195 340.22118155 -121.91096708 340.25959399 -130.44559753 340.29470742 C-147.99539642 340.36780308 -165.54449721 340.49086434 -183.09375 340.64697266 Z " fill="#F37324" transform="translate(203.09375,45.35302734375)"/>
<path d="M0 0 C1.07121094 0.84498047 1.07121094 0.84498047 2.1640625 1.70703125 C17.8807851 14.66270799 29.98983175 36.69899697 32 57 C33.70892344 83.74148722 29.29156188 106.88535446 12 128 C11.43667969 128.71414063 10.87335938 129.42828125 10.29296875 130.1640625 C-2.66270799 145.8807851 -24.69899697 157.98983175 -45 160 C-71.74148722 161.70892344 -94.88535446 157.29156188 -116 140 C-117.07121094 139.15501953 -117.07121094 139.15501953 -118.1640625 138.29296875 C-133.8807851 125.33729201 -145.98983175 103.30100303 -148 83 C-149.70892344 56.25851278 -145.29156188 33.11464554 -128 12 C-127.43667969 11.28585938 -126.87335938 10.57171875 -126.29296875 9.8359375 C-95.33778841 -27.71624848 -36.50441921 -29.89481506 0 0 Z M-109 23 C-109.66386719 23.63292969 -110.32773438 24.26585937 -111.01171875 24.91796875 C-122.72870555 36.845598 -127.22392519 53.80801759 -127.375 70 C-127.19921892 88.83996501 -121.09801418 105.08595588 -107.63671875 118.45703125 C-106.76660156 119.29621094 -105.89648438 120.13539063 -105 121 C-104.36707031 121.66386719 -103.73414063 122.32773437 -103.08203125 123.01171875 C-91.154402 134.72870555 -74.19198241 139.22392519 -58 139.375 C-39.16003499 139.19921892 -22.91404412 133.09801418 -9.54296875 119.63671875 C-8.70378906 118.76660156 -7.86460937 117.89648438 -7 117 C-6.33613281 116.36707031 -5.67226563 115.73414063 -4.98828125 115.08203125 C6.72870555 103.154402 11.22392519 86.19198241 11.375 70 C11.19921892 51.16003499 5.09801418 34.91404412 -8.36328125 21.54296875 C-9.23339844 20.70378906 -10.10351562 19.86460937 -11 19 C-11.63292969 18.33613281 -12.26585937 17.67226562 -12.91796875 16.98828125 C-24.845598 5.27129445 -41.80801759 0.77607481 -58 0.625 C-78.64613815 0.81763308 -94.76611804 8.24136663 -109 23 Z " fill="#F37324" transform="translate(314,226)"/>
<path d="M0 0 C1.27101562 -0.03996094 2.54203125 -0.07992187 3.8515625 -0.12109375 C8.29279447 0.583004 9.71184255 1.86826831 12.375 5.4375 C13.0390625 7.9375 13.0390625 7.9375 13 10.4375 C13.01289063 11.2625 13.02578125 12.0875 13.0390625 12.9375 C12.05977567 16.62422688 10.35472478 18.10571538 7.375 20.4375 C3.95703125 21.37109375 3.95703125 21.37109375 0.1875 21.875 C-7.7051974 23.18226711 -14.20782995 25.39254088 -19.49609375 31.65234375 C-23.45191929 37.35366546 -25.63538544 42.52697452 -26.4375 49.4375 C-27.06224488 53.25173192 -27.57202395 55.35141392 -29.625 58.6875 C-33.29544629 60.82859367 -35.939265 61.03616039 -40.125 61.1015625 C-43.82063997 60.11990813 -45.31978621 58.44764736 -47.625 55.4375 C-50.01095147 42.73712477 -45.75427534 30.49196833 -38.66015625 20.0390625 C-29.18360028 7.92507733 -15.49383886 0.26822328 0 0 Z " fill="#F37324" transform="translate(253.625,245.5625)"/>
<path d="M0 0 C0.67544861 -0.0087616 1.35089722 -0.01752319 2.04681396 -0.02655029 C4.26885132 -0.04847103 6.48888166 -0.03402082 8.7109375 -0.01708984 C10.26123434 -0.02046017 11.81152859 -0.02531459 13.36181641 -0.03158569 C16.6067019 -0.03894698 19.85089795 -0.0282766 23.09570312 -0.00488281 C27.2489408 0.02360583 31.40056301 0.00719768 35.55374146 -0.02274513 C38.75378527 -0.04083902 41.95344793 -0.03505079 45.15350342 -0.02210617 C46.68447055 -0.01877787 48.21547262 -0.02283903 49.74639893 -0.03450394 C51.8891524 -0.04724882 54.02931399 -0.02779228 56.171875 0 C57.3892334 0.00397797 58.6065918 0.00795593 59.86083984 0.01205444 C63.98777102 0.82451473 65.48065819 2.41619262 68.0859375 5.64697266 C68.75 8.14697266 68.75 8.14697266 68.7109375 10.64697266 C68.73027344 11.88447266 68.73027344 11.88447266 68.75 13.14697266 C67.78072312 16.79601503 65.97509349 18.2639985 63.0859375 20.64697266 C59.86083984 21.28189087 59.86083984 21.28189087 56.171875 21.29394531 C55.15870209 21.30708771 55.15870209 21.30708771 54.12506104 21.32049561 C51.90302368 21.34241634 49.68299334 21.32796613 47.4609375 21.31103516 C45.91064066 21.31440548 44.36034641 21.3192599 42.81005859 21.32553101 C39.5651731 21.33289229 36.32097705 21.32222192 33.07617188 21.29882812 C28.9229342 21.27033948 24.77131199 21.28674763 20.61813354 21.31669044 C17.41808973 21.33478433 14.21842707 21.3289961 11.01837158 21.31605148 C9.48740445 21.31272318 7.95640238 21.31678434 6.42547607 21.32844925 C4.2827226 21.34119413 2.14256101 21.32173759 0 21.29394531 C-1.2173584 21.28996735 -2.4347168 21.28598938 -3.68896484 21.28189087 C-7.81589602 20.46943058 -9.30878319 18.8777527 -11.9140625 15.64697266 C-12.578125 13.14697266 -12.578125 13.14697266 -12.5390625 10.64697266 C-12.55195313 9.82197266 -12.56484375 8.99697266 -12.578125 8.14697266 C-10.84580022 1.62527937 -6.19581878 0.0202461 0 0 Z " fill="#F37324" transform="translate(227.9140625,85.35302734375)"/>
<path d="M0 0 C1.31484375 -0.00644531 2.6296875 -0.01289063 3.984375 -0.01953125 C5.0043457 -0.0038208 5.0043457 -0.0038208 6.04492188 0.01220703 C8.12034681 0.03900242 10.19036676 0.01243363 12.265625 -0.01953125 C14.23789062 -0.00986328 14.23789062 -0.00986328 16.25 0 C17.44882812 0.00563965 18.64765625 0.0112793 19.8828125 0.01708984 C24.01623205 0.84190625 25.51135883 2.42798193 28.125 5.6640625 C28.7890625 8.1640625 28.7890625 8.1640625 28.75 10.6640625 C28.76289063 11.4890625 28.77578125 12.3140625 28.7890625 13.1640625 C27.82020825 16.8115138 26.01119791 18.2804485 23.125 20.6640625 C19.8828125 21.31103516 19.8828125 21.31103516 16.25 21.328125 C14.93515625 21.33457031 13.6203125 21.34101563 12.265625 21.34765625 C11.58564453 21.33718262 10.90566406 21.32670898 10.20507812 21.31591797 C8.12965319 21.28912258 6.05963324 21.31569137 3.984375 21.34765625 C2.01210938 21.33798828 2.01210938 21.33798828 0 21.328125 C-1.79824219 21.31966553 -1.79824219 21.31966553 -3.6328125 21.31103516 C-7.76623205 20.48621875 -9.26135883 18.90014307 -11.875 15.6640625 C-12.5390625 13.1640625 -12.5390625 13.1640625 -12.5 10.6640625 C-12.51289063 9.8390625 -12.52578125 9.0140625 -12.5390625 8.1640625 C-10.81550818 1.67538743 -6.17617823 0.0290546 0 0 Z " fill="#F37324" transform="translate(443.875,165.3359375)"/>
<path d="M0 0 C3.125 1.875 3.125 1.875 5 5 C5.98876625 10.02622846 5.7769173 13.70513784 3.125 18.125 C-1.29486216 20.7769173 -4.97377154 20.98876625 -10 20 C-13.125 18.125 -13.125 18.125 -15 15 C-15.98876625 9.97377154 -15.7769173 6.29486216 -13.125 1.875 C-8.70513784 -0.7769173 -5.02622846 -0.98876625 0 0 Z " fill="#F37324" transform="translate(407,166)"/>
</svg>
