<?xml version="1.0" encoding="UTF-8"?>
<svg version="1.1" xmlns="http://www.w3.org/2000/svg" width="512" height="512">
<path d="M0 0 C3.79620146 2.49033534 3.79620146 2.49033534 4.73901367 4.84814453 C5.04716601 7.38888791 5.14548787 9.86978817 5.17578125 12.4296875 C5.19962891 13.47253906 5.22347656 14.51539063 5.24804688 15.58984375 C5.2908585 17.77193922 5.32219423 19.95429138 5.34179688 22.13671875 C5.50683596 28.36214673 5.78466362 32.28414131 10 37 C13.51780401 39.6846399 16.57324127 40.82640162 21 41 C25.39998107 40.04681261 28.31459256 38.72055654 31.4375 35.4375 C33.77318384 31.79383321 34.1354532 29.83129032 34.2109375 25.51171875 C34.23929688 24.41279297 34.26765625 23.31386719 34.296875 22.18164062 C34.34869282 19.86408874 34.39304179 17.54635706 34.4296875 15.22851562 C34.460625 14.12572266 34.4915625 13.02292969 34.5234375 11.88671875 C34.54325684 10.87826904 34.56307617 9.86981934 34.58349609 8.83081055 C35.105668 5.28181682 36.44334285 2.55665715 39 0 C41.3156216 -0.25457153 43.60837381 -0.44602785 45.93154907 -0.59802246 C46.66635038 -0.64897206 47.40115168 -0.69992166 48.1582197 -0.75241518 C50.64237076 -0.92142181 53.12698311 -1.08158785 55.61181641 -1.24023438 C56.91442791 -1.32522753 56.91442791 -1.32522753 58.2433548 -1.41193771 C75.65131476 -2.53673331 93.06940846 -3.22359986 110.5045414 -3.76079559 C121.57980677 -4.11109901 132.61632174 -4.59015152 143.66748047 -5.41113281 C187.12904793 -8.56216444 230.05786424 -8.9426924 265.22480011 20.3423152 C297.74219713 48.73939812 307.90630186 83.46445268 310.73832142 125.03413725 C312.27664526 149.60752158 311.83946128 174.21229543 311.1918232 198.80789155 C310.87412195 211.10251796 310.93227855 223.34879944 311.25634766 235.64257812 C314.37303516 357.17970451 314.37303516 357.17970451 277.634552 396.04516602 C274.51714686 399.19413113 271.32558694 402.25074427 268.0859375 405.2734375 C267.31479661 405.99858551 266.54365573 406.72373352 265.74914694 407.47085571 C246.4199004 425.41319728 227.35941057 436.51457401 200.56275177 436.76839638 C175.54471221 435.82747589 175.54471221 435.82747589 169.24717712 430.52380371 C166.61156116 427.30360242 166.87160837 423.57490585 166.82421875 419.5703125 C166.80037109 418.52746094 166.77652344 417.48460937 166.75195312 416.41015625 C166.7091415 414.22806078 166.67780577 412.04570862 166.65820312 409.86328125 C166.49316404 403.63785327 166.21533638 399.71585869 162 395 C158.48219599 392.3153601 155.42675873 391.17359838 151 391 C146.60001893 391.95318739 143.68540744 393.27944346 140.5625 396.5625 C138.22681616 400.20616679 137.8645468 402.16870968 137.7890625 406.48828125 C137.76070313 407.58720703 137.73234375 408.68613281 137.703125 409.81835938 C137.65130718 412.13591126 137.60695821 414.45364294 137.5703125 416.77148438 C137.539375 417.87427734 137.5084375 418.97707031 137.4765625 420.11328125 C137.45674316 421.12173096 137.43692383 422.13018066 137.41650391 423.16918945 C136.894332 426.71818318 135.55665715 429.44334285 133 432 C130.6843784 432.25457153 128.39162619 432.44602785 126.06845093 432.59802246 C125.33364962 432.64897206 124.59884832 432.69992166 123.8417803 432.75241518 C121.35762924 432.92142181 118.87301689 433.08158785 116.38818359 433.24023438 C115.51977592 433.29689648 114.65136826 433.35355858 113.7566452 433.41193771 C96.34868524 434.53673331 78.93059154 435.22359986 61.4954586 435.76079559 C50.42019323 436.11109901 39.38367826 436.59015152 28.33251953 437.41113281 C-15.12904793 440.56216444 -58.05786424 440.9426924 -93.22480011 411.6576848 C-125.74219713 383.26060188 -135.90630186 348.53554732 -138.73832142 306.96586275 C-140.27664526 282.39247842 -139.83946128 257.78770457 -139.1918232 233.19210845 C-138.87412195 220.89748223 -138.93227552 208.65120038 -139.25634766 196.35742188 C-142.37315963 74.81972498 -142.37315963 74.81972498 -105.60708618 35.95483398 C-102.48725169 32.80564195 -99.29329713 29.74892718 -96.05078125 26.7265625 C-95.27849607 26.00141449 -94.50621089 25.27626648 -93.71052313 24.52914429 C-67.65655457 0.38432058 -35.56866373 -13.29642085 0 0 Z M-86.6953125 36.8125 C-87.37591815 37.46225296 -88.05652379 38.11200592 -88.75775385 38.78144836 C-120.87489989 69.76819736 -123.78352548 108.53473942 -124.57846832 150.73098755 C-124.83217749 166.9700336 -124.54997254 183.19395405 -124.15607539 199.42812741 C-123.87423144 211.27668003 -123.92584988 223.08573502 -124.21337891 234.93359375 C-128.57678419 316.43863331 -128.57678419 316.43863331 -94.45547485 386.80871582 C-91.70106513 389.59031805 -88.87639407 392.28229446 -86.00390625 394.94140625 C-85.32280084 395.5770261 -84.64169543 396.21264595 -83.93995047 396.86752701 C-65.3460866 413.97167444 -46.69363578 422.93382485 -21.0625 421.9375 C-12.90392159 421.24170549 -4.94480915 419.97884829 3 418 C2.9969838 417.44147339 2.99396759 416.88294678 2.99085999 416.30749512 C2.9661971 410.46643397 2.99055833 404.62700221 3.04272461 398.78613281 C3.05582177 396.60973983 3.05663777 394.43323546 3.04467773 392.25683594 C3.02960116 389.1180377 3.05944961 385.98229827 3.09765625 382.84375 C3.08340103 381.87884644 3.06914581 380.91394287 3.05445862 379.9197998 C3.18528349 373.74267569 4.39893034 370.44252638 8.76881409 366.0597229 C9.50510544 365.38001434 10.24139679 364.70030579 11 364 C12.24951698 362.80363419 12.24951698 362.80363419 13.52427673 361.58309937 C15.42693473 359.77946856 17.33638715 357.98921538 19.26390076 356.2127533 C23.13364748 352.6439828 26.93721459 349.00665771 30.74133968 345.36820889 C33.61648302 342.62404828 36.50886666 339.90474413 39.44946289 337.23071289 C53.98377983 324.93835724 53.98377983 324.93835724 61.50048828 308.28173828 C61.73375805 302.74102752 61.20932813 297.40817338 60 292 C59.40904541 291.97948074 58.81809082 291.95896149 58.20922852 291.93782043 C56.57973718 291.88124087 54.95026179 291.82420054 53.32080078 291.76675415 C51.61902617 291.70863942 49.91698608 291.65816521 48.21484375 291.61206055 C41.32728006 291.30858835 35.5491086 290.20922745 30.1875 285.5625 C29.465625 284.716875 28.74375 283.87125 28 283 C27.4946875 282.45730469 26.989375 281.91460937 26.46875 281.35546875 C24.37312386 277.99466407 23.93826846 274.62087375 23.3125 270.75 C23.11817383 269.63238281 23.11817383 269.63238281 22.91992188 268.4921875 C22.60335738 266.66314822 22.30032601 264.83177565 22 263 C16.07792631 262.7259896 10.15961365 262.5275471 4.23266602 262.39575195 C2.221595 262.34077118 0.21095688 262.26595232 -1.79858398 262.17016602 C-13.84769875 261.17269095 -13.84769875 261.17269095 -24.71166992 265.3503418 C-27.53586273 267.94314095 -29.77804451 270.87790129 -32 274 C-33.21459446 275.40853175 -34.44246694 276.8058003 -35.6875 278.1875 C-36.2239917 278.8374292 -36.7604834 279.4873584 -37.31323242 280.15698242 C-39 282 -39 282 -41.0559082 283.5246582 C-44.96513777 286.56947216 -46.78728544 288.77113413 -47.6472168 293.73901367 C-47.88559463 298.167247 -47.69943743 302.57380612 -47.5 307 C-47.45981465 308.55329347 -47.42332273 310.10668713 -47.390625 311.66015625 C-47.30303019 315.44260336 -47.16533508 319.22018564 -47 323 C-46.38511719 323.31380615 -45.77023438 323.6276123 -45.13671875 323.95092773 C-44.32847656 324.37833252 -43.52023438 324.8057373 -42.6875 325.24609375 C-41.88699219 325.6630249 -41.08648437 326.07995605 -40.26171875 326.50952148 C-36.16496531 329.20929262 -33.83102155 333.31928531 -32.39453125 337.953125 C-30.92063545 345.59987154 -31.77575854 352.3955358 -36 359 C-39.97111301 363.58909602 -45.33972049 366.50142372 -51.3515625 367.3203125 C-58.3911368 367.64722771 -64.50957373 366.15408969 -69.82421875 361.3515625 C-75.46168928 355.09983973 -76.47376864 349.54911214 -76.3046875 341.2265625 C-75.77840952 335.6534136 -74.19226607 332.01141515 -70.05859375 328.21875 C-67.08503996 325.89685901 -64.59598815 324.19866272 -61 323 C-61.00636475 321.86046875 -61.01272949 320.7209375 -61.01928711 319.546875 C-61.03379617 315.28967366 -61.00224056 311.03380964 -60.95727539 306.77685547 C-60.94419413 304.93998787 -60.94334764 303.10298843 -60.95532227 301.26611328 C-61.0535411 284.02636992 -61.0535411 284.02636992 -57.2421875 279.55859375 C-55.85109641 278.34553818 -54.43310005 277.16312618 -53 276 C-51.48817569 274.51226573 -50.01704354 272.98942511 -48.54353333 271.46377563 C-46.35631127 269.20516752 -44.12794501 266.98923313 -41.90063477 264.77026367 C-40.17019863 263.04525287 -38.4452551 261.31487572 -36.72070312 259.58398438 C-35.62011271 258.48405367 -34.51921272 257.38443262 -33.41796875 256.28515625 C-32.90340622 255.76856949 -32.38884369 255.25198273 -31.85868835 254.71974182 C-28.20649989 251.09164903 -26.47152004 249.88822157 -21.36669922 249.79467773 C-20.40585419 249.77473251 -19.44500916 249.75478729 -18.45504761 249.73423767 C-17.41542877 249.71752518 -16.37580994 249.70081268 -15.3046875 249.68359375 C-14.24210724 249.66281265 -13.17952698 249.64203156 -12.08474731 249.62062073 C-8.68156562 249.55509739 -5.27830511 249.49622727 -1.875 249.4375 C0.42839366 249.39431743 2.73177926 249.35070323 5.03515625 249.30664062 C10.69002446 249.1985988 16.34495022 249.09954582 22 249 C22 240.42 22 231.84 22 223 C14.41636065 222.79317347 6.84251569 222.61412651 -0.74169922 222.50561523 C-3.32016157 222.46038758 -5.89839353 222.39899304 -8.47607422 222.32104492 C-12.18514795 222.21170229 -15.89116992 222.16079649 -19.6015625 222.12109375 C-21.32688705 222.0514164 -21.32688705 222.0514164 -23.08706665 221.98033142 C-29.13100005 221.86029314 -29.13100005 221.86029314 -34.01068115 224.97781372 C-35.51949485 227.25860197 -36.74410222 229.57495237 -38 232 C-43.70593908 237.42760059 -49.16528173 238.53217698 -56.859375 238.37109375 C-62.75568602 237.67439033 -67.81321272 235.58988172 -71.6953125 230.9921875 C-76.07372988 224.21189545 -76.83558924 217.98667853 -76 210 C-74.02937975 203.31462477 -70.97815264 199.18066322 -64.8671875 195.83984375 C-58.9112015 193.16089607 -51.93964297 192.91545484 -45.64453125 194.6484375 C-39.07405065 197.62231073 -35.16492086 202.67015827 -32 209 C-14.18 209 3.64 209 22 209 C22 200.42 22 191.84 22 183 C16.94171875 183.01353516 16.94171875 183.01353516 11.78125 183.02734375 C8.49791819 183.01230719 5.21488372 182.98535949 1.93164062 182.95727539 C-0.34175922 182.94417455 -2.61526572 182.94336559 -4.88867188 182.95532227 C-8.16642212 182.97039073 -11.44123948 182.94056175 -14.71875 182.90234375 C-16.23172668 182.92372658 -16.23172668 182.92372658 -17.77526855 182.94554138 C-24.27302671 182.81366341 -27.62757133 181.52265846 -32.22891235 176.90446472 C-32.81337128 176.27599136 -33.3978302 175.64751801 -34 175 C-35.05896534 173.97712564 -36.12119053 172.9576111 -37.18725586 171.94213867 C-38.19908794 170.93672805 -39.20824711 169.92862096 -40.21484375 168.91796875 C-40.75605362 168.37771561 -41.29726349 167.83746246 -41.85487366 167.28083801 C-42.98105459 166.15532971 -44.10600561 165.02858943 -45.22973633 163.90063477 C-46.95474713 162.17019863 -48.68512428 160.4452551 -50.41601562 158.72070312 C-51.51594633 157.62011271 -52.61556738 156.51921272 -53.71484375 155.41796875 C-54.23143051 154.90340622 -54.74801727 154.38884369 -55.28025818 153.85868835 C-60.08266143 149.02439034 -60.18478278 145.91076601 -60.31640625 139.2734375 C-60.33718735 138.41062164 -60.35796844 137.54780579 -60.37937927 136.65884399 C-60.44486034 133.89764507 -60.50375298 131.13634962 -60.5625 128.375 C-60.6056866 126.50519828 -60.64930093 124.63540638 -60.69335938 122.765625 C-60.80054024 118.17718272 -60.90181175 113.58864317 -61 109 C-61.54414551 108.74532959 -62.08829102 108.49065918 -62.64892578 108.22827148 C-63.3654834 107.88352783 -64.08204102 107.53878418 -64.8203125 107.18359375 C-65.52945801 106.84642334 -66.23860352 106.50925293 -66.96923828 106.16186523 C-71.71817687 103.44484206 -74.31263105 99.12131279 -76 94 C-76.83811242 86.3887698 -76.83928281 79.23004444 -72 73 C-66.83090979 67.40536726 -61.82753673 65.00228576 -54.1875 64.625 C-47.98967523 64.78344063 -42.85912237 66.47148279 -38.17578125 70.61328125 C-32.95485233 76.3145862 -31.56638703 81.84124235 -31.75 89.47265625 C-32.27508888 94.78097666 -33.88021572 98.63137477 -37.25 102.75 C-40.35684298 105.29196244 -43.4986376 107.04383979 -47 109 C-47.17401145 113.57133821 -47.3005046 118.14072048 -47.38452148 122.71459961 C-47.41956542 124.26767583 -47.46721857 125.82052371 -47.52807617 127.37280273 C-48.14002995 136.26079748 -48.14002995 136.26079748 -45.52270508 144.4909668 C-43.77395555 146.2267985 -42.00481512 147.57809211 -40 149 C-38.90631518 150.20150341 -37.84524418 151.43322873 -36.8125 152.6875 C-36.21767822 153.3467749 -35.62285645 154.0060498 -35.01000977 154.68530273 C-33 157 -33 157 -30.78491211 160.01977539 C-26.64739237 165.26726805 -22.841044 169.08436134 -15.9934082 169.97338867 C-10.23156428 170.32560034 -4.50806295 170.05071671 1.25 169.75 C3.26676713 169.68970122 5.28370869 169.63496697 7.30078125 169.5859375 C12.20488632 169.45474016 17.10048789 169.24835063 22 169 C22.19045898 167.89430664 22.38091797 166.78861328 22.57714844 165.64941406 C22.83751385 164.18808386 23.09827698 162.72682448 23.359375 161.265625 C23.4836084 160.53811035 23.6078418 159.8105957 23.73583984 159.06103516 C24.8654722 152.81608645 26.34786565 148.642668 31.73828125 144.7421875 C36.29200082 141.95339993 40.29968725 140.93177155 45.546875 140.68359375 C46.39121094 140.64169922 47.23554688 140.59980469 48.10546875 140.55664062 C48.97816406 140.51732422 49.85085937 140.47800781 50.75 140.4375 C52.08224609 140.37272461 52.08224609 140.37272461 53.44140625 140.30664062 C55.62745963 140.20086385 57.81362089 140.09877454 60 140 C59.99363525 138.73929687 59.98727051 137.47859375 59.98071289 136.1796875 C59.96621725 131.47526995 59.99773192 126.77206472 60.04272461 122.06787109 C60.05581561 120.0369887 60.05664343 118.00598699 60.04467773 115.97509766 C60.02958751 113.04471964 60.05946856 110.11761095 60.09765625 107.1875 C60.08340103 106.28821777 60.06914581 105.38893555 60.05445862 104.46240234 C60.19000349 98.48008005 61.55663218 95.34219924 65.75538635 91.09176636 C66.86647011 90.05634201 66.86647011 90.05634201 68 89 C68.84582138 88.19329865 69.69164276 87.38659729 70.56309509 86.55545044 C72.50399117 84.72782447 74.45167272 82.91307727 76.41636658 81.11158752 C80.36911101 77.48445861 84.25077868 73.7835133 88.13249111 70.0806818 C91.06579272 67.28867916 94.01749677 64.52398333 97.0222168 61.80883789 C99.95975366 59.15208479 102.82813849 56.43493597 105.66346931 53.66952324 C106.73844673 52.6424146 107.83499174 51.63729482 108.95416069 50.65852547 C113.18581998 46.93948497 114.84206625 44.14788819 118 39 C118 30.75 118 22.5 118 14 C95.56 14 73.12 14 50 14 C49.34 20.6 48.68 27.2 48 34 C44.35885789 43.3488784 39.88244454 48.70355189 30.73828125 52.984375 C22.26765121 56.12612081 14.2941338 55.29953841 6 52 C-0.55638077 48.89169664 -4.03901556 43.47240829 -7 37 C-8.7738778 31.51871758 -9.11972898 25.89494427 -9.54296875 20.17578125 C-9.62957764 19.01602783 -9.71618652 17.85627441 -9.80541992 16.66137695 C-9.86963135 15.78312256 -9.93384277 14.90486816 -10 14 C-41.97426225 10.6080628 -63.30725578 13.95609048 -86.6953125 36.8125 Z M132 14 C131.96261719 16.03542969 131.92523438 18.07085937 131.88671875 20.16796875 C131.83802506 22.15049756 131.78922806 24.13302528 131.73754883 26.11547852 C131.70440194 27.48775958 131.67633829 28.86017362 131.65356445 30.23266602 C131.61983234 32.21137766 131.5659851 34.18971376 131.51171875 36.16796875 C131.48553467 37.35672607 131.45935059 38.5454834 131.43237305 39.77026367 C130.62137457 45.82825284 127.16995348 49.01240586 122.70239258 52.92163086 C121.60969776 53.88840247 120.51792856 54.856221 119.42695618 55.82493591 C118.85119654 56.33406462 118.2754369 56.84319332 117.68223 57.36775017 C113.94433363 60.70711051 110.29325379 64.14167828 106.63142872 67.56397152 C103.43392741 70.54280086 100.2124471 73.47833669 96.90649414 76.33666992 C79.40855054 91.25253972 79.40855054 91.25253972 72.32568359 112.29345703 C71.91121879 121.61470561 72.8059042 130.76423651 74 140 C81.92 140 89.84 140 98 140 C97.99097656 137.999375 97.98195313 135.99875 97.97265625 133.9375 C97.99353663 131.97474424 98.01467305 130.01198278 98.04272461 128.04931641 C98.06214419 126.03687257 98.04605101 124.02418654 98.02929688 122.01171875 C98.05185547 120.72910156 98.07441406 119.44648438 98.09765625 118.125 C98.10289307 116.95195312 98.10812988 115.77890625 98.11352539 114.5703125 C100.29519846 105.78353558 109.26380046 99.98774633 115.81386948 94.29751778 C143.47344414 72.15213236 143.47344414 72.15213236 158.2265625 41.87109375 C158.84145561 32.33940547 157.26155936 23.2257263 155 14 C147.41 14 139.82 14 132 14 Z M169 14 C169.00452431 14.83778992 169.00452431 14.83778992 169.00914001 15.69250488 C169.0338029 21.53356603 169.00944167 27.37299779 168.95727539 33.21386719 C168.94417823 35.39026017 168.94336223 37.56676454 168.95532227 39.74316406 C168.97039884 42.8819623 168.94055039 46.01770173 168.90234375 49.15625 C168.91659897 50.12115356 168.93085419 51.08605713 168.94554138 52.0802002 C168.81471651 58.25732431 167.60106966 61.55747362 163.23118591 65.9402771 C162.49489456 66.61998566 161.75860321 67.29969421 161 68 C160.16698868 68.79757721 159.33397736 69.59515442 158.47572327 70.41690063 C156.57306527 72.22053144 154.66361285 74.01078462 152.73609924 75.7872467 C148.86635252 79.3560172 145.06278541 82.99334229 141.25866032 86.63179111 C138.38351698 89.37595172 135.49113334 92.09525587 132.55053711 94.76928711 C118.01622017 107.06164276 118.01622017 107.06164276 110.49951172 123.71826172 C110.26624195 129.25897248 110.79067187 134.59182662 112 140 C112.59095459 140.02051926 113.18190918 140.04103851 113.79077148 140.06217957 C115.42026282 140.11875913 117.04973821 140.17579946 118.67919922 140.23324585 C120.38097383 140.29136058 122.08301392 140.34183479 123.78515625 140.38793945 C130.67271994 140.69141165 136.4508914 141.79077255 141.8125 146.4375 C142.534375 147.283125 143.25625 148.12875 144 149 C144.5053125 149.54269531 145.010625 150.08539063 145.53125 150.64453125 C147.62687614 154.00533593 148.06173154 157.37912625 148.6875 161.25 C148.81705078 161.99507812 148.94660156 162.74015625 149.08007812 163.5078125 C149.39664262 165.33685178 149.69967399 167.16822435 150 169 C176.45893369 172.6610686 176.45893369 172.6610686 200.80078125 164.1484375 C210.25825596 156.75564779 218.70074939 147.39265862 220.41888428 135.17359924 C221.21738314 126.37497023 220.43246209 117.69516735 219 109 C218.38511719 108.68691895 217.77023437 108.37383789 217.13671875 108.05126953 C216.32847656 107.62442871 215.52023437 107.19758789 214.6875 106.7578125 C213.88699219 106.34160645 213.08648437 105.92540039 212.26171875 105.49658203 C207.79439257 102.5405469 205.65421866 97.96265598 204 93 C203.26071777 85.60717771 203.83046616 79.2848692 208 73 C212.29917277 68.14911741 216.7704958 65.39228117 223.31640625 64.78515625 C230.04701785 64.52826268 235.85889527 65.13769155 240.98046875 69.8046875 C247.09115214 76.48234151 248.4878084 81.75981981 248.3046875 90.7734375 C247.77840952 96.3465864 246.19226607 99.98858485 242.05859375 103.78125 C239.08503996 106.10314099 236.59598815 107.80133728 233 109 C233.00636475 110.13953125 233.01272949 111.2790625 233.01928711 112.453125 C233.03379617 116.71032634 233.00224056 120.96619036 232.95727539 125.22314453 C232.94419413 127.06001213 232.94334764 128.89701157 232.95532227 130.73388672 C233.0535411 147.97363008 233.0535411 147.97363008 229.2421875 152.44140625 C227.85109641 153.65446182 226.43310005 154.83687382 225 156 C223.48817569 157.48773427 222.01704354 159.01057489 220.54353333 160.53622437 C218.35631127 162.79483248 216.12794501 165.01076687 213.90063477 167.22973633 C212.17019863 168.95474713 210.4452551 170.68512428 208.72070312 172.41601562 C207.62011271 173.51594633 206.51921272 174.61556738 205.41796875 175.71484375 C204.90340622 176.23143051 204.38884369 176.74801727 203.85868835 177.28025818 C200.20649989 180.90835097 198.47152004 182.11177843 193.36669922 182.20532227 C192.40585419 182.22526749 191.44500916 182.24521271 190.45504761 182.26576233 C188.89561935 182.29083107 188.89561935 182.29083107 187.3046875 182.31640625 C186.24210724 182.33718735 185.17952698 182.35796844 184.08474731 182.37937927 C180.68156562 182.44490261 177.27830511 182.50377273 173.875 182.5625 C171.57160634 182.60568257 169.26822074 182.64929677 166.96484375 182.69335938 C161.30997554 182.8014012 155.65504978 182.90045418 150 183 C150 191.58 150 200.16 150 209 C157.60129173 209.18371702 165.19488714 209.34292917 172.79663086 209.43945312 C175.38185723 209.47968254 177.96690162 209.53427474 180.55151367 209.60351562 C184.26787154 209.70058201 187.98182462 209.74593407 191.69921875 209.78125 C193.43228523 209.84318542 193.43228523 209.84318542 195.20036316 209.90637207 C201.01281729 210.09525491 201.01281729 210.09525491 205.76602173 207.2668457 C207.1128261 205.18012637 207.1128261 205.18012637 208.04573059 203.0032959 C209.93301343 199.04132673 213.41918126 196.74936634 217.33203125 194.89453125 C223.99319316 192.66114021 231.05158718 193.16075433 237.4375 196 C243.22955036 199.25919232 245.94072745 203.82218235 248 210 C248.88155185 218.27399381 248.16518468 225.25313197 243 232 C236.84553906 237.19656818 230.99369515 238.36896798 223.07421875 238.2734375 C216.78357229 237.71391367 212.78083618 235.14534573 208.625 230.5 C206.61189207 228.02578913 205.46825371 225.93650743 204 223 C186.18 223 168.36 223 150 223 C150 231.58 150 240.16 150 249 C155.05828125 248.98646484 155.05828125 248.98646484 160.21875 248.97265625 C163.50208181 248.98769281 166.78511628 249.01464051 170.06835938 249.04272461 C172.34175922 249.05582545 174.61526572 249.05663441 176.88867188 249.04467773 C180.16642212 249.02960927 183.44123948 249.05943825 186.71875 249.09765625 C187.72740112 249.08340103 188.73605225 249.06914581 189.77526855 249.05445862 C196.27302671 249.18633659 199.62757133 250.47734154 204.22891235 255.09553528 C204.81337128 255.72400864 205.3978302 256.35248199 206 257 C207.05896534 258.02287436 208.12119053 259.0423889 209.18725586 260.05786133 C210.19908794 261.06327195 211.20824711 262.07137904 212.21484375 263.08203125 C212.75605362 263.62228439 213.29726349 264.16253754 213.85487366 264.71916199 C214.98105459 265.84467029 216.10600561 266.97141057 217.22973633 268.09936523 C218.95474713 269.82980137 220.68512428 271.5547449 222.41601562 273.27929688 C223.51594633 274.37988729 224.61556738 275.48078728 225.71484375 276.58203125 C226.23143051 277.09659378 226.74801727 277.61115631 227.28025818 278.14131165 C232.08266143 282.97560966 232.18478278 286.08923399 232.31640625 292.7265625 C232.33718735 293.58937836 232.35796844 294.45219421 232.37937927 295.34115601 C232.44486034 298.10235493 232.50375298 300.86365038 232.5625 303.625 C232.6056866 305.49480172 232.64930093 307.36459362 232.69335938 309.234375 C232.80054024 313.82281728 232.90181175 318.41135683 233 323 C233.54414551 323.25467041 234.08829102 323.50934082 234.64892578 323.77172852 C235.3654834 324.11647217 236.08204102 324.46121582 236.8203125 324.81640625 C237.88403076 325.32216187 237.88403076 325.32216187 238.96923828 325.83813477 C243.71817687 328.55515794 246.31263105 332.87868721 248 338 C248.83811242 345.6112302 248.83928281 352.76995556 244 359 C238.83090979 364.59463274 233.82753673 366.99771424 226.1875 367.375 C219.98967523 367.21655937 214.85912237 365.52851721 210.17578125 361.38671875 C204.74346946 355.45458166 203.522102 349.67386193 203.68359375 341.75 C204.44828148 335.10382513 207.9189067 330.23424442 213 326 C214.98608053 324.97263242 216.98469662 323.96878909 219 323 C221.3135589 308.95649976 222.86969719 294.09633957 214.46484375 281.796875 C207.38261814 272.43102767 198.52553951 263.88010004 186.59912109 261.86621094 C174.40988188 260.47164945 162.12999944 261.48342602 150 263 C149.80954102 264.10569336 149.61908203 265.21138672 149.42285156 266.35058594 C149.16248615 267.81191614 148.90172302 269.27317552 148.640625 270.734375 C148.5163916 271.46188965 148.3921582 272.1894043 148.26416016 272.93896484 C147.1345278 279.18391355 145.65213435 283.357332 140.26171875 287.2578125 C135.70799918 290.04660007 131.70031275 291.06822845 126.453125 291.31640625 C125.60878906 291.35830078 124.76445312 291.40019531 123.89453125 291.44335938 C123.02183594 291.48267578 122.14914062 291.52199219 121.25 291.5625 C120.36183594 291.60568359 119.47367187 291.64886719 118.55859375 291.69335938 C116.37254037 291.79913615 114.18637911 291.90122546 112 292 C112.00636475 293.26070313 112.01272949 294.52140625 112.01928711 295.8203125 C112.03378275 300.52473005 112.00226808 305.22793528 111.95727539 309.93212891 C111.94418439 311.9630113 111.94335657 313.99401301 111.95532227 316.02490234 C111.97041249 318.95528036 111.94053144 321.88238905 111.90234375 324.8125 C111.92372658 326.16142334 111.92372658 326.16142334 111.94554138 327.53759766 C111.80999651 333.51991995 110.44336782 336.65780076 106.24461365 340.90823364 C105.50389114 341.59851654 104.76316864 342.28879944 104 343 C103.15417862 343.80670135 102.30835724 344.61340271 101.43690491 345.44454956 C99.49600883 347.27217553 97.54832728 349.08692273 95.58363342 350.88841248 C91.63088899 354.51554139 87.74922132 358.2164867 83.86750889 361.9193182 C80.93420728 364.71132084 77.98250323 367.47601667 74.9777832 370.19116211 C72.04024634 372.84791521 69.17186151 375.56506403 66.33653069 378.33047676 C65.26155327 379.3575854 64.16500826 380.36270518 63.04583931 381.34147453 C58.81418002 385.06051503 57.15793375 387.85211181 54 393 C54 401.25 54 409.5 54 418 C76.44 418 98.88 418 122 418 C122.66 411.4 123.32 404.8 124 398 C127.64114211 388.6511216 132.11755546 383.29644811 141.26171875 379.015625 C149.73234879 375.87387919 157.7058662 376.70046159 166 380 C172.55638077 383.10830336 176.03901556 388.52759171 179 395 C180.7738778 400.48128242 181.11972898 406.10505573 181.54296875 411.82421875 C181.62957764 412.98397217 181.71618652 414.14372559 181.80541992 415.33862305 C181.90173706 416.65600464 181.90173706 416.65600464 182 418 C205.85814876 420.53095261 227.07062235 421.27460148 246.77691078 406.03573608 C250.95879612 402.63082698 254.8405483 398.95463937 258.6953125 395.1875 C259.37591815 394.53774704 260.05652379 393.88799408 260.75775385 393.21855164 C292.87489989 362.23180264 295.78352548 323.46526058 296.57846832 281.26901245 C296.83217749 265.0299664 296.54997254 248.80604595 296.15607539 232.57187259 C295.87423144 220.72331997 295.92584988 208.91426498 296.21337891 197.06640625 C300.57678419 115.56136669 300.57678419 115.56136669 266.45547485 45.19128418 C263.70106513 42.40968195 260.87639407 39.71770554 258.00390625 37.05859375 C256.98224814 36.10516397 256.98224814 36.10516397 255.93995047 35.13247299 C237.3460866 18.02832556 218.69363578 9.06617515 193.0625 10.0625 C184.90392159 10.75829451 176.94480915 12.02115171 169 14 Z M-61 81 C-63.50031654 84.75047482 -63.53603554 86.55856266 -63 91 C-61.08333333 94.08333333 -61.08333333 94.08333333 -58 96 C-53.87151069 96.66350721 -51.80066382 96.43514338 -48.125 94.4375 C-45.33394692 91.23599794 -45 89.21894271 -45 85 C-46.25761824 82.02143049 -47.26530675 80.49769543 -49.9375 78.6875 C-54.58483461 77.13838846 -57.22432139 78.31728099 -61 81 Z M219 81 C216.91393074 83.65499724 217.00120545 85.06750504 217.0625 88.5 C217.74260514 92.06540182 217.74260514 92.06540182 220.125 94.4375 C223.80066382 96.43514338 225.87151069 96.66350721 230 96 C233.08333333 94.08333333 233.08333333 94.08333333 235 91 C235.66350721 86.87151069 235.43514338 84.80066382 233.4375 81.125 C228.66735468 76.96641178 223.81882711 77.00725754 219 81 Z M37 159 C36.0210838 161.84615843 35.87279257 164.47671392 35.86628723 167.47154236 C35.86202225 168.36171555 35.85775726 169.25188873 35.85336304 170.16903687 C35.85381622 171.13797882 35.85426941 172.10692078 35.85473633 173.10522461 C35.85137772 174.13165573 35.8480191 175.15808685 35.84455872 176.21562195 C35.83505384 179.61120816 35.83310591 183.00674506 35.83203125 186.40234375 C35.82881864 188.76119507 35.82545456 191.12004619 35.82194519 193.47889709 C35.81595528 198.42433128 35.81410518 203.36974799 35.81469727 208.31518555 C35.81479895 214.65501661 35.80114003 220.99473583 35.78392506 227.33454037 C35.77281267 232.20639054 35.77077782 237.0782136 35.77130699 241.95007515 C35.77012599 244.28766834 35.76569748 246.62526221 35.75797462 248.96284294 C35.74818911 252.2304356 35.75104708 255.49778436 35.75708008 258.76538086 C35.75146057 259.73229858 35.74584106 260.69921631 35.74005127 261.69543457 C35.76532941 267.0770686 35.88116092 271.42054373 39.4375 275.75 C43.12734786 278.70187829 47.5012212 278.15461514 51.97216797 278.16113281 C53.18972778 278.16858017 53.18972778 278.16858017 54.43188477 278.17617798 C57.11866095 278.19078984 59.8053781 278.19759973 62.4921875 278.203125 C64.35922243 278.20887695 66.22625734 278.21463468 68.09329224 278.22039795 C72.00897497 278.23090495 75.92463718 278.23674969 79.84033203 278.24023438 C84.85636001 278.24572059 89.87211674 278.26975261 94.88805962 278.29820633 C98.74509472 278.31683427 102.60206449 278.32203838 106.45914078 278.32357025 C108.30830494 278.3265966 110.15746796 278.33462455 112.00658798 278.34775543 C114.59428276 278.36482037 117.18131466 278.36293477 119.76904297 278.35644531 C120.53181549 278.3656601 121.29458801 278.37487488 122.08047485 278.3843689 C127.80383948 278.33943292 130.99357113 277.00642887 135 273 C135.9532427 270.14707406 136.1272095 267.52233226 136.13371277 264.52845764 C136.13797775 263.63828445 136.14224274 262.74811127 136.14663696 261.83096313 C136.14618378 260.86202118 136.14573059 259.89307922 136.14526367 258.89477539 C136.14862228 257.86834427 136.1519809 256.84191315 136.15544128 255.78437805 C136.16494616 252.38879184 136.16689409 248.99325494 136.16796875 245.59765625 C136.17118136 243.23880493 136.17454544 240.87995381 136.17805481 238.52110291 C136.18404472 233.57566872 136.18589482 228.63025201 136.18530273 223.68481445 C136.18520105 217.34498339 136.19885997 211.00526417 136.21607494 204.66545963 C136.22718733 199.79360946 136.22922218 194.9217864 136.22869301 190.04992485 C136.22987401 187.71233166 136.23430252 185.37473779 136.24202538 183.03715706 C136.25181089 179.7695644 136.24895292 176.50221564 136.24291992 173.23461914 C136.24853943 172.26770142 136.25415894 171.30078369 136.25994873 170.30456543 C136.23467059 164.9229314 136.11883908 160.57945627 132.5625 156.25 C128.86138498 153.28910799 124.43947479 153.83180849 119.9519043 153.80712891 C119.13205048 153.79895142 118.31219666 153.79077393 117.46749878 153.78234863 C114.7530795 153.7575267 112.03871238 153.7409875 109.32421875 153.7265625 C108.39669107 153.72123882 107.4691634 153.71591515 106.51352882 153.71043015 C101.60481213 153.68371344 96.69612075 153.66433315 91.78735352 153.64990234 C87.72592679 153.63655738 83.66500179 153.60869252 79.60375977 153.56787109 C74.69840658 153.51856595 69.79350888 153.49378406 64.88791847 153.48667526 C63.02000774 153.47996178 61.15210721 153.46473714 59.284338 153.44078445 C56.66778008 153.40914154 54.05297856 153.40909433 51.4362793 153.41650391 C50.66775131 153.40009857 49.89922333 153.38369324 49.10740662 153.36679077 C43.27969855 153.43420369 40.84662929 154.88284327 37 159 Z M-62 211 C-63.42662219 213.85324437 -63.31033868 215.83454549 -63 219 C-61.20006226 221.69990662 -59.916227 223.5418865 -57 225 C-53.32613468 225.40820726 -51.44713863 225.24841035 -48.1875 223.4375 C-45.32199187 220.24450523 -45 218.25880812 -45 214 C-46.58838934 210.42612398 -47.71634358 209.18910428 -51 207 C-56.10114766 206.33463291 -58.34690944 207.45128345 -62 211 Z M218 211 C216.57337781 213.85324437 216.68966132 215.83454549 217 219 C218.79993774 221.69990662 220.083773 223.5418865 223 225 C226.87214182 225.43023798 228.52496371 225.31669086 231.8125 223.125 C234.39266816 220.61855093 234.91717964 219.74538327 235.3125 216.1875 C234.92835642 212.2692355 233.70743683 210.78706733 231 208 C225.7018158 205.3509079 221.9915062 207.12253683 218 211 Z M74 292 C74.00902344 294.000625 74.01804688 296.00125 74.02734375 298.0625 C74.00646337 300.02525576 73.98532695 301.98801722 73.95727539 303.95068359 C73.93785581 305.96312743 73.95394899 307.97581346 73.97070312 309.98828125 C73.94814453 311.27089844 73.92558594 312.55351562 73.90234375 313.875 C73.89710693 315.04804688 73.89187012 316.22109375 73.88647461 317.4296875 C71.70480154 326.21646442 62.73619954 332.01225367 56.18613052 337.70248222 C28.52655586 359.84786764 28.52655586 359.84786764 13.7734375 390.12890625 C13.15854439 399.66059453 14.73844064 408.7742737 17 418 C24.59 418 32.18 418 40 418 C40.03738281 415.96457031 40.07476562 413.92914063 40.11328125 411.83203125 C40.16197494 409.84950244 40.21077194 407.86697472 40.26245117 405.88452148 C40.29559806 404.51224042 40.32366171 403.13982638 40.34643555 401.76733398 C40.38016766 399.78862234 40.4340149 397.81028624 40.48828125 395.83203125 C40.51446533 394.64327393 40.54064941 393.4545166 40.56762695 392.22973633 C41.37862543 386.17174716 44.83004652 382.98759414 49.29760742 379.07836914 C50.39030224 378.11159753 51.48207144 377.143779 52.57304382 376.17506409 C53.14880346 375.66593538 53.7245631 375.15680668 54.31777 374.63224983 C58.05566637 371.29288949 61.70674621 367.85832172 65.36857128 364.43602848 C68.56607259 361.45719914 71.7875529 358.52166331 75.09350586 355.66333008 C92.59144946 340.74746028 92.59144946 340.74746028 99.67431641 319.70654297 C100.08878121 310.38529439 99.1940958 301.23576349 98 292 C90.08 292 82.16 292 74 292 Z M-60.9375 338.0625 C-63.53327109 341.7595073 -63.71253588 343.56644342 -63 348 C-61.59121904 350.9901643 -61.59121904 350.9901643 -59 353 C-55.08091414 354.14009771 -52.96841496 354.40888632 -49.1875 352.8125 C-46.83080382 350.85980888 -45.81673491 349.94024566 -45 347 C-45.07441679 342.83265954 -45.36048754 340.73355841 -48.125 337.5625 C-52.99928484 334.91343215 -56.36629996 334.85293401 -60.9375 338.0625 Z M218 340 C216.85990229 343.91908586 216.59111368 346.03158504 218.1875 349.8125 C220.14019112 352.16919618 221.05975434 353.18326509 224 354 C228.16734046 353.92558321 230.26644159 353.63951246 233.4375 350.875 C235.43514338 347.19933618 235.66350721 345.12848931 235 341 C233.08333333 337.91666667 233.08333333 337.91666667 230 336 C224.64318971 335.13908406 221.59644446 335.87466665 218 340 Z " fill="#F37324" transform="translate(170,40)"/>
</svg>
