<?xml version="1.0" encoding="UTF-8"?>
<svg version="1.1" xmlns="http://www.w3.org/2000/svg" width="512" height="512">
<path d="M0 0 C1.21523849 -0.01283524 2.43047699 -0.02567047 3.68254089 -0.03889465 C4.99813492 -0.04628159 6.31372894 -0.05366852 7.66918945 -0.0612793 C8.3404719 -0.06535482 9.01175434 -0.06943035 9.70337868 -0.07362938 C13.25928055 -0.09447597 16.81514403 -0.10878146 20.37109375 -0.11816406 C24.02832799 -0.12920148 27.68494926 -0.16357341 31.34196758 -0.20333576 C34.16715048 -0.22959689 36.99218971 -0.23786442 39.8174839 -0.24144554 C41.815967 -0.24863284 43.81435152 -0.27503409 45.81266785 -0.30183411 C53.9457403 -0.28250521 60.03617737 0.23574124 66.1184082 6.1418457 C69.92216994 11.69357887 72.18949955 15.47433059 72.1340332 22.34106445 C72.12839355 23.24550293 72.12275391 24.14994141 72.11694336 25.08178711 C72.10969238 25.77320801 72.10244141 26.46462891 72.0949707 27.17700195 C73.53197075 27.16367828 73.53197075 27.16367828 74.9980011 27.15008545 C84.01799631 27.06906457 93.03791788 27.00906794 102.05819416 26.96975327 C106.69585119 26.94886173 111.33321492 26.92051578 115.97070312 26.87524414 C120.44460629 26.83184183 124.91822703 26.80787665 129.39232445 26.79749298 C131.10082637 26.79009146 132.80931251 26.77563821 134.51769447 26.75408173 C136.90748344 26.72512142 139.29609948 26.72104271 141.68603516 26.72290039 C142.3952562 26.70851929 143.10447723 26.69413818 143.83518982 26.67932129 C147.03904371 26.70634049 148.66776723 26.76953873 151.03434753 29.02676392 C152.49722366 31.99250329 152.49058012 33.89640063 152.0949707 37.17700195 C150.80981445 40.24487305 150.80981445 40.24487305 149.0324707 43.45043945 C148.40083008 44.60415039 147.76918945 45.75786133 147.1184082 46.9465332 C146.44420113 48.14850878 145.76971849 49.35032983 145.0949707 50.55200195 C144.41933802 51.77662668 143.74484657 53.00188176 143.0715332 54.2277832 C141.42379738 57.21724677 139.76469966 60.19978387 138.0949707 63.17700195 C142.79923354 60.1018715 147.41438178 57.05101116 151.7199707 53.42700195 C157.43464896 48.93264562 162.83790435 47.55139278 170.0949707 48.17700195 C183.28464694 50.44513319 193.35029041 64.19144795 202.44702148 73.23388672 C203.80197413 74.57722922 205.16140481 75.91606916 206.52514648 77.25048828 C208.52451823 79.20708121 210.51020196 81.176697 212.4934082 83.1496582 C213.39970474 84.02969261 213.39970474 84.02969261 214.3243103 84.92750549 C220.11451635 90.74753256 223.69649692 97.09646124 224.3449707 105.36450195 C223.77342357 114.08059573 220.56777089 119.13918448 214.87109375 125.57617188 C205.68592015 136.17080909 204.36157871 147.52420457 204.92016602 161.00219727 C205.7251962 171.01785208 212.02887355 181.69588901 219.2824707 188.48950195 C228.32513003 195.50010301 238.2746269 198.85881042 249.5324707 199.48950195 C256.3355191 200.06118669 262.21965489 202.17895925 267.0168457 207.1809082 C270.84968676 212.13622414 272.21393956 215.77049391 272.27197266 222.08203125 C272.28480789 223.29726974 272.29764313 224.51250824 272.31086731 225.76457214 C272.32194771 227.73796318 272.32194771 227.73796318 272.33325195 229.7512207 C272.33732748 230.42250315 272.34140301 231.09378559 272.34560204 231.78540993 C272.36644863 235.3413118 272.38075412 238.89717528 272.39013672 242.453125 C272.40117414 246.11035924 272.43554607 249.76698051 272.47530842 253.42399883 C272.50156955 256.24918173 272.50983707 259.07422096 272.5134182 261.89951515 C272.5206055 263.89799825 272.54700674 265.89638277 272.57380676 267.8946991 C272.55429344 276.10537393 271.86900989 281.80350688 266.34887695 288.20043945 C265.79071289 288.64645508 265.23254883 289.0924707 264.6574707 289.55200195 C264.10188477 290.01348633 263.54629883 290.4749707 262.97387695 290.95043945 C258.24370235 294.0383289 253.61260883 294.53016307 248.0949707 294.98950195 C235.69274344 296.27704108 224.93992509 300.03617761 216.0949707 309.17700195 C213.34480163 312.66231238 211.14381682 316.24234788 209.0949707 320.17700195 C208.66055664 321.0071582 208.22614258 321.83731445 207.77856445 322.69262695 C203.47430917 332.47093513 203.33759998 345.13502472 206.7199707 355.23950195 C209.73895216 362.17786284 214.10147176 367.96384941 218.8449707 373.80200195 C223.33932704 379.51668021 224.72057987 384.9199356 224.0949707 392.17700195 C221.82183045 405.39580668 208.05341572 415.43219881 198.9831543 424.52905273 C196.95980407 426.56221791 194.9473789 428.60582303 192.93481445 430.6496582 C191.63208761 431.95890758 190.32872443 433.26752416 189.0246582 434.57543945 C188.43280731 435.17963715 187.84095642 435.78383484 187.23117065 436.40634155 C181.39647325 442.21037497 175.74324134 445.86186496 167.4074707 446.42700195 C158.54167476 446.1984179 153.1919935 442.70149362 146.69555664 436.953125 C136.37459213 428.00378835 125.374694 426.43168388 112.21899414 427.00219727 C101.99028669 427.84400813 91.90086478 433.29841368 84.77075195 440.53637695 C77.09701352 449.67110441 74.17480821 458.78826428 72.6730957 470.4543457 C71.37540475 480.22058885 69.50557751 485.72331569 61.58325195 491.9152832 C54.41785398 495.54860117 46.45640658 495.47386012 38.5949707 495.44262695 C36.98138672 495.44549713 36.98138672 495.44549713 35.33520508 495.44842529 C33.07283289 495.44977937 30.81045273 495.44613759 28.5480957 495.43774414 C25.10520812 495.4270338 21.66284226 495.43766624 18.2199707 495.45043945 C16.01163623 495.44911772 13.80330208 495.44655504 11.5949707 495.44262695 C10.06646484 495.44869965 10.06646484 495.44869965 8.50708008 495.45489502 C-1.50136664 495.38993475 -9.53184913 494.3662706 -16.9050293 487.17700195 C-20.96370651 481.9434445 -21.55739481 477.07258191 -22.4206543 470.58325195 C-24.11458388 458.67110198 -27.66012591 446.47805395 -36.9050293 438.17700195 C-39.58982805 436.71274662 -39.58982805 436.71274662 -41.9050293 436.17700195 C-42.92941385 437.17336383 -43.94925643 438.17439482 -44.9675293 439.17700195 C-45.82024414 440.01231445 -45.82024414 440.01231445 -46.69018555 440.86450195 C-48.58390994 442.8417239 -50.38450626 444.85641067 -52.1784668 446.9230957 C-55.83719236 451.13075165 -59.63124067 455.1939958 -63.4675293 459.23950195 C-64.88053957 460.73535973 -66.29329514 462.23145812 -67.70581055 463.7277832 C-68.40915527 464.47237793 -69.1125 465.21697266 -69.8371582 465.98413086 C-72.95344543 469.28879342 -76.05619188 472.60598046 -79.1550293 475.92700195 C-79.72213623 476.53463379 -80.28924316 477.14226562 -80.87353516 477.76831055 C-85.26867202 482.4830362 -89.64311746 487.21671303 -93.99975586 491.96704102 C-95.29529146 493.37610766 -96.59984974 494.77686352 -97.9050293 496.17700195 C-98.93563477 497.33329102 -98.93563477 497.33329102 -99.98706055 498.51293945 C-102.17988428 500.41547084 -103.1087136 500.69712668 -105.9675293 500.61450195 C-109.9050293 500.17700195 -109.9050293 500.17700195 -111.8425293 498.92700195 C-113.41783566 496.33237971 -114.13963554 494.24887268 -113.47924805 491.23168945 C-110.19305781 483.15374164 -105.84574022 475.69080945 -101.55786133 468.11645508 C-98.5570195 462.77965514 -95.6108416 457.41259738 -92.65783691 452.04922485 C-88.08826119 443.7503423 -83.51426204 435.45394317 -78.9050293 427.17700195 C-87.52545293 431.15403175 -95.01162578 434.8147303 -101.8972168 441.4777832 C-106.21305577 445.13029284 -111.41665592 446.27012166 -116.9675293 446.55200195 C-131.9663705 445.12354089 -142.12319378 431.19352109 -152.25708008 421.12011719 C-153.61203272 419.77677469 -154.97146341 418.43793475 -156.33520508 417.10351562 C-158.33457682 415.14692269 -160.32026056 413.17730691 -162.3034668 411.2043457 C-162.90766449 410.6176561 -163.51186218 410.03096649 -164.1343689 409.42649841 C-169.92457494 403.60647134 -173.50655552 397.25754266 -174.1550293 388.98950195 C-173.58348216 380.27340817 -170.37782948 375.21481943 -164.68115234 368.77783203 C-155.49597875 358.18319481 -154.1716373 346.82979934 -154.73022461 333.35180664 C-155.12111807 328.48856784 -156.66210188 324.46318965 -158.9050293 320.17700195 C-159.39100586 319.2437207 -159.87698242 318.31043945 -160.37768555 317.34887695 C-166.27671832 307.14062165 -174.20747607 301.06950909 -185.2644043 297.1262207 C-190.12644611 295.85854242 -194.94335365 295.37945131 -199.93383789 294.90283203 C-208.47025278 294.03123147 -213.23722878 291.60667241 -218.6784668 285.0559082 C-221.45438832 280.80362077 -222.15955003 277.08059191 -222.19555664 272.04492188 C-222.20831635 270.82983444 -222.22107605 269.61474701 -222.23422241 268.36283875 C-222.23644806 267.05756729 -222.23867371 265.75229584 -222.2409668 264.4074707 C-222.24740094 263.0437252 -222.25412976 261.67998107 -222.26113892 260.3162384 C-222.27309292 257.46079308 -222.27682177 254.60546856 -222.27563477 251.75 C-222.27543187 248.10847085 -222.302711 244.46772467 -222.33717918 240.82638073 C-222.35952654 238.00975558 -222.36346991 235.1933164 -222.36241531 232.37661171 C-222.3658933 230.38701715 -222.38750888 228.39748065 -222.40951538 226.40800476 C-222.36879294 218.30393914 -221.82440323 212.21325582 -215.94018555 206.15356445 C-215.28920898 205.70754883 -214.63823242 205.2615332 -213.9675293 204.80200195 C-212.99493164 204.10977539 -212.99493164 204.10977539 -212.00268555 203.40356445 C-207.20303849 200.59706692 -202.75404098 199.81565788 -197.2800293 199.30200195 C-184.52113949 197.85420525 -173.4609489 193.73029708 -164.79956055 183.7512207 C-155.94159834 171.60693563 -153.6905907 159.97528374 -154.9050293 145.17700195 C-156.89904652 135.51456423 -162.5529968 128.0621958 -168.6550293 120.55200195 C-173.14938563 114.8373237 -174.53063847 109.4340683 -173.9050293 102.17700195 C-171.63689806 88.98732572 -157.8905833 78.92168224 -148.84814453 69.82495117 C-147.50480203 68.46999853 -146.16596209 67.11056784 -144.83154297 65.74682617 C-142.87495004 63.74745443 -140.90533425 61.76177069 -138.93237305 59.77856445 C-138.34568344 59.17436676 -137.75899384 58.57016907 -137.15452576 57.94766235 C-131.3124447 52.13551533 -124.95265216 48.56528063 -116.6550293 47.92700195 C-108.92461964 48.4423626 -104.17534318 51.52690149 -98.2565918 56.3371582 C-87.2112562 64.9789407 -75.21555177 69.37621516 -61.1550293 67.67700195 C-50.13998631 65.57348407 -38.79578649 59.74927735 -32.04174805 50.6730957 C-26.90437489 43.02553607 -24.20095898 36.50644871 -23.24951172 27.35107422 C-22.376506 18.95215715 -21.28987067 11.34773974 -14.9050293 5.2746582 C-9.9628983 1.41361836 -6.3136284 0.05805233 0 0 Z M-5.10229492 17.44091797 C-6.83898404 20.07676236 -7.58896272 21.52374048 -7.8737793 24.6184082 C-7.96699463 25.4436499 -8.06020996 26.2688916 -8.15625 27.11914062 C-8.27939575 28.41621948 -8.27939575 28.41621948 -8.4050293 29.73950195 C-10.10254084 43.53505248 -14.72241535 55.386027 -24.9050293 65.17700195 C-24.9050293 65.83700195 -24.9050293 66.49700195 -24.9050293 67.17700195 C-25.48124023 67.44899414 -26.05745117 67.72098633 -26.65112305 68.0012207 C-28.90995182 69.17956986 -30.89004651 70.51778985 -32.9675293 71.98950195 C-44.05061368 79.44506365 -54.91218838 82.57372399 -68.1550293 82.55200195 C-69.68365601 82.54958496 -69.68365601 82.54958496 -71.24316406 82.54711914 C-78.74862734 82.42481588 -85.07664282 81.44422661 -91.9050293 78.17700195 C-92.62174805 77.87665039 -93.3384668 77.57629883 -94.0769043 77.2668457 C-100.29192737 74.48453886 -105.34949437 70.06741372 -110.59643555 65.80200195 C-112.96470533 64.02116201 -114.55770424 63.18919614 -117.54052734 63.08447266 C-122.72191065 64.76698411 -125.7752875 68.33392164 -129.54956055 72.1574707 C-130.35995285 72.96307938 -131.17034515 73.76868805 -132.0052948 74.59870911 C-133.71329789 76.30331359 -135.41501838 78.01423325 -137.11083984 79.73095703 C-139.70818133 82.35505768 -142.33108519 84.95144576 -144.95776367 87.54614258 C-146.61496816 89.20665116 -148.27062093 90.86871014 -149.92456055 92.5324707 C-150.70990677 93.30769577 -151.49525299 94.08292084 -152.30439758 94.88163757 C-156.51784751 99.16494642 -156.51784751 99.16494642 -158.97875977 104.55517578 C-158.83348604 109.72105157 -155.33444577 112.94272342 -152.0925293 116.67700195 C-140.38048217 131.12833082 -138.55858635 147.26931073 -139.9050293 165.17700195 C-141.88979787 176.54431287 -147.38333101 186.54917156 -154.9050293 195.17700195 C-154.9050293 195.83700195 -154.9050293 196.49700195 -154.9050293 197.17700195 C-155.48124023 197.43868164 -156.05745117 197.70036133 -156.65112305 197.9699707 C-159.04504179 199.25198265 -160.89332732 200.74096908 -162.9675293 202.48950195 C-173.16850505 210.48082009 -185.16301044 213.65576094 -197.9675293 214.61450195 C-202.25918324 215.22759537 -204.00172952 216.00151782 -206.9050293 219.17700195 C-207.8936399 222.12701207 -208.03604932 224.86119012 -208.05029297 227.95800781 C-208.05667282 228.90256332 -208.06305267 229.84711884 -208.06962585 230.82029724 C-208.07073868 231.83390823 -208.0718515 232.84751923 -208.07299805 233.8918457 C-208.07632645 234.9397377 -208.07965485 235.9876297 -208.08308411 237.067276 C-208.08814379 239.28215089 -208.09049273 241.4970334 -208.09033203 243.71191406 C-208.09251876 247.09819092 -208.11068549 250.48414209 -208.12963867 253.87036133 C-208.13257274 256.02335501 -208.13455745 258.17635023 -208.13549805 260.3293457 C-208.14268356 261.34093246 -208.14986908 262.35251923 -208.15727234 263.39476013 C-208.15419571 264.3424678 -208.15111908 265.29017548 -208.14794922 266.26660156 C-208.14937424 267.09614853 -208.15079926 267.9256955 -208.15226746 268.78038025 C-207.78238527 272.36586104 -206.77341359 275.21720879 -204.34643555 277.8996582 C-200.66908641 279.82364727 -196.92680821 280.10833064 -192.8425293 280.61450195 C-176.50208836 282.95149332 -162.54125253 289.02782488 -151.9050293 302.17700195 C-140.84904306 318.44622013 -137.14900807 335.64728686 -140.6003418 355.0949707 C-143.26289545 364.45865728 -147.57060635 372.86694946 -154.2175293 379.98950195 C-156.64288731 382.59606487 -157.85387767 384.03700802 -159.0925293 387.42700195 C-158.63225393 394.1777074 -152.66748469 398.75263485 -148.16674805 403.28637695 C-147.02916801 404.43749969 -147.02916801 404.43749969 -145.86860657 405.61187744 C-144.26670099 407.22825946 -142.6619957 408.84187103 -141.0546875 410.45288086 C-138.59934232 412.92015582 -136.16327541 415.40546901 -133.72729492 417.8918457 C-132.1665987 419.46200275 -130.60478655 421.03105156 -129.04174805 422.59887695 C-128.31654465 423.34361267 -127.59134125 424.08834839 -126.84416199 424.85565186 C-123.77643055 427.89638488 -121.72923557 429.91874223 -117.55859375 431.22558594 C-112.37006828 431.13058947 -109.15127778 427.61681014 -105.4050293 424.36450195 C-97.59955027 418.03856895 -86.85195122 412.17781353 -76.5144043 412.17675781 C-71.49091131 412.18598228 -71.49091131 412.18598228 -67.36669922 409.68652344 C-66.07747164 407.53009034 -65.0730975 405.36534998 -64.0925293 403.05200195 C-63.27034199 401.31282376 -62.4432888 399.57593977 -61.61206055 397.84106445 C-61.18103027 396.91970703 -60.75 395.99834961 -60.3059082 395.04907227 C-57.86475966 390.04424978 -55.05829898 385.2502092 -52.2800293 380.42700195 C-48.49062206 373.77171699 -44.71945827 367.11002131 -41.0925293 360.36450195 C-40.46733398 359.20305664 -39.84213867 358.04161133 -39.19799805 356.8449707 C-37.75965867 354.37116513 -37.75965867 354.37116513 -37.9050293 352.17700195 C-39.6522983 350.92509272 -41.45599208 349.75165362 -43.2800293 348.61450195 C-49.37949477 344.6412586 -54.65122498 340.22906019 -59.9050293 335.17700195 C-60.76225586 334.37133789 -61.61948242 333.56567383 -62.50268555 332.7355957 C-77.56515664 318.21837244 -86.49132391 299.8377063 -92.9050293 280.17700195 C-96.2050293 279.51700195 -99.5050293 278.85700195 -102.9050293 278.17700195 C-104.33786757 272.83642292 -103.3826902 270.04688717 -100.9050293 265.17700195 C-100.20893555 264.13801758 -99.5128418 263.0990332 -98.7956543 262.02856445 C-96.30616065 257.68012648 -96.57637372 253.87607982 -96.8425293 248.98950195 C-97.64534338 215.19946346 -84.90300859 185.60979279 -61.9050293 161.17700195 C-61.31592773 160.5118457 -60.72682617 159.84668945 -60.11987305 159.16137695 C-54.79995284 153.40884784 -48.48091817 149.21663127 -42.00268555 144.88793945 C-41.34075195 144.44264893 -40.67881836 143.9973584 -39.99682617 143.53857422 C-38.55269933 142.59857709 -37.08284288 141.69736425 -35.59448242 140.82910156 C-29.48075897 137.13804938 -26.53792772 133.27570933 -23.2800293 126.98950195 C-22.78623779 126.08312988 -22.29244629 125.17675781 -21.78369141 124.24291992 C-20.71104191 122.27288286 -19.64713471 120.29806591 -18.59106445 118.3190918 C-16.23428538 113.92700569 -13.80396314 109.57713395 -11.37597656 105.22412109 C-9.4549938 101.77952401 -7.54276022 98.33017726 -5.6315918 94.88012695 C-1.71417282 87.82109554 2.25384431 80.79144263 6.2355957 73.76855469 C9.10746212 68.70078919 11.9660084 63.62604468 14.8059082 58.5402832 C15.73874634 56.8698999 15.73874634 56.8698999 16.69042969 55.16577148 C17.87880108 53.03599573 19.06590722 50.90551326 20.25146484 48.77416992 C23.3879028 43.15388817 26.61154589 37.61346373 30.01318359 32.14892578 C31.2552949 30.25961771 31.2552949 30.25961771 31.0949707 28.17700195 C39.6749707 27.84700195 48.2549707 27.51700195 57.0949707 27.17700195 C57.69638037 20.61343625 57.69638037 20.61343625 55.3527832 17.28100586 C50.38792772 14.07453669 45.76406613 14.4614844 39.9699707 14.51293945 C38.79031738 14.50815582 37.61066406 14.50337219 36.39526367 14.4984436 C33.90387639 14.49504468 31.41244451 14.5042463 28.92114258 14.52514648 C25.10828171 14.55190852 21.29836503 14.52539452 17.4855957 14.4934082 C15.06371421 14.4967123 12.64183454 14.50311852 10.2199707 14.51293945 C9.08027832 14.5028183 7.94058594 14.49269714 6.76635742 14.48226929 C0.41384415 14.54324641 0.41384415 14.54324641 -5.10229492 17.44091797 Z M41.0949707 41.17700195 C33.6699707 54.54200195 33.6699707 54.54200195 26.0949707 68.17700195 C22.01065862 75.47816161 17.92507767 82.7785042 13.83325195 90.07543945 C12.07506248 93.2125236 10.31905726 96.35082069 8.5637207 99.48950195 C2.39740674 110.51373669 -3.79093564 121.52492273 -10.01293945 132.51782227 C-15.75414626 142.6669287 -21.4471954 152.84285953 -27.13891602 163.01977539 C-30.64097062 169.28029103 -34.14716683 175.53848808 -37.65258789 181.79711914 C-40.58315715 187.02975244 -43.51271974 192.26294417 -46.44018555 197.49731445 C-52.07437135 207.56904482 -57.72072379 217.63346033 -63.4050293 227.67700195 C-68.18635711 236.12944214 -72.96001349 244.58613796 -77.7175293 253.05200195 C-78.6437207 254.69458984 -78.6437207 254.69458984 -79.58862305 256.37036133 C-80.15323242 257.37647461 -80.7178418 258.38258789 -81.29956055 259.41918945 C-81.80334229 260.31492676 -82.30712402 261.21066406 -82.82617188 262.13354492 C-83.98284306 263.93926046 -83.98284306 263.93926046 -83.9050293 265.17700195 C-81.99822639 265.18913223 -81.99822639 265.18913223 -80.05290222 265.20150757 C-68.08952001 265.27889731 -56.12625253 265.36661835 -44.16302013 265.46452904 C-38.01218623 265.51453523 -31.86136987 265.5608649 -25.71044922 265.59887695 C-19.77761838 265.63567509 -13.84493277 265.68202013 -7.91222572 265.73506546 C-5.64557752 265.75363853 -3.37889816 265.76873564 -1.1122036 265.78034592 C2.05572091 265.79715848 5.22331067 265.82618154 8.39111328 265.8581543 C9.80559753 265.86139458 9.80559753 265.86139458 11.24865723 265.86470032 C12.11102493 265.8758638 12.97339264 265.88702728 13.8618927 265.89852905 C14.6113104 265.90405981 15.36072809 265.90959057 16.13285542 265.91528893 C18.0949707 266.17700195 18.0949707 266.17700195 21.0949707 268.17700195 C22.22137408 271.74479546 22.28288009 273.65329783 21.01293945 277.19262695 C20.15635742 278.79364258 20.15635742 278.79364258 19.2824707 280.42700195 C18.8037854 281.33470337 18.8037854 281.33470337 18.31542969 282.26074219 C17.26099835 284.24379632 16.18117567 286.21119147 15.0949707 288.17700195 C14.7453125 288.81589355 14.3956543 289.45478516 14.03540039 290.11303711 C12.07194068 293.69603844 10.08537063 297.26562199 8.0871582 300.8293457 C4.45770717 307.30481445 0.86911888 313.80276908 -2.7175293 320.30200195 C-3.06018829 320.92266541 -3.40284729 321.54332886 -3.75588989 322.18280029 C-9.01805371 331.71704622 -14.22396603 341.28053018 -19.39916992 350.86230469 C-23.25638649 357.99755639 -27.17435991 365.09640695 -31.1237793 372.1809082 C-34.67087969 378.54583574 -38.19559302 384.92312774 -41.7175293 391.30200195 C-42.0587381 391.91991608 -42.3999469 392.5378302 -42.75149536 393.17446899 C-48.13247637 402.92333281 -53.4627686 412.69843093 -58.74414062 422.50170898 C-59.23551514 423.41291504 -59.72688965 424.32412109 -60.2331543 425.26293945 C-60.68754883 426.10824219 -61.14194336 426.95354492 -61.61010742 427.82446289 C-62.80098078 429.98797264 -64.05315475 432.10076926 -65.3269043 434.21606445 C-65.84768555 435.19317383 -66.3684668 436.1702832 -66.9050293 437.17700195 C-66.5750293 437.83700195 -66.2450293 438.49700195 -65.9050293 439.17700195 C-64.38083924 437.68041293 -62.86088099 436.17951391 -61.3425293 434.67700195 C-60.49561523 433.84168945 -59.64870117 433.00637695 -58.77612305 432.14575195 C-55.96421408 429.29915865 -53.36188875 426.28766282 -50.74169922 423.26538086 C-47.69465708 419.8007526 -44.51696786 416.46206309 -41.3425293 413.11450195 C-39.92951903 411.61864418 -38.51676345 410.12254578 -37.10424805 408.6262207 C-36.40090332 407.88162598 -35.69755859 407.13703125 -34.97290039 406.36987305 C-31.85661343 403.06521077 -28.75382078 399.74806596 -25.6550293 396.42700195 C-25.07994629 395.81066895 -24.50486328 395.19433594 -23.91235352 394.55932617 C-19.763305 390.10775518 -15.63555835 385.63688474 -11.51342773 381.16040039 C-6.86352643 376.11763613 -2.16777045 371.11836711 2.52832031 366.11865234 C6.40383828 361.98955416 10.26038642 357.84412471 14.0949707 353.67700195 C19.20449328 348.12437715 24.36251283 342.61842681 29.52856445 337.1184082 C33.40398745 332.98937879 37.26046433 328.84404004 41.0949707 324.67700195 C46.20449328 319.12437715 51.36251283 313.61842681 56.52856445 308.1184082 C60.40398805 303.98937815 64.26040796 299.8439887 68.0949707 295.67700195 C73.78909906 289.49057476 79.53984327 283.35816324 85.29418945 277.2277832 C93.72689652 268.24366541 102.13312973 259.2356435 110.47753906 250.16943359 C114.57134753 245.72819766 118.70692863 241.32699723 122.8449707 236.92700195 C132.12128268 228.6760228 132.12128268 228.6760228 138.0949707 219.17700195 C136.93652145 219.1689151 135.7780722 219.16082825 134.58451843 219.15249634 C123.68069044 219.07509667 112.77698818 218.98737311 101.87332439 218.88947487 C96.26730015 218.83947497 90.6612951 218.79314525 85.05517578 218.75512695 C79.64752863 218.71832084 74.24004057 218.67197364 68.83252907 218.61893845 C66.76684159 218.60036962 64.70111999 218.58527092 62.6353817 218.57365799 C59.74763991 218.55683813 56.86026448 218.52781345 53.97265625 218.49584961 C53.11382339 218.49368942 52.25499054 218.49152924 51.37013245 218.48930359 C47.44538625 218.43360617 45.43296499 218.40233148 42.0949707 216.17700195 C41.4634609 210.260711 42.45548773 206.34963731 45.3918457 201.16918945 C45.90890076 200.21044418 45.90890076 200.21044418 46.43640137 199.23233032 C47.55705675 197.16331016 48.70057853 195.10797196 49.8449707 193.05200195 C50.6313135 191.61076862 51.4161315 190.16870236 52.19946289 188.72583008 C54.13302248 185.17223683 56.08429297 181.62875629 58.04125977 178.0880127 C59.51900147 175.40797951 60.97971448 172.71883402 62.4387207 170.02856445 C64.35285896 166.50082908 66.27430444 162.97731216 68.2043457 159.45825195 C71.35553501 153.70916859 74.47587864 147.94354545 77.5949707 142.17700195 C82.23761576 133.59706325 86.899686 125.02799822 91.57543945 116.46606445 C95.26282184 109.71070249 98.93212939 102.94569773 102.5949707 96.17700195 C106.79277735 88.42124486 110.99806916 80.66967273 115.2199707 72.92700195 C115.70498047 72.03730713 116.18999023 71.1476123 116.68969727 70.23095703 C119.21105833 65.61113208 121.74358578 60.99775647 124.2902832 56.3918457 C125.05961182 54.9991748 125.05961182 54.9991748 125.84448242 53.57836914 C126.82595856 51.8032164 127.80928294 50.02908398 128.79467773 48.25610352 C129.22893066 47.47074219 129.66318359 46.68538086 130.1105957 45.8762207 C130.68729004 44.83727661 130.68729004 44.83727661 131.27563477 43.77734375 C132.17092421 42.32829636 132.17092421 42.32829636 132.0949707 41.17700195 C102.0649707 41.17700195 72.0349707 41.17700195 41.0949707 41.17700195 Z M157.06762695 68.8293457 C150.92532609 73.76261723 144.72807572 78.35769133 136.81469727 79.75708008 C131.23655373 80.77016141 127.33946296 81.71924399 123.57617188 86.12744141 C121.2225146 89.91512705 119.38520674 93.9406939 117.5324707 97.98950195 C116.82660208 99.43729547 116.11543834 100.88251859 115.39916992 102.32519531 C113.96277952 105.22307466 112.54598825 108.12931891 111.14038086 111.04223633 C108.26765243 116.92752753 105.0108404 122.57871666 101.7199707 128.23950195 C98.50385757 133.78801925 95.47360745 139.21422889 93.0949707 145.17700195 C93.88258789 145.74805664 94.67020508 146.31911133 95.48168945 146.9074707 C114.42317808 160.8955736 127.10790316 176.95736652 137.0949707 198.17700195 C138.08955434 200.17970098 139.08758387 202.18071245 140.0949707 204.17700195 C141.97442383 204.23307617 141.97442383 204.23307617 143.8918457 204.2902832 C145.54291691 204.35595081 147.19395725 204.42239788 148.8449707 204.48950195 C149.6699707 204.51206055 150.4949707 204.53461914 151.3449707 204.55786133 C154.89567634 204.7153523 157.4579002 204.83932514 160.63012695 206.52075195 C162.0949707 208.17700195 162.0949707 208.17700195 162.7824707 211.36450195 C161.70244821 217.35371758 157.68065331 221.26134841 152.84887695 224.84106445 C149.46507568 227.67597818 147.3538547 230.08358329 146.79516602 234.60131836 C146.61415157 239.70825554 146.8221228 244.79832891 146.9855957 249.90356445 C147.89201974 281.58019183 133.39391883 310.59179408 112.0949707 333.17700195 C111.48266602 333.85375977 110.87036133 334.53051758 110.23950195 335.2277832 C90.61031909 356.11256412 60.14388955 368.26946994 31.7824707 369.25756836 C30.6687207 369.27376221 30.6687207 369.27376221 29.5324707 369.2902832 C22.30086201 369.13531427 22.30086201 369.13531427 15.7980957 371.7668457 C14.02587246 373.80960745 12.57963711 375.91966174 11.0949707 378.17700195 C9.958456 379.37306071 8.79135481 380.54082974 7.5949707 381.67700195 C5.23178489 383.99046942 3.0155689 386.37221732 0.8605957 388.88012695 C-2.86874598 393.16926412 -6.74264317 397.30516003 -10.6550293 401.42700195 C-17.13849141 408.28433566 -23.55562361 415.19534613 -29.9050293 422.17700195 C-28.50902898 425.406134 -26.90537485 427.24044272 -24.2800293 429.55200195 C-12.71807678 440.86123419 -9.0454748 455.1822112 -7.62768555 470.79418945 C-6.80399439 474.64995456 -5.72121525 476.4464603 -2.9050293 479.17700195 C0.04061629 480.17602127 2.7808595 480.3080298 5.87597656 480.32226562 C6.82053207 480.32864548 7.76508759 480.33502533 8.73826599 480.34159851 C9.75187698 480.34271133 10.76548798 480.34382416 11.80981445 480.3449707 C13.38165245 480.3499633 13.38165245 480.3499633 14.98524475 480.35505676 C17.20011964 480.36011645 19.41500215 480.36246538 21.62988281 480.36230469 C25.01615967 480.36449142 28.40211084 480.38265815 31.78833008 480.40161133 C33.94132376 480.40454539 36.09431898 480.4065301 38.24731445 480.4074707 C39.25890121 480.41465622 40.27048798 480.42184174 41.31272888 480.429245 C42.26043655 480.42616837 43.20814423 480.42309174 44.18457031 480.41992188 C45.01411728 480.42134689 45.84366425 480.42277191 46.698349 480.42424011 C50.27279404 480.05549639 53.12468346 479.0375282 55.8215332 476.64575195 C57.78769598 472.83404988 57.99135625 468.9011253 58.4699707 464.67700195 C60.61024435 448.60764284 67.23227195 434.5420893 80.0949707 424.17700195 C96.38336356 413.19741862 113.5127825 409.41166845 133.01293945 412.87231445 C142.37662603 415.5348681 150.78491821 419.84257901 157.9074707 426.48950195 C160.51403362 428.91485996 161.95497677 430.12585032 165.3449707 431.36450195 C172.09567615 430.90422658 176.6706036 424.93945734 181.2043457 420.4387207 C181.97176086 419.68033401 182.73917603 418.92194733 183.52984619 418.14057922 C185.14622821 416.53867365 186.75983978 414.93396836 188.37084961 413.32666016 C190.83812457 410.87131498 193.32343776 408.43524806 195.80981445 405.99926758 C197.3799715 404.43857136 198.94902031 402.87675921 200.5168457 401.3137207 C201.63394928 400.2259156 201.63394928 400.2259156 202.77362061 399.11613464 C205.80493788 396.05790256 207.83396061 393.99197195 209.16235352 389.84423828 C209.04741451 385.29456942 206.27965759 382.58489072 203.4777832 379.25512695 C191.12204922 364.20858868 188.67798895 348.02285927 190.0949707 329.17700195 C192.91855296 313.00557627 202.61734266 299.31685871 215.7355957 289.7043457 C225.50632389 283.3792551 235.84768406 281.57076196 247.16918945 279.6574707 C248.05219727 279.49891602 248.93520508 279.34036133 249.8449707 279.17700195 C250.60293945 279.05325195 251.3609082 278.92950195 252.1418457 278.80200195 C254.59820648 278.01596651 255.50710163 277.21196391 257.0949707 275.17700195 C257.56384993 272.64558587 257.56384993 272.64558587 257.51489258 269.75927734 C257.53876038 268.09724022 257.53876038 268.09724022 257.56311035 266.40162659 C257.56331177 265.20472702 257.56351318 264.00782745 257.5637207 262.7746582 C257.57514099 260.93078773 257.57514099 260.93078773 257.58679199 259.04966736 C257.60037736 255.78120735 257.59819265 252.51315529 257.59240723 249.24468994 C257.5966503 245.92569601 257.64399883 242.60709782 257.6809082 239.28833008 C257.68611517 236.76294348 257.6888034 234.23755017 257.6887207 231.7121582 C257.7133136 229.9198452 257.7133136 229.9198452 257.73840332 228.09132385 C257.84445664 221.75271447 257.84445664 221.75271447 254.83544922 216.44799805 C252.29418312 215.26939392 250.42278224 214.58049373 247.65356445 214.3059082 C246.4157019 214.16125122 246.4157019 214.16125122 245.15283203 214.01367188 C244.28811279 213.9231958 243.42339355 213.83271973 242.5324707 213.73950195 C230.47100622 212.19438883 220.86935895 208.51248334 211.0949707 201.17700195 C209.85360352 200.24887695 209.85360352 200.24887695 208.5871582 199.30200195 C198.48199141 190.68568419 191.04036946 175.90801482 189.87573242 162.68847656 C189.13867434 145.96280914 190.84330406 129.92251569 202.22387695 116.7043457 C203.30475586 115.54612305 203.30475586 115.54612305 204.4074707 114.36450195 C206.83282871 111.75793904 208.04381907 110.31699589 209.2824707 106.92700195 C208.82219533 100.17629651 202.85742609 95.60136906 198.35668945 91.06762695 C197.59830276 90.30021179 196.83991608 89.53279663 196.05854797 88.74212646 C194.4566424 87.12574444 192.85193711 85.51213287 191.24462891 83.90112305 C188.78928373 81.43384808 186.35321681 78.94853489 183.91723633 76.4621582 C182.35654011 74.89200115 180.79472796 73.32295235 179.23168945 71.75512695 C178.14388435 70.63802338 178.14388435 70.63802338 177.03410339 69.49835205 C173.97587131 66.46703478 171.9099407 64.43801205 167.76220703 63.10961914 C163.17830185 63.22542306 160.46445311 66.06083421 157.06762695 68.8293457 Z M85.0949707 159.17700195 C84.75876709 159.79929688 84.42256348 160.4215918 84.07617188 161.06274414 C82.4790285 164.01790672 80.88089916 166.97253426 79.2824707 169.92700195 C78.70021729 171.00344971 78.11796387 172.07989746 77.51806641 173.18896484 C73.17144581 181.21472092 68.78490666 189.21757606 64.34765625 197.19360352 C63.91751221 197.97058594 63.48736816 198.74756836 63.04418945 199.5480957 C62.47704224 200.56794556 62.47704224 200.56794556 61.8984375 201.60839844 C61.01898871 203.03160676 61.01898871 203.03160676 61.0949707 204.17700195 C81.5549707 204.17700195 102.0149707 204.17700195 123.0949707 204.17700195 C119.60354784 186.71988763 102.49830505 168.89353703 88.0949707 159.17700195 C87.1049707 159.17700195 86.1149707 159.17700195 85.0949707 159.17700195 Z M-48.9050293 168.17700195 C-63.45989264 183.03112417 -74.96403934 200.72474501 -79.9050293 221.17700195 C-79.50083753 223.32847685 -79.50083753 223.32847685 -78.9050293 225.17700195 C-71.48300428 212.29075496 -64.18539241 199.33992192 -56.98291016 186.33007812 C-56.37970947 185.24057861 -55.77650879 184.1510791 -55.1550293 183.02856445 C-54.59299805 182.00923828 -54.0309668 180.98991211 -53.4519043 179.93969727 C-52.14335221 177.60264306 -50.7868178 175.30685034 -49.4050293 173.01293945 C-48.9100293 172.07708008 -48.4150293 171.1412207 -47.9050293 170.17700195 C-48.2350293 169.51700195 -48.5650293 168.85700195 -48.9050293 168.17700195 Z M-80.9050293 225.17700195 C-79.9050293 227.17700195 -79.9050293 227.17700195 -79.9050293 227.17700195 Z M130.703125 249.53125 C130.11442627 250.16071533 129.52572754 250.79018066 128.91918945 251.4387207 C128.26233154 252.13876221 127.60547363 252.83880371 126.92871094 253.56005859 C126.22045166 254.3205249 125.51219238 255.08099121 124.7824707 255.86450195 C124.05552002 256.64108154 123.32856934 257.41766113 122.57958984 258.21777344 C117.90022407 263.22251705 113.24366619 268.24811661 108.60546875 273.29101562 C104.62865929 277.61154125 100.61534497 281.89701971 96.5949707 286.17700195 C92.07343249 290.99080472 87.56699647 295.81715824 83.0949707 300.67700195 C77.98544813 306.22962676 72.82742858 311.7355771 67.66137695 317.2355957 C63.3081005 321.87374915 58.9818691 326.53547962 54.67773438 331.21923828 C51.8221471 334.32167018 48.94556219 337.40289175 46.05200195 340.4699707 C45.36428711 341.19958008 44.67657227 341.92918945 43.96801758 342.6809082 C42.61586718 344.11380312 41.261763 345.54485739 39.90551758 346.97387695 C39.29385742 347.62227539 38.68219727 348.27067383 38.05200195 348.9387207 C37.50519775 349.51581787 36.95839355 350.09291504 36.39501953 350.6875 C34.99727025 352.16305372 34.99727025 352.16305372 34.0949707 354.17700195 C40.13977063 354.40368195 45.27070801 353.70150933 51.0949707 352.11450195 C51.91876221 351.89189697 52.74255371 351.66929199 53.59130859 351.43994141 C82.00082757 343.42714026 105.65488642 324.71408642 120.0949707 298.98950195 C128.63201149 283.08398871 132.57215828 266.13560864 133.0949707 248.17700195 C131.89076359 248.06077525 131.89076359 248.06077525 130.703125 249.53125 Z M-76.9050293 280.17700195 C-76.02917293 285.43214014 -74.72048552 289.17751465 -72.3425293 293.80200195 C-71.98320312 294.50494385 -71.62387695 295.20788574 -71.25366211 295.93212891 C-62.46222864 312.81436851 -48.43077142 332.14717058 -29.9050293 339.17700195 C-22.9324066 326.98104702 -16.06684305 314.73338251 -9.4050293 302.36450195 C-8.83059082 301.29925293 -8.25615234 300.23400391 -7.66430664 299.13647461 C-4.29773934 292.86228278 -1.0927551 286.55245356 2.0949707 280.17700195 C-23.9750293 280.17700195 -50.0450293 280.17700195 -76.9050293 280.17700195 Z " fill="#F37324" transform="translate(230.905029296875,5.822998046875)"/>
</svg>
