<?xml version="1.0" encoding="UTF-8"?>
<svg version="1.1" xmlns="http://www.w3.org/2000/svg" width="512" height="512">
<path d="M0 0 C1.84790182 -0.00967334 1.84790182 -0.00967334 3.73313498 -0.0195421 C5.09204 -0.01660011 6.45094461 -0.0134647 7.80984879 -0.01015663 C9.25983232 -0.01389444 10.70981385 -0.01849649 12.15979218 -0.02388728 C16.14030709 -0.03611666 20.12073794 -0.03585688 24.10126734 -0.03349853 C28.39588496 -0.03309034 32.69047565 -0.0441297 36.98508072 -0.05361366 C45.3978004 -0.07022453 53.81049205 -0.07572326 62.22322676 -0.07683842 C69.06224734 -0.07778889 75.90125868 -0.08189917 82.74027634 -0.08823967 C102.13298551 -0.10585267 121.52567254 -0.1150785 140.91838977 -0.11357872 C142.48649395 -0.11345885 142.48649395 -0.11345885 144.08627701 -0.11333656 C145.65629744 -0.11321392 145.65629744 -0.11321392 147.25803545 -0.1130888 C164.21910194 -0.11227599 181.18007961 -0.13141238 198.1411204 -0.1596133 C215.55937612 -0.18834572 232.97758852 -0.20215338 250.39586854 -0.20042574 C260.1737698 -0.19976194 269.95157795 -0.20524979 279.72945786 -0.22678185 C288.05506777 -0.24499839 296.38054239 -0.24933712 304.70616361 -0.235763 C308.95249765 -0.22923561 313.19857214 -0.22910775 317.44488144 -0.2464695 C321.33614664 -0.26221567 325.22694684 -0.25932112 329.11820081 -0.24190123 C330.52196069 -0.2388347 331.9257554 -0.24245069 333.32947418 -0.25362138 C344.67487212 -0.33788988 353.58433246 1.30627871 362.03842545 9.26508141 C368.2515245 16.32227632 371.104849 24.57804653 371.0496006 33.90173531 C371.05310668 34.65530032 371.05661275 35.40886534 371.06022507 36.18526566 C371.06953591 38.71273803 371.06461658 41.23997984 371.05975723 43.76746178 C371.06349365 45.59692645 371.06809514 47.42638953 371.07348788 49.25585008 C371.08573434 54.28530489 371.08545547 59.31469327 371.08309913 64.3441596 C371.08269138 69.76761942 371.09372614 75.19105781 371.10321426 80.61450768 C371.11983437 91.2410655 371.12532427 101.86760114 371.12643902 112.49417087 C371.12738903 121.13143652 371.131497 129.76869484 371.13784027 138.40595818 C371.1554556 162.88971898 371.16467871 187.37346225 371.16317932 211.85722944 C371.16313943 212.51708864 371.16309954 213.17694784 371.16305844 213.85680277 C371.16297757 215.19119917 371.16289397 216.52559556 371.16280766 217.85999196 C371.1615823 238.61842218 371.17659259 259.37678706 371.20395279 280.13519859 C371.23465481 303.46006426 371.25185937 326.78488672 371.25002635 350.10977387 C371.24936213 362.4586695 371.25486818 374.80749142 371.27638245 387.15637016 C371.2945827 397.67052004 371.29895106 408.18456282 371.2853636 418.69872162 C371.27882811 424.062983 371.27873789 429.42703884 371.2960701 434.79128075 C371.31177995 439.70394663 371.30895836 444.61624364 371.29150183 449.52890041 C371.28842735 451.30412441 371.29208118 453.0793758 371.30322199 454.8545675 C371.37831742 467.67138907 370.13977707 478.64157455 360.7923317 488.25726891 C354.27822061 493.52001574 348.0776753 496.50326666 339.58466339 496.51453781 C337.73676157 496.52421115 337.73676157 496.52421115 335.85152841 496.53407991 C334.49262339 496.53113792 333.13371878 496.52800251 331.77481461 496.52469444 C330.32483107 496.52843225 328.87484954 496.5330343 327.42487121 496.53842509 C323.4443563 496.55065448 319.46392545 496.55039469 315.48339605 496.54803634 C311.18877843 496.54762815 306.89418774 496.55866751 302.59958267 496.56815147 C294.18686299 496.58476234 285.77417134 496.59026107 277.36143664 496.59137623 C270.52241605 496.59232671 263.68340471 496.59643698 256.84438705 496.60277748 C237.45167788 496.62039048 218.05899085 496.62961631 198.66627362 496.62811653 C197.09816944 496.62799666 197.09816944 496.62799666 195.49838638 496.62787437 C193.92836595 496.62775173 193.92836595 496.62775173 192.32662794 496.62762661 C175.36556145 496.6268138 158.40458379 496.64595019 141.44354299 496.67415111 C124.02528727 496.70288353 106.60707487 496.71669119 89.18879485 496.71496356 C79.41089359 496.71429976 69.63308544 496.7197876 59.85520554 496.74131966 C51.52959562 496.7595362 43.204121 496.76387493 34.87849978 496.75030081 C30.63216574 496.74377342 26.38609125 496.74364556 22.13978195 496.76100731 C18.24851675 496.77675348 14.35771655 496.77385894 10.46646258 496.75643905 C9.0627027 496.75337251 7.65890799 496.75698851 6.25518921 496.7681592 C-5.09020872 496.85242769 -13.99966907 495.2082591 -22.45376205 487.24945641 C-28.6668611 480.19226149 -31.52018561 471.93649128 -31.46493721 462.61280251 C-31.46844328 461.85923749 -31.47194936 461.10567247 -31.47556168 460.32927215 C-31.48487252 457.80179978 -31.47995319 455.27455797 -31.47509384 452.74707603 C-31.47883026 450.91761136 -31.48343175 449.08814828 -31.48882449 447.25868773 C-31.50107095 442.22923292 -31.50079208 437.19984454 -31.49843574 432.17037821 C-31.49802798 426.74691839 -31.50906275 421.32348 -31.51855087 415.90003014 C-31.53517098 405.27347231 -31.54066088 394.64693667 -31.54177563 384.02036694 C-31.54272564 375.38310129 -31.54683361 366.74584297 -31.55317688 358.10857964 C-31.57079221 333.62481883 -31.58001532 309.14107556 -31.57851593 284.65730837 C-31.57847604 283.99744917 -31.57843615 283.33758997 -31.57839505 282.65773504 C-31.57831418 281.32333864 -31.57823058 279.98894225 -31.57814427 278.65454585 C-31.57691891 257.89611563 -31.5919292 237.13775075 -31.6192894 216.37933922 C-31.64999142 193.05447355 -31.66719598 169.72965109 -31.66536295 146.40476394 C-31.66469874 134.05586832 -31.67020479 121.70704639 -31.69171906 109.35816765 C-31.70991931 98.84401777 -31.71428766 88.32997499 -31.70070021 77.81581619 C-31.69416471 72.45155481 -31.6940745 67.08749897 -31.71140671 61.72325706 C-31.72711656 56.81059118 -31.72429497 51.89829417 -31.70683844 46.9856374 C-31.70376396 45.2104134 -31.70741779 43.43516201 -31.71855859 41.65997031 C-31.79365403 28.84314874 -30.55511367 17.87296326 -21.2076683 8.25726891 C-14.69355722 2.99452207 -8.49301191 0.01127115 0 0 Z M-11.9576683 21.13226891 C-15.6798339 26.30194335 -16.50253103 30.4050404 -16.46493721 36.69056988 C-16.46844328 37.43345 -16.47194936 38.17633012 -16.47556168 38.94172177 C-16.48488886 41.43884953 -16.47994899 43.93574476 -16.47509384 46.43288231 C-16.47882944 48.23816054 -16.48343059 50.04343715 -16.48882449 51.84871119 C-16.5010811 56.81587735 -16.50079089 61.7829763 -16.49843574 66.75015414 C-16.49802824 72.10474479 -16.50906026 77.4593137 -16.51855087 82.81389427 C-16.53517637 93.30690056 -16.54066112 103.79988439 -16.54177563 114.29290275 C-16.54272536 122.8205604 -16.54683188 131.34821063 -16.55317688 139.87586594 C-16.57079342 164.0436411 -16.58001509 188.21139848 -16.57851593 212.37918011 C-16.57843602 213.68255537 -16.57835611 214.98593063 -16.57827377 216.32880211 C-16.57819201 217.63376539 -16.57811025 218.93872867 -16.57802601 220.28323629 C-16.57721297 241.43601905 -16.59635425 262.58873062 -16.62455051 283.74149279 C-16.65326163 305.45149303 -16.66709178 327.16145854 -16.66536295 348.87147826 C-16.66469845 361.06382959 -16.67021738 373.2561063 -16.69171906 385.44844055 C-16.70990752 395.82872432 -16.71429738 406.20889964 -16.70070021 416.58919243 C-16.69415882 421.88636621 -16.69409565 427.18333179 -16.71140671 432.48048592 C-16.7270906 437.32955768 -16.72432173 442.17825535 -16.70683844 447.02731773 C-16.70375822 448.78167481 -16.70743929 450.53605948 -16.71855859 452.29038403 C-17.10769272 465.56626578 -17.10769272 465.56626578 -10.72498071 476.79000694 C-6.3851793 480.64893851 -3.09584931 481.38197495 2.54832554 481.38869667 C3.75585336 481.39253782 4.96338118 481.39637896 6.20750076 481.4003365 C7.55440674 481.39955622 8.90131267 481.39867743 10.24821854 481.3977108 C11.67371329 481.40029378 13.09920732 481.40330675 14.52470034 481.4067142 C18.45128678 481.41479536 22.37785495 481.41657439 26.30444872 481.41731167 C30.53563913 481.41916028 34.76682 481.42670662 38.99800491 481.43344688 C48.25413197 481.44703844 57.51025471 481.45305615 66.76639009 481.45745754 C72.54369655 481.46021846 78.32100133 481.46445552 84.09830666 481.46896172 C100.08761903 481.48115524 116.07693006 481.49145453 132.06624699 481.49483681 C133.08992574 481.49505637 134.1136045 481.49527594 135.16830383 481.49550216 C136.70753625 481.49582958 136.70753625 481.49582958 138.27786428 481.49616361 C140.3573124 481.49660708 142.43676053 481.49705364 144.51620865 481.49750328 C145.54769099 481.49772471 146.57917334 481.49794614 147.64191272 481.49817428 C164.36012615 481.50212331 181.07829602 481.51958015 197.79649261 481.5428628 C214.95246657 481.5665627 232.10841865 481.57903803 249.26440924 481.58020473 C258.90024956 481.58112223 268.53603313 481.58689353 278.17185783 481.60502434 C286.37612969 481.62040692 294.58032725 481.62555669 302.78461079 481.61728624 C306.97165688 481.61337324 311.15855327 481.61434088 315.34558105 481.62834358 C319.17808894 481.64104363 323.01033403 481.6399195 326.84284135 481.62775287 C328.22979656 481.62578909 329.61677015 481.62890565 331.00369952 481.63759723 C332.88870742 481.64866289 334.77380176 481.63942657 336.65881443 481.6292057 C337.70597576 481.62980279 338.7531371 481.63039988 339.83203059 481.63101506 C344.90482889 480.99056032 348.04406815 479.03954443 351.5423317 475.38226891 C355.2644973 470.21259446 356.08719442 466.10949741 356.0496006 459.82396793 C356.05485971 458.70964775 356.05485971 458.70964775 356.06022507 457.57281604 C356.06955225 455.07568828 356.06461238 452.57879305 356.05975723 450.0816555 C356.06349283 448.27637727 356.06809399 446.47110066 356.07348788 444.66582662 C356.08574449 439.69866046 356.08545428 434.73156151 356.08309913 429.76438367 C356.08269163 424.40979302 356.09372365 419.05522411 356.10321426 413.70064354 C356.11983976 403.20763725 356.12532451 392.71465342 356.12643902 382.22163507 C356.12738875 373.69397741 356.13149528 365.16632718 356.13784027 356.63867188 C356.15545681 332.47089671 356.16467848 308.30313933 356.16317932 284.1353577 C356.16309941 282.83198244 356.1630195 281.52860718 356.16293716 280.1857357 C356.16281452 278.22829078 356.16281452 278.22829078 356.1626894 276.23130152 C356.16187636 255.07851877 356.18101764 233.92580719 356.2092139 212.77304503 C356.23792502 191.06304478 356.25175517 169.35307927 356.25002635 147.64305955 C356.24936184 135.45070822 356.25488077 123.25843151 356.27638245 111.06609726 C356.29457091 100.68581349 356.29896077 90.30563817 356.2853636 79.92534538 C356.27882221 74.6281716 356.27875904 69.33120602 356.2960701 64.0340519 C356.311754 59.18498013 356.30898512 54.33628246 356.29150183 49.48722009 C356.28842161 47.732863 356.29210268 45.97847833 356.30322199 44.22415378 C356.69235611 30.94827203 356.69235611 30.94827203 350.3096441 19.72453088 C345.96984269 15.8655993 342.6805127 15.13256286 337.03633785 15.12584114 C335.82881003 15.122 334.62128221 15.11815885 333.37716264 15.11420131 C332.03025665 15.11498159 330.68335072 15.11586038 329.33644485 15.11682701 C327.9109501 15.11424404 326.48545607 15.11123107 325.05996305 15.10782361 C321.13337661 15.09974245 317.20680844 15.09796342 313.28021467 15.09722614 C309.04902427 15.09537754 304.81784339 15.0878312 300.58665848 15.08109093 C291.33053142 15.06749937 282.07440868 15.06148166 272.81827331 15.05708027 C267.04096685 15.05431935 261.26366206 15.05008229 255.48635674 15.0455761 C239.49704436 15.03338258 223.50773333 15.02308328 207.5184164 15.019701 C206.49473765 15.01948144 205.47105889 15.01926187 204.41635956 15.01903565 C202.87712714 15.01870824 202.87712714 15.01870824 201.30679911 15.0183742 C199.22735099 15.01793074 197.14790287 15.01748417 195.06845474 15.01703453 C194.0369724 15.0168131 193.00549005 15.01659167 191.94275067 15.01636353 C175.22453724 15.01241451 158.50636737 14.99495767 141.78817078 14.97167501 C124.63219682 14.94797512 107.47624474 14.93549978 90.32025415 14.93433309 C80.68441383 14.93341558 71.04863027 14.92764428 61.41280556 14.90951347 C53.2085337 14.89413089 45.00433614 14.88898113 36.80005261 14.89725158 C32.61300651 14.90116457 28.42611012 14.90019693 24.23908234 14.88619423 C20.40657445 14.87349418 16.57432936 14.87461831 12.74182204 14.88678494 C11.35486683 14.88874872 9.96789324 14.88563216 8.58096387 14.87694058 C6.69595597 14.86587492 4.81086163 14.87511124 2.92584896 14.88533211 C1.87868763 14.88473502 0.83152629 14.88413793 -0.2473672 14.88352275 C-5.3201655 15.52397749 -8.45940476 17.47499338 -11.9576683 21.13226891 Z " fill="#F37324" transform="translate(86.20766830444336,7.742731094360352)"/>
<path d="M0 0 C1.12715077 -0.01043099 2.25430155 -0.02086198 3.41560841 -0.03160906 C5.27336667 -0.01822473 5.27336667 -0.01822473 7.1686554 -0.00457001 C9.14190434 -0.01392995 9.14190434 -0.01392995 11.1550169 -0.02347898 C14.80970212 -0.04020962 18.46397068 -0.03190931 22.11865759 -0.01953411 C26.05874326 -0.01050107 29.99875619 -0.02444463 33.93882751 -0.0354538 C41.65869703 -0.05326236 49.3784112 -0.04938868 57.09828687 -0.03780323 C63.37105413 -0.02877835 69.64377779 -0.02754081 75.91654968 -0.0318985 C77.25450388 -0.0328179 77.25450388 -0.0328179 78.61948746 -0.03375587 C80.43137242 -0.03503474 82.24325736 -0.03633159 84.05514228 -0.03764623 C101.05464263 -0.04905888 118.05405676 -0.03592761 135.05354297 -0.01444477 C149.64737689 0.00342684 164.24108354 0.00032292 178.83491516 -0.01811981 C195.77259957 -0.03951446 212.71020837 -0.04796018 229.6479044 -0.03567076 C231.45321209 -0.03439653 233.2585198 -0.03313905 235.06382751 -0.0318985 C235.95212822 -0.0312814 236.84042893 -0.03066429 237.75564784 -0.03002849 C244.02259774 -0.02657137 250.28949977 -0.03241173 256.55644226 -0.04181671 C264.19132554 -0.05302248 271.82604428 -0.05002672 279.46090865 -0.02869374 C283.35813694 -0.01816403 287.25509065 -0.01409388 291.15231705 -0.02729034 C295.37235884 -0.04136404 299.59170428 -0.02458731 303.8117218 -0.00457001 C305.05022731 -0.01349289 306.28873281 -0.02241578 307.56476879 -0.03160906 C309.25549495 -0.01596257 309.25549495 -0.01596257 310.9803772 0 C311.9548496 0.00064941 312.92932199 0.00129882 313.93332386 0.00196791 C317.28598752 0.65941933 318.46264034 1.78706976 320.4901886 4.50336456 C320.99158525 6.71397972 320.99158525 6.71397972 320.99355316 9.16983795 C321.00398415 10.10888536 321.01441514 11.04793278 321.02516222 12.01543617 C321.01623933 13.04383047 321.00731645 14.07222477 320.99812317 15.13178253 C321.00748311 16.77426373 321.00748311 16.77426373 321.01703215 18.44992638 C321.0330319 22.13201836 321.02033003 25.81345476 321.00776672 29.49555206 C321.01318474 32.13003228 321.02016041 34.76446678 321.02900696 37.39893341 C321.04680834 43.81938576 321.04294508 50.23965123 321.03135639 56.66011095 C321.02232867 61.87738868 321.0210952 67.09461398 321.02545166 72.31189728 C321.02606459 73.05399724 321.02667752 73.7960972 321.02730903 74.56068504 C321.02858791 76.06817199 321.02988476 77.57565893 321.0311994 79.08314586 C321.04260993 93.22415631 321.0294841 107.3650631 321.00799793 121.50605655 C320.99012649 133.64388302 320.99323047 145.78155648 321.01167297 157.91938019 C321.03307137 172.00923241 321.04151125 186.09899374 321.02922392 200.18885994 C321.0279497 201.69085056 321.02669222 203.1928412 321.02545166 204.69483185 C321.02452601 205.80338998 321.02452601 205.80338998 321.02358165 206.93434322 C321.02012565 212.146317 321.02596247 217.3582332 321.03536987 222.57019806 C321.04657982 228.92051084 321.04357118 235.27062582 321.0222469 241.62091589 C321.01172262 244.86199579 321.00978492 248.10267689 321.02084351 251.34376526 C321.03172041 254.85449169 321.01812927 258.36428045 320.99812317 261.87494659 C321.0115075 263.41753804 321.0115075 263.41753804 321.02516222 264.99129295 C321.01473123 265.93034037 321.00430024 266.86938778 320.99355316 267.83689117 C320.99290375 268.64732439 320.99225434 269.45775761 320.99158525 270.2927494 C320.28267626 273.4182688 319.03052068 274.59248271 316.4901886 276.50336456 C313.93332386 277.00476122 313.93332386 277.00476122 310.9803772 277.00672913 C309.28965104 277.02237561 309.28965104 277.02237561 307.56476879 277.03833818 C306.32626328 277.0294153 305.08775778 277.02049241 303.8117218 277.01129913 C302.49622251 277.0175391 301.18072321 277.02377906 299.8253603 277.03020811 C296.17067508 277.04693874 292.51640652 277.03863844 288.86171961 277.02626324 C284.92163394 277.0172302 280.981621 277.03117376 277.04154968 277.04218292 C269.32168016 277.05999148 261.601966 277.0561178 253.88209033 277.04453236 C247.60932306 277.03550748 241.33659941 277.03426993 235.06382751 277.03862762 C233.72587331 277.03954702 233.72587331 277.03954702 232.36088973 277.04048499 C230.54900478 277.04176387 228.73711984 277.04306072 226.92523491 277.04437536 C209.92573457 277.055788 192.92632043 277.04265674 175.92683423 277.02117389 C161.33300031 277.00330229 146.73929365 277.0064062 132.14546204 277.02484894 C115.20777763 277.04624359 98.27016883 277.0546893 81.3324728 277.04239988 C79.52716511 277.04112565 77.7218574 277.03986817 75.91654968 277.03862762 C74.58409862 277.03770197 74.58409862 277.03770197 73.22472936 277.03675762 C66.95777946 277.03330049 60.69087742 277.03914085 54.42393494 277.04854584 C46.78905166 277.05975161 39.15433292 277.05675585 31.51946855 277.03542286 C27.62224026 277.02489316 23.72528655 277.020823 19.82806015 277.03401947 C15.60801836 277.04809316 11.38867292 277.03131644 7.1686554 277.01129913 C5.93014989 277.02022202 4.69164438 277.02914491 3.41560841 277.03833818 C2.28845763 277.0279072 1.16130686 277.01747621 0 277.00672913 C-0.9744724 277.00607972 -1.9489448 277.00543031 -2.95294666 277.00476122 C-6.30561033 276.3473098 -7.48226314 275.21965937 -9.5098114 272.50336456 C-10.01120806 270.2927494 -10.01120806 270.2927494 -10.01317596 267.83689117 C-10.02360695 266.89784376 -10.03403794 265.95879635 -10.04478502 264.99129295 C-10.03586214 263.96289865 -10.02693925 262.93450436 -10.01774597 261.87494659 C-10.02398593 260.77995913 -10.0302259 259.68497166 -10.03665495 258.55680275 C-10.0526547 254.87471077 -10.03995283 251.19327437 -10.02738953 247.51117706 C-10.03280754 244.87669685 -10.03978322 242.24226235 -10.04862976 239.60779572 C-10.06643114 233.18734337 -10.06256789 226.76707789 -10.0509792 220.34661818 C-10.04195147 215.12934044 -10.040718 209.91211515 -10.04507446 204.69483185 C-10.0456874 203.95273189 -10.04630033 203.21063193 -10.04693183 202.44604409 C-10.04821071 200.93855713 -10.04950757 199.43107019 -10.0508222 197.92358327 C-10.06223273 183.78257282 -10.0491069 169.64166603 -10.02762073 155.50067258 C-10.00974929 143.36284611 -10.01285327 131.22517265 -10.03129578 119.08734894 C-10.05269417 104.99749672 -10.06113405 90.90773539 -10.04884672 76.81786919 C-10.0475725 75.31587856 -10.04631502 73.81388793 -10.04507446 72.31189728 C-10.04445736 71.57285853 -10.04384026 70.83381977 -10.04320446 70.07238591 C-10.03974845 64.86041213 -10.04558527 59.64849593 -10.05499268 54.43653107 C-10.06620262 48.08621828 -10.06319398 41.73610331 -10.0418697 35.38581324 C-10.03134543 32.14473333 -10.02940772 28.90405223 -10.04046631 25.66296387 C-10.05134321 22.15223744 -10.03775207 18.64244868 -10.01774597 15.13178253 C-10.02666886 14.10338823 -10.03559175 13.07499393 -10.04478502 12.01543617 C-10.03435403 11.07638876 -10.02392304 10.13734135 -10.01317596 9.16983795 C-10.01252656 8.35940474 -10.01187715 7.54897152 -10.01120806 6.71397972 C-8.77673646 1.27129959 -5.1253956 0.00341567 0 0 Z M5.4901886 15.50336456 C5.4901886 96.68336456 5.4901886 177.86336456 5.4901886 261.50336456 C104.4901886 261.50336456 203.4901886 261.50336456 305.4901886 261.50336456 C305.4901886 180.32336456 305.4901886 99.14336456 305.4901886 15.50336456 C206.4901886 15.50336456 107.4901886 15.50336456 5.4901886 15.50336456 Z " fill="#F37324" transform="translate(100.50981140136719,43.49663543701172)"/>
<path d="M0 0 C1.32396412 -0.00935994 1.32396412 -0.00935994 2.67467499 -0.01890898 C5.63820449 -0.03488939 8.60091723 -0.02221496 11.56445312 -0.00964355 C13.68660971 -0.01506242 15.80876253 -0.02218375 17.9309082 -0.03088379 C23.69944448 -0.04914793 29.46769519 -0.04203675 35.23623657 -0.02936745 C41.26687401 -0.01925584 47.29748663 -0.02862801 53.328125 -0.03491211 C63.45642497 -0.04219387 73.58460835 -0.03258689 83.71289062 -0.0135498 C95.43046156 0.00821986 107.14775411 0.00116887 118.8653183 -0.02085543 C128.9172072 -0.03899431 138.96901219 -0.04157513 149.02091217 -0.03110075 C155.02822942 -0.02485753 161.03541572 -0.024053 167.04272461 -0.0372467 C172.68986066 -0.04878253 178.33663703 -0.04082075 183.98373413 -0.01766968 C186.05902509 -0.01237048 188.1343462 -0.01391694 190.20962524 -0.02272034 C193.03729732 -0.0336115 195.86380863 -0.01999008 198.69140625 0 C199.51747124 -0.00892289 200.34353622 -0.01784577 201.19463348 -0.02703905 C204.74808669 0.02186648 206.91986913 0.20533725 209.8544302 2.29063416 C211.43304147 4.63779366 211.84881161 5.70596178 211.86036682 8.49267578 C211.87309128 9.27491013 211.88581573 10.05714447 211.89892578 10.86308289 C211.8923999 11.71203629 211.88587402 12.56098969 211.87915039 13.43566895 C211.88776596 14.33690994 211.89638153 15.23815094 211.90525818 16.16670227 C211.92795839 19.14532195 211.92117221 22.12300397 211.91210938 25.10168457 C211.91734292 27.17147095 211.92361841 29.24125494 211.93089294 31.31103516 C211.94130448 35.64875512 211.93672441 39.98614719 211.92211914 44.32385254 C211.90492489 49.8861425 211.92843095 55.44740013 211.96360874 61.00957489 C211.98555444 65.28353742 211.98414819 69.55725181 211.97584343 73.83125305 C211.97502246 75.88219841 211.98191349 77.93316173 211.99661446 79.98405457 C212.01400925 82.85008483 211.99956057 85.71424565 211.97680664 88.5802002 C211.99434494 89.85363029 211.99434494 89.85363029 212.01223755 91.15278625 C211.99958359 91.9350206 211.98692963 92.71725494 211.97389221 93.52319336 C211.9733059 94.20012489 211.97271959 94.87705643 211.97211552 95.57450104 C210.9275673 98.79851859 209.22222483 99.80087549 206.34570312 101.50793457 C203.32437684 101.89359986 200.67153292 102.04892082 197.65380859 102.01586914 C196.34187184 102.02522908 196.34187184 102.02522908 195.00343132 102.03477812 C192.07297679 102.05073178 189.14335131 102.03809454 186.21289062 102.0255127 C184.11191319 102.03093275 182.01093956 102.03805475 179.90997314 102.04675293 C174.20340931 102.06500294 168.49713444 102.0579117 162.79056549 102.04523659 C156.82179478 102.03511768 150.85304901 102.04449918 144.88427734 102.05078125 C134.86030632 102.05806087 124.83645314 102.04846162 114.8125 102.02941895 C103.21932723 102.00764969 91.62643583 102.01470083 80.03326988 102.03672457 C70.08410418 102.05486953 60.13502323 102.05744129 50.18584633 102.04696989 C44.24166882 102.04073002 38.29762362 102.03991299 32.35345459 102.05311584 C26.76539675 102.06466048 21.17770209 102.05667368 15.58968353 102.03353882 C13.53738763 102.02824435 11.48506122 102.02977806 9.4327774 102.03858948 C6.63396986 102.04949925 3.8363305 102.03583655 1.03759766 102.01586914 C0.22290953 102.02479203 -0.5917786 102.03371491 -1.43115425 102.04290819 C-5.13941033 101.99149275 -7.44356092 101.63299489 -10.65827847 99.72523499 C-12.7727426 97.37635775 -13.27981423 96.60787741 -13.28248596 93.52319336 C-13.29513992 92.74095901 -13.30779388 91.95872467 -13.3208313 91.15278625 C-13.3091391 90.30383286 -13.2974469 89.45487946 -13.28540039 88.5802002 C-13.29255569 87.6789592 -13.299711 86.7777182 -13.30708313 85.84916687 C-13.32399084 82.87032368 -13.30455538 79.89298105 -13.28320312 76.91418457 C-13.28403163 74.84439977 -13.28649032 72.77461504 -13.29051208 70.70483398 C-13.29337151 66.36702672 -13.27865446 62.02973539 -13.2512207 57.6920166 C-13.21713797 52.1298163 -13.22315492 46.56853871 -13.24188328 41.00629425 C-13.25244837 36.73232321 -13.24351986 32.45856714 -13.22849846 28.18461609 C-13.22331259 26.13368874 -13.22380334 24.08273898 -13.23004341 22.03181458 C-13.2354896 19.16594112 -13.21513951 16.30139158 -13.18774414 13.43566895 C-13.19427002 12.58671555 -13.2007959 11.73776215 -13.20751953 10.86308289 C-13.19479507 10.08084854 -13.18207062 9.2986142 -13.16896057 8.49267578 C-13.16615365 7.81574425 -13.16334673 7.13881271 -13.16045475 6.4413681 C-11.41020368 -0.24428133 -5.85869226 -0.0632837 0 0 Z M2.34570312 15.50793457 C2.34570312 38.93793457 2.34570312 62.36793457 2.34570312 86.50793457 C10.59570312 86.50793457 18.84570312 86.50793457 27.34570312 86.50793457 C27.34570312 63.07793457 27.34570312 39.64793457 27.34570312 15.50793457 C19.09570312 15.50793457 10.84570312 15.50793457 2.34570312 15.50793457 Z M42.34570312 15.50793457 C42.34570312 38.93793457 42.34570312 62.36793457 42.34570312 86.50793457 C51.91570312 86.50793457 61.48570312 86.50793457 71.34570312 86.50793457 C71.34570312 63.07793457 71.34570312 39.64793457 71.34570312 15.50793457 C61.77570313 15.50793457 52.20570313 15.50793457 42.34570312 15.50793457 Z M86.34570312 15.50793457 C86.34570312 38.93793457 86.34570312 62.36793457 86.34570312 86.50793457 C95.58570313 86.50793457 104.82570313 86.50793457 114.34570312 86.50793457 C114.34570312 63.07793457 114.34570312 39.64793457 114.34570312 15.50793457 C105.10570312 15.50793457 95.86570312 15.50793457 86.34570312 15.50793457 Z M129.34570312 15.50793457 C129.34570312 38.93793457 129.34570312 62.36793457 129.34570312 86.50793457 C138.91570312 86.50793457 148.48570312 86.50793457 158.34570312 86.50793457 C158.34570312 63.07793457 158.34570312 39.64793457 158.34570312 15.50793457 C148.77570313 15.50793457 139.20570313 15.50793457 129.34570312 15.50793457 Z M173.34570312 15.50793457 C173.34570312 38.93793457 173.34570312 62.36793457 173.34570312 86.50793457 C180.93570313 86.50793457 188.52570313 86.50793457 196.34570312 86.50793457 C196.34570312 63.07793457 196.34570312 39.64793457 196.34570312 15.50793457 C188.75570312 15.50793457 181.16570312 15.50793457 173.34570312 15.50793457 Z " fill="#F37324" transform="translate(156.654296875,72.4920654296875)"/>
<path d="M0 0 C2.3125 1.1875 2.3125 1.1875 4 3 C4.95367095 6.47854993 5.03270859 9.3237778 4.56274414 12.88208008 C4.4425441 13.82267776 4.32234406 14.76327545 4.19850159 15.7323761 C3.99389565 17.2357679 3.99389565 17.2357679 3.78515625 18.76953125 C3.65056503 19.80567062 3.51597382 20.84181 3.37730408 21.90934753 C2.94660546 25.2114429 2.50470603 28.51192796 2.0625 31.8125 C1.76814015 34.05393939 1.47451172 36.29547497 1.18164062 38.53710938 C0.4629038 44.02588305 -0.26502953 49.51337781 -1 55 C0.11242065 55.51385254 0.11242065 55.51385254 1.24731445 56.03808594 C4.60758752 57.59777078 7.96001319 59.173653 11.3125 60.75 C12.47974609 61.28882813 13.64699219 61.82765625 14.84960938 62.3828125 C15.96787109 62.91132813 17.08613281 63.43984375 18.23828125 63.984375 C19.26993408 64.46616211 20.30158691 64.94794922 21.36450195 65.44433594 C24.09273513 67.05473907 25.45251157 68.2543276 27 71 C26.97299981 76.78479101 24.88023239 80.17461301 21.25 84.4375 C20.76337891 85.03240234 20.27675781 85.62730469 19.77539062 86.24023438 C18.73304546 87.51245034 17.6846816 88.77975499 16.63085938 90.04248047 C14.44245153 92.6692251 12.29071975 95.32495014 10.13769531 97.98071289 C9.03993101 99.33426216 7.94029967 100.68629921 6.83886719 102.03686523 C3.34541711 106.32207447 -0.09719133 110.64256285 -3.5 115 C-9.10442712 122.16946031 -14.81133124 129.25249014 -20.59179688 136.28076172 C-21.80608858 137.76325863 -23.00600628 139.25750785 -24.203125 140.75390625 C-24.79609375 141.47449219 -25.3890625 142.19507813 -26 142.9375 C-26.474375 143.52402344 -26.94875 144.11054688 -27.4375 144.71484375 C-29.56386967 146.4637828 -31.2827183 146.75647004 -34 147 C-36.2831838 145.8584081 -38.19012683 144.80987317 -40 143 C-40.49982959 136.28305928 -39.04571183 130.93530221 -36.9375 124.59375 C-36.62675537 123.6284436 -36.31601074 122.66313721 -35.99584961 121.6685791 C-35.0080999 118.60873733 -34.00434158 115.55443096 -33 112.5 C-32.32445395 110.41701237 -31.64996352 108.33368207 -30.9765625 106.25 C-29.32990333 101.16263761 -27.67009542 96.07971373 -26 91 C-27.41084335 90.36324602 -28.82275869 89.72886696 -30.23510742 89.09545898 C-31.02124924 88.74192856 -31.80739105 88.38839813 -32.61735535 88.02415466 C-34.80267454 87.08481827 -36.9921518 86.25311058 -39.23828125 85.47265625 C-39.91310547 85.23740234 -40.58792969 85.00214844 -41.28320312 84.75976562 C-42.65236904 84.28932074 -44.02490473 83.828586 -45.40039062 83.37695312 C-49.91805231 81.77812782 -52.72276209 80.29195241 -55 76 C-54.9101371 69.30151366 -51.87274283 65.12641168 -48.12109375 59.75390625 C-47.52139267 58.87314423 -46.92169159 57.9923822 -46.30381775 57.08493042 C-44.36019358 54.23582649 -42.39917687 51.39919672 -40.4375 48.5625 C-39.10436248 46.61618438 -37.77249561 44.66899781 -36.44189453 42.72094727 C-34.46341365 39.82524433 -32.48383839 36.93035201 -30.49902344 34.03898621 C-26.82669194 28.68857929 -23.1886182 23.31930604 -19.62109375 17.8984375 C-19.24264816 17.3240947 -18.86420258 16.74975189 -18.47428894 16.15800476 C-16.8034732 13.61889662 -15.13953183 11.07550527 -13.48217773 8.52758789 C-12.91829346 7.67156982 -12.35440918 6.81555176 -11.7734375 5.93359375 C-11.30341309 5.21228271 -10.83338867 4.49097168 -10.34912109 3.74780273 C-7.35391798 -0.13251921 -4.63797563 -0.47326282 0 0 Z M-16 40 C-17.47371696 41.98435201 -18.89173408 43.98202859 -20.2890625 46.01953125 C-20.71174408 46.63390549 -21.13442566 47.24827972 -21.56991577 47.88127136 C-22.46458086 49.18554078 -23.35723209 50.4911935 -24.24804688 51.7980957 C-25.61650581 53.80007348 -26.99934819 55.79157658 -28.3828125 57.78320312 C-29.24830685 59.04885667 -30.11291982 60.31511347 -30.9765625 61.58203125 C-31.39418854 62.17901321 -31.81181458 62.77599518 -32.24209595 63.3910675 C-33.5295882 65.25099451 -33.5295882 65.25099451 -35 68 C-34.35216273 71.11125847 -34.35216273 71.11125847 -32.0222168 72.01147461 C-31.17312744 72.30546143 -30.32403809 72.59944824 -29.44921875 72.90234375 C-28.05993164 73.40217773 -28.05993164 73.40217773 -26.64257812 73.91210938 C-25.66740234 74.25048828 -24.69222656 74.58886719 -23.6875 74.9375 C-21.77106967 75.60280257 -19.85813185 76.27827002 -17.94921875 76.96484375 C-17.09674561 77.2599585 -16.24427246 77.55507324 -15.3659668 77.85913086 C-12.58504307 79.20009222 -10.9273424 80.59117151 -9 83 C-9.09863605 85.90976359 -9.37934843 88.19973742 -10 91 C-10.26103516 92.24716797 -10.26103516 92.24716797 -10.52734375 93.51953125 C-10.99475707 95.68600906 -11.48599549 97.84417527 -12 100 C-7.53635372 95.72411705 -3.61456614 91.08079144 0.3125 86.3125 C0.95767578 85.54099609 1.60285156 84.76949219 2.26757812 83.97460938 C2.87666016 83.23662109 3.48574219 82.49863281 4.11328125 81.73828125 C4.66798096 81.06837158 5.22268066 80.39846191 5.79418945 79.70825195 C7.1922262 78.07616924 7.1922262 78.07616924 7 76 C6.3387915 75.67725098 5.67758301 75.35450195 4.99633789 75.02197266 C2.01529456 73.56254452 -0.9611188 72.09391114 -3.9375 70.625 C-4.97841797 70.11710937 -6.01933594 69.60921875 -7.09179688 69.0859375 C-8.08115234 68.59609375 -9.07050781 68.10625 -10.08984375 67.6015625 C-11.00628662 67.15119629 -11.92272949 66.70083008 -12.86694336 66.23681641 C-15 65 -15 65 -16 63 C-16.46787372 55.32136662 -15.74647709 47.63806025 -15 40 C-15.33 40 -15.66 40 -16 40 Z " fill="#F37324" transform="translate(270,335)"/>
<path d="M0 0 C5.99260894 3.11747855 9.66453168 8.05018218 13.0625 13.75 C15.12838687 21.04136543 15.24892184 27.90273043 12.0625 34.875 C8.66226449 40.84217387 3.79835376 45.56613978 -2.73046875 48.02734375 C-10.08685153 49.64869587 -17.7061105 49.58852821 -24.23828125 45.6171875 C-24.77839844 45.24851562 -25.31851563 44.87984375 -25.875 44.5 C-26.761875 43.96375 -27.64875 43.4275 -28.5625 42.875 C-34.02923867 37.26051164 -36.20267769 31.29833945 -36.5 23.5 C-36.18886812 15.96733335 -34.44621626 9.95601574 -28.9375 4.625 C-20.50138238 -2.02163812 -10.24888653 -3.97980817 0 0 Z M-19.875 17.5 C-21.47586627 20.70173254 -21.37417089 24.02577059 -20.875 27.5 C-19.08136089 30.3100346 -17.85619065 32.00940468 -14.875 33.5 C-10.31593956 34.02963135 -10.31593956 34.02963135 -6.1171875 32.453125 C-2.82366707 29.74830146 -1.0770896 27.98199038 -0.5 23.75 C-1.0221599 19.2246142 -2.71729378 17.7328897 -5.875 14.5 C-11.36542646 11.75478677 -15.77648521 13.40148521 -19.875 17.5 Z " fill="#F37324" transform="translate(213.875,232.5)"/>
<path d="M0 0 C1.18510842 0.72050617 2.35447474 1.46809016 3.5 2.25 C4.386875 2.78625 5.27375 3.3225 6.1875 3.875 C11.65423867 9.48948836 13.82767769 15.45166055 14.125 23.25 C13.81356354 30.7900405 12.05358909 36.74748919 6.59765625 42.125 C-0.83358145 48.05857943 -8.14624319 49.1901972 -17.5 48.25 C-24.77389914 46.47642583 -29.27670748 42.28163999 -33.5 36.25 C-37.10780268 30.19820196 -37.41125839 24.11948636 -36.5 17.25 C-34.26656509 9.97065659 -29.92908237 4.34229113 -23.5 0.25 C-16.21438242 -2.72006024 -7.24228295 -3.49722408 0 0 Z M-20.5 18.25 C-21.95147903 21.15295805 -21.87239025 23.02261779 -21.5 26.25 C-19.68689858 29.17937654 -17.62704101 31.68647949 -14.5 33.25 C-10.31855989 33.64447548 -8.19053952 33.70035186 -4.625 31.375 C-1.69961143 28.44961143 -1.53496675 27.67659437 -1.1875 23.4375 C-1.21767976 20.11772673 -1.4939012 19.25955479 -3.375 16.3125 C-6.06870208 13.69802445 -6.98486535 13.30943861 -10.75 12.875 C-15.69272958 13.36927296 -17.03828301 14.78828301 -20.5 18.25 Z " fill="#F37324" transform="translate(320.5,232.75)"/>
<path d="M0 0 C5.80809309 4.3885778 10.49219611 8.64295687 12 16 C12.67787369 23.67886422 12.50763939 30.52101965 8 37 C2.79924284 42.71392485 -1.88535253 46.54438485 -9.71875 47.2421875 C-17.90253733 47.5935117 -24.09745649 46.55205601 -30.26171875 40.94140625 C-36.86003979 33.91662281 -38.45435504 28.45385776 -38.2421875 18.89453125 C-37.60442595 11.27225213 -33.2779779 6.16146625 -28 1 C-20.06364804 -4.72155606 -8.34980194 -4.97776654 0 0 Z M-21 15 C-23.32826375 18.21522137 -23.39711181 21.10830425 -23 25 C-21.72311154 27.80915461 -20.68900183 29.50106764 -18.1875 31.3125 C-14.13938379 32.58476509 -11.12012891 32.50914951 -7.25 30.75 C-4.83119625 28.8687082 -3.91208095 27.90207573 -3 25 C-2.50723463 20.36800553 -3.12974158 17.69033225 -6 14 C-10.98424831 10.39071674 -16.34986731 11.38323013 -21 15 Z " fill="#F37324" transform="translate(269,234)"/>
<path d="M0 0 C1.08474609 -0.01224609 2.16949219 -0.02449219 3.28710938 -0.03710938 C4.33576172 -0.03904297 5.38441406 -0.04097656 6.46484375 -0.04296875 C7.41866943 -0.04707764 8.37249512 -0.05118652 9.35522461 -0.05541992 C12.31987085 0.21059352 14.41946903 0.82471817 17.0625 2.1875 C19.38999345 5.67874017 19.56549316 7.07972251 19.0625 11.1875 C16.81308312 14.25662259 15.60750842 15.10076343 11.81030273 15.70507812 C10.55161377 15.70958984 9.2929248 15.71410156 7.99609375 15.71875 C7.32079117 15.7225769 6.64548859 15.72640381 5.94972229 15.73034668 C4.52676903 15.73306096 3.10376547 15.72573335 1.6809082 15.70898438 C-0.49705974 15.68752896 -2.67174244 15.70881376 -4.84960938 15.734375 C-6.23438227 15.73173228 -7.61915313 15.72660846 -9.00390625 15.71875 C-10.26146729 15.71423828 -11.51902832 15.70972656 -12.81469727 15.70507812 C-15.9375 15.1875 -15.9375 15.1875 -17.84741211 13.34179688 C-19.33109832 10.40964747 -19.3432485 8.433488 -18.9375 5.1875 C-17.61718668 2.74492035 -16.83027474 1.48796845 -14.16967773 0.5925293 C-9.5056069 -0.25376771 -4.72569761 0.00279793 0 0 Z " fill="#F37324" transform="translate(257.9375,196.8125)"/>
<path d="M0 0 C1.08474609 -0.01224609 2.16949219 -0.02449219 3.28710938 -0.03710938 C4.33576172 -0.03904297 5.38441406 -0.04097656 6.46484375 -0.04296875 C7.41866943 -0.04707764 8.37249512 -0.05118652 9.35522461 -0.05541992 C12.31987085 0.21059352 14.41946903 0.82471817 17.0625 2.1875 C19.38829101 5.67618651 19.48115457 7.08468519 19.0625 11.1875 C17.97631836 13.34570312 17.97631836 13.34570312 16.0625 15.1875 C12.93969727 15.70507812 12.93969727 15.70507812 9.12890625 15.71875 C8.45456039 15.7225769 7.78021454 15.72640381 7.08543396 15.73034668 C5.66070054 15.73306566 4.23591719 15.7257051 2.8112793 15.70898438 C0.63541688 15.68760237 -1.53713196 15.70876335 -3.71289062 15.734375 C-5.0989656 15.73173106 -6.48503851 15.7266047 -7.87109375 15.71875 C-9.12978271 15.71423828 -10.38847168 15.70972656 -11.68530273 15.70507812 C-15.48256628 15.10075422 -16.68255503 14.25103109 -18.9375 11.1875 C-19.43602036 7.76907468 -19.33433108 5.9216375 -17.6875 2.875 C-13.26197484 -1.39247069 -5.71621474 0.00338438 0 0 Z " fill="#F37324" transform="translate(170.9375,196.8125)"/>
<path d="M0 0 C1.07636719 -0.020625 2.15273438 -0.04125 3.26171875 -0.0625 C8.91757786 -0.09039573 13.31269912 -0.11045418 18.125 3.25 C19.54541821 6.09083641 19.43952272 8.10477278 19.125 11.25 C16.88110901 14.3247174 15.66996961 15.16326961 11.87280273 15.76757812 C10.61411377 15.77208984 9.3554248 15.77660156 8.05859375 15.78125 C7.38329117 15.7850769 6.70798859 15.78890381 6.01222229 15.79284668 C4.58926903 15.79556096 3.16626547 15.78823335 1.7434082 15.77148438 C-0.43455974 15.75002896 -2.60924244 15.77131376 -4.78710938 15.796875 C-6.17188227 15.79423228 -7.55665313 15.78910846 -8.94140625 15.78125 C-10.19896729 15.77673828 -11.45652832 15.77222656 -12.75219727 15.76757812 C-15.875 15.25 -15.875 15.25 -17.78491211 13.40429688 C-19.26859832 10.47214747 -19.2807485 8.495988 -18.875 5.25 C-17.55402763 2.80620112 -16.7684963 1.54922883 -14.10498047 0.65722656 C-9.45920502 -0.19115897 -4.70848187 0.02239468 0 0 Z " fill="#F37324" transform="translate(344.875,196.75)"/>
<path d="M0 0 C1.70542969 -0.0309375 1.70542969 -0.0309375 3.4453125 -0.0625 C5.09273438 -0.07023438 5.09273438 -0.07023438 6.7734375 -0.078125 C7.77552246 -0.0874707 8.77760742 -0.09681641 9.81005859 -0.10644531 C13.37981429 0.34557926 16.06361481 1.68861481 18.625 4.25 C19.0964695 11.55777731 19.0964695 11.55777731 17.5378418 13.84619141 C13.45246716 16.84439232 7.3048205 15.76655823 2.3737793 15.75097656 C0.1977085 15.75000456 -1.97482955 15.79161368 -4.15039062 15.8359375 C-5.536451 15.8411452 -6.9225236 15.84383268 -8.30859375 15.84375 C-9.56728271 15.85083984 -10.82597168 15.85792969 -12.12280273 15.86523438 C-15.375 15.25 -15.375 15.25 -17.82055664 12.90820312 C-19.375 10.25 -19.375 10.25 -19.3125 7.125 C-18.36896912 4.23150531 -17.79830523 3.0208769 -15.375 1.25 C-10.39095008 -0.41134997 -5.21844065 0.02350649 0 0 Z " fill="#F37324" transform="translate(301.375,196.75)"/>
<path d="M0 0 C1.13244141 -0.01611328 2.26488281 -0.03222656 3.43164062 -0.04882812 C4.52541016 -0.04947266 5.61917969 -0.05011719 6.74609375 -0.05078125 C7.74181396 -0.05376221 8.73753418 -0.05674316 9.76342773 -0.05981445 C13.05145841 0.37753808 14.91158344 1.3429575 17.5625 3.3125 C19.0625 6.1875 19.0625 6.1875 19.5625 9.3125 C18.44733109 11.70214766 17.42299542 13.45200458 15.5625 15.3125 C11.18126853 15.55496292 6.79442683 15.54101955 2.40722656 15.55273438 C0.20339071 15.56243009 -1.99950869 15.59343522 -4.203125 15.625 C-5.60155695 15.63153089 -6.99999558 15.63678103 -8.3984375 15.640625 C-9.67509277 15.6499707 -10.95174805 15.65931641 -12.26708984 15.66894531 C-15.4375 15.3125 -15.4375 15.3125 -17.32275391 13.94042969 C-18.88239786 11.66278932 -19.30588427 10.07643037 -19.4375 7.3125 C-15.61035384 -1.34893604 -8.28185137 -0.02348795 0 0 Z " fill="#F37324" transform="translate(214.4375,196.6875)"/>
</svg>
