<?xml version="1.0" encoding="UTF-8"?>
<svg version="1.1" xmlns="http://www.w3.org/2000/svg" width="512" height="512">
<path d="M0 0 C1.06077255 -0.00671722 2.1215451 -0.01343445 3.21446228 -0.02035522 C6.72008961 -0.03934785 10.2255256 -0.04326016 13.73120117 -0.04541016 C16.17111795 -0.05183742 18.61103395 -0.05856573 21.0509491 -0.06558228 C26.1661457 -0.07755838 31.28127474 -0.08126277 36.39648438 -0.08007812 C42.94350949 -0.07987497 49.49010035 -0.10717221 56.03702259 -0.14162254 C61.07714315 -0.16388623 66.11715914 -0.16791581 71.15732384 -0.16685867 C73.5705992 -0.16921561 75.9838774 -0.17804428 78.39710426 -0.19352341 C81.77676205 -0.21317076 85.1554826 -0.2073493 88.53515625 -0.1953125 C89.52712006 -0.20655151 90.51908386 -0.21779053 91.54110718 -0.22937012 C98.82624198 -0.16360776 104.17378339 1.40933061 109.70385742 6.25537109 C110.24268555 6.90634766 110.78151367 7.55732422 111.33666992 8.22802734 C111.8909668 8.87642578 112.44526367 9.52482422 113.01635742 10.19287109 C116.36210272 15.04872305 116.73051815 19.32143496 116.58666992 25.10302734 C116.57764648 25.79589844 116.56862305 26.48876953 116.55932617 27.20263672 C116.53593149 28.8987513 116.50006633 30.59468605 116.46166992 32.29052734 C117.56124023 32.24412109 118.66081055 32.19771484 119.79370117 32.14990234 C132.1239642 31.7823979 141.6317927 33.0914045 151.39526367 41.31787109 C159.34519191 48.90712206 164.41872271 57.72921308 164.96503448 68.89248657 C164.98672544 70.90867703 164.98712936 72.92517528 164.96960449 74.94140625 C164.97896444 76.62220244 164.97896444 76.62220244 164.98851347 78.33695412 C165.00437371 82.06388481 164.99186593 85.79015515 164.97924805 89.51708984 C164.98467226 92.20035692 164.99165276 94.88357964 165.00048828 97.5668335 C165.01821651 104.08158654 165.0144591 110.5961546 165.00283772 117.11091471 C164.99378112 122.40853288 164.99258899 127.70609944 164.99693298 133.00372314 C164.99754592 133.75950578 164.99815885 134.51528842 164.99879035 135.29397357 C165.00006934 136.82963166 165.00136619 138.36528974 165.00268072 139.90094781 C165.01406982 154.27969346 165.00099909 168.65833687 164.97947925 183.03706574 C164.96160977 195.35793224 164.96471435 207.67864795 164.9831543 219.99951172 C165.00459059 234.32899899 165.01297134 248.6583968 165.00070524 262.98789787 C164.99943113 264.51770908 164.99817364 266.04752031 164.99693298 267.57733154 C164.99600733 268.70619182 164.99600733 268.70619182 164.99506298 269.85785735 C164.99161834 275.14527077 164.99741924 280.43262715 165.0068512 285.72003174 C165.0181033 292.16915344 165.01496406 298.61808056 164.99372822 305.06718016 C164.98326059 308.35372869 164.98119789 311.63988888 164.99232483 314.92644501 C165.00329908 318.49783291 164.98949236 322.06831765 164.96960449 325.63964844 C164.98298882 327.17951133 164.98298882 327.17951133 164.99664354 328.75048256 C164.87584948 339.97838123 161.22880164 349.15426461 153.46166992 357.29052734 C142.34614094 367.90176011 130.38660248 368.8808401 115.73657227 368.79846191 C113.94474977 368.80307613 112.15293107 368.80943253 110.36112022 368.81737089 C105.45882285 368.83401582 100.55683833 368.82583986 95.65454006 368.81342602 C90.35929214 368.80435803 85.06409719 368.81835393 79.76885986 368.8293457 C69.4039741 368.84711682 59.0392043 368.84329718 48.67431402 368.83169514 C40.24931736 368.82265557 31.82435315 368.82143909 23.39935303 368.82579041 C22.19951259 368.82640334 20.99967215 368.82701627 19.76347291 368.82764778 C17.32589482 368.8289267 14.88831674 368.83022355 12.45073867 368.83153814 C-10.39761198 368.84293982 -33.2458984 368.82983668 -56.09423852 368.80833668 C-75.69217099 368.79046609 -95.29000869 368.79357031 -114.88793945 368.81201172 C-137.65545143 368.83342568 -160.42290714 368.84184122 -183.19042778 368.82956266 C-185.61895624 368.82828849 -188.04748471 368.82703101 -190.47601318 368.82579041 C-192.26825992 368.82486475 -192.26825992 368.82486475 -194.09671366 368.8239204 C-202.50998514 368.82046909 -210.92322087 368.82629115 -219.33648682 368.83570862 C-229.59175319 368.84693579 -239.84689711 368.84387334 -250.10214949 368.82258564 C-255.33289547 368.81208501 -260.56343742 368.8079367 -265.79418182 368.82118225 C-270.58582288 368.83313223 -275.37707146 368.82650057 -280.16867709 368.80527204 C-281.89867668 368.80081703 -283.62870967 368.8030474 -285.35868764 368.81277519 C-299.15327869 368.88437145 -310.19423333 367.1653267 -320.53833008 357.29052734 C-329.29401088 348.11873498 -332.15464416 338.1086762 -332.04626465 325.63964844 C-332.05250461 324.51911764 -332.05874457 323.39858685 -332.06517363 322.24410057 C-332.08103386 318.51716987 -332.06852608 314.79089953 -332.0559082 311.06396484 C-332.06133241 308.38069777 -332.06831292 305.69747505 -332.07714844 303.01422119 C-332.09487666 296.49946815 -332.09111926 289.98490009 -332.07949787 283.47013998 C-332.07044127 278.17252181 -332.06924915 272.87495525 -332.07359314 267.57733154 C-332.07451254 266.44365758 -332.07451254 266.44365758 -332.07545051 265.28708112 C-332.07672949 263.75142303 -332.07802635 262.21576494 -332.07934088 260.68010688 C-332.09072998 246.30136123 -332.07765925 231.92271782 -332.05613941 217.54398894 C-332.03826993 205.22312245 -332.04137451 192.90240674 -332.05981445 180.58154297 C-332.08125075 166.2520557 -332.0896315 151.92265788 -332.0773654 137.59315681 C-332.07609129 136.06334561 -332.0748338 134.53353438 -332.07359314 133.00372314 C-332.07297604 132.25114963 -332.07235894 131.49857611 -332.07172313 130.72319734 C-332.0682785 125.43578392 -332.07407939 120.14842754 -332.08351135 114.86102295 C-332.09476345 108.41190124 -332.09162422 101.96297412 -332.07038838 95.51387453 C-332.05992074 92.227326 -332.05785805 88.94116581 -332.06898499 85.65460968 C-332.07995924 82.08322177 -332.06615252 78.51273704 -332.04626465 74.94140625 C-332.05518754 73.91483099 -332.06411042 72.88825573 -332.0733037 71.83057213 C-331.95250963 60.60267346 -328.3054618 51.42679007 -320.53833008 43.29052734 C-311.35017954 34.51923051 -301.34209321 31.66824016 -288.85139465 31.80950928 C-287.72718619 31.80609158 -286.60297772 31.80267388 -285.44470233 31.79915261 C-281.70587055 31.79260337 -277.9677687 31.81450185 -274.22900391 31.83642578 C-271.53774408 31.8375549 -268.84652794 31.83709497 -266.15527344 31.83465576 C-260.37571068 31.83256585 -254.59632959 31.84503701 -248.81681252 31.86760712 C-240.4607968 31.90021757 -232.10486827 31.91054334 -223.74879583 31.91555908 C-210.18925169 31.92429761 -196.62980421 31.95087387 -183.0703125 31.98876953 C-169.90430177 32.02552707 -156.73831736 32.05382047 -143.57226562 32.07080078 C-142.75970579 32.07185168 -141.94714596 32.07290257 -141.1099631 32.07398531 C-137.03328879 32.07920574 -132.95661429 32.0842605 -128.87993968 32.08923292 C-95.09933307 32.13065 -61.31884345 32.20105894 -27.53833008 32.29052734 C-27.55573242 31.25992188 -27.57313477 30.22931641 -27.59106445 29.16748047 C-27.60513899 27.80225019 -27.61878847 26.43701547 -27.63208008 25.07177734 C-27.65093262 24.05519043 -27.65093262 24.05519043 -27.67016602 23.01806641 C-27.72010054 16.17703591 -26.33533092 12.22183094 -21.66723633 7.32958984 C-14.70037445 0.87635295 -9.28144154 -0.00842899 0 0 Z M-9.53833008 19.29052734 C-12.87501143 24.78358782 -11.8726894 31.77943432 -11.85400391 38.01000977 C-11.8508445 40.2179505 -11.8743267 42.42454888 -11.8996582 44.63232422 C-11.90193168 46.04833817 -11.90263447 47.46435569 -11.90161133 48.88037109 C-11.90459229 50.15775146 -11.90757324 51.43513184 -11.91064453 52.7512207 C-11.49885123 56.66582233 -10.73275131 59.02688327 -8.53833008 62.29052734 C-3.98537442 64.86602158 0.66657463 64.57964695 5.74658203 64.56518555 C6.67401718 64.57029648 7.60145233 64.57540741 8.55699158 64.58067322 C11.61773155 64.59455463 14.67824599 64.59361358 17.73901367 64.59130859 C19.86983829 64.5951962 22.00066214 64.599531 24.13148499 64.60429382 C28.595983 64.61175283 33.06040193 64.61146696 37.52490234 64.60620117 C43.24252915 64.60040576 48.9598321 64.61734098 54.67740536 64.64054585 C59.07749826 64.65528592 63.4775132 64.65615452 67.87762642 64.65303612 C69.98552657 64.65354915 72.09343111 64.65878348 74.2013073 64.66884804 C77.15020606 64.68120077 80.09847442 64.67442762 83.04736328 64.6628418 C83.9156073 64.67048553 84.78385132 64.67812927 85.67840576 64.68600464 C90.67260158 64.64269149 94.14436968 64.08576035 98.46166992 61.29052734 C101.79835127 55.79746687 100.79602925 48.80162036 100.77734375 42.57104492 C100.77418434 40.36310419 100.79766655 38.1565058 100.82299805 35.94873047 C100.82527152 34.53271652 100.82597431 33.116699 100.82495117 31.70068359 C100.82793213 30.42330322 100.83091309 29.14592285 100.83398438 27.82983398 C100.42219107 23.91523236 99.65609116 21.55417142 97.46166992 18.29052734 C92.90871427 15.71503311 88.25676522 16.00140774 83.17675781 16.01586914 C81.78560509 16.00820274 81.78560509 16.00820274 80.36634827 16.00038147 C77.30560829 15.98650006 74.24509385 15.98744111 71.18432617 15.98974609 C69.05350155 15.98585849 66.9226777 15.98152368 64.79185486 15.97676086 C60.32735684 15.96930186 55.86293791 15.96958773 51.3984375 15.97485352 C45.6808107 15.98064892 39.96350775 15.96371371 34.24593449 15.94050884 C29.84584159 15.92576877 25.44582664 15.92490017 21.04571342 15.92801857 C18.93781327 15.92750554 16.82990873 15.92227121 14.72203255 15.91220665 C11.77313379 15.89985391 8.82486543 15.90662706 5.87597656 15.91821289 C4.57361053 15.90674728 4.57361053 15.90674728 3.24493408 15.89505005 C-1.74926173 15.9383632 -5.22102984 16.49529433 -9.53833008 19.29052734 Z M-309.78833008 57.72802734 C-315.8463905 65.16220071 -315.68667505 73.4817442 -315.67204285 82.67024231 C-315.6743084 83.71440817 -315.67657396 84.75857403 -315.67890817 85.83438128 C-315.68523732 89.33255125 -315.6844195 92.83068236 -315.68359375 96.32885742 C-315.68658591 98.8372757 -315.68998858 101.34569351 -315.69377136 103.85411072 C-315.70169164 109.96041133 -315.70482577 116.06669772 -315.70538374 122.173003 C-315.70585936 127.13798268 -315.70791643 132.10295918 -315.71108437 137.06793785 C-315.71988833 151.15330688 -315.72450415 165.23866829 -315.72375389 179.32404009 C-315.72371394 180.08295403 -315.72367398 180.84186797 -315.72363281 181.6237793 C-315.72359193 182.38362288 -315.72355105 183.14346645 -315.72350893 183.9263356 C-315.72310254 196.2386201 -315.73267093 208.55087402 -315.74677118 220.86314968 C-315.76114439 233.51387409 -315.76804084 246.1645836 -315.7671774 258.81531638 C-315.76684576 265.91428812 -315.7695786 273.01322778 -315.78035545 280.11219215 C-315.79042721 286.78933498 -315.79011544 293.4663989 -315.78283882 300.14354897 C-315.78179301 302.59247435 -315.78415565 305.04140396 -315.79019928 307.49032211 C-315.79792251 310.83691479 -315.79327199 314.18327377 -315.78556824 317.52986145 C-315.7907118 318.49563592 -315.79585536 319.46141039 -315.80115479 320.45645076 C-315.75355751 329.83317462 -314.84118787 338.02554711 -307.89770508 344.91943359 C-301.11320753 351.04023029 -294.48408226 352.41687321 -285.42766762 352.41357517 C-284.21743325 352.41556622 -283.00719888 352.41755727 -281.76029074 352.41960865 C-280.42593786 352.41675601 -279.09158516 352.41381043 -277.75723267 352.41078186 C-276.33312281 352.41121809 -274.90901304 352.41209396 -273.48490369 352.41337103 C-269.57630811 352.41560577 -265.66773997 352.41160865 -261.75914788 352.40659297 C-257.54244504 352.40227402 -253.32574374 352.40373592 -249.10903931 352.40449524 C-241.80487324 352.40501956 -234.5007161 352.40188237 -227.19655228 352.3962574 C-216.63596084 352.38812994 -206.07537372 352.3855259 -195.51477949 352.38426941 C-178.38086292 352.38208085 -161.2469511 352.37542608 -144.11303711 352.3659668 C-127.46915714 352.35678761 -110.82527847 352.34970925 -94.18139648 352.34545898 C-93.15544635 352.34519626 -92.12949621 352.34493354 -91.07245667 352.34466285 C-85.92555998 352.34335781 -80.77866327 352.34209411 -75.63176656 352.34085095 C-32.93395017 352.33048445 9.76385741 352.31204942 52.46166992 352.29052734 C52.46166992 320.61052734 52.46166992 288.93052734 52.46166992 256.29052734 C84.14166992 256.29052734 115.82166992 256.29052734 148.46166992 256.29052734 C148.51994103 223.80713376 148.51994103 223.80713376 148.55932617 191.32373047 C148.5711924 178.07672578 148.58514073 164.82974654 148.61254883 151.58276367 C148.63250064 141.93497143 148.64539063 132.28719984 148.64984691 122.63938755 C148.65245124 117.53228158 148.65856041 112.42523468 148.67313004 107.31814766 C148.68674221 102.50753054 148.69088521 97.69699662 148.68788528 92.88636208 C148.68843382 91.12438759 148.69238954 89.36241021 148.70008087 87.60045242 C149.19131727 71.46997795 149.19131727 71.46997795 142.46166992 57.29052734 C135.7944218 50.67090242 129.52864146 48.24467985 120.08666992 48.22802734 C118.89041992 48.24865234 117.69416992 48.26927734 116.46166992 48.29052734 C116.43588867 49.28052734 116.41010742 50.27052734 116.38354492 51.29052734 C116.07012591 59.59613116 115.77510881 66.73119171 109.81713867 73.02880859 C103.25066311 79.02304228 97.56991114 79.58890712 88.92333984 79.58105469 C87.86256729 79.58777191 86.80179474 79.59448914 85.70887756 79.60140991 C82.20325023 79.62040254 78.69781425 79.62431485 75.19213867 79.62646484 C72.7522219 79.63289211 70.3123059 79.63962042 67.87239075 79.64663696 C62.75719415 79.65861307 57.6420651 79.66231746 52.52685547 79.66113281 C45.97983035 79.66092966 39.43323949 79.6882269 32.88631725 79.72267723 C27.84619669 79.74494092 22.8061807 79.7489705 17.76601601 79.74791336 C15.35274065 79.7502703 12.93946245 79.75909897 10.52623558 79.77457809 C7.14657779 79.79422544 3.76785724 79.78840398 0.38818359 79.77636719 C-1.09976212 79.79322571 -1.09976212 79.79322571 -2.61776733 79.8104248 C-9.74374299 79.74609917 -15.10554506 78.25279549 -20.56176758 73.54443359 C-21.0077832 72.98626953 -21.45379883 72.42810547 -21.91333008 71.85302734 C-22.60555664 71.01964844 -22.60555664 71.01964844 -23.31176758 70.16943359 C-26.3594088 65.50091313 -26.91212533 60.94696404 -27.16333008 55.47802734 C-27.20200195 54.78515625 -27.24067383 54.09228516 -27.28051758 53.37841797 C-27.37406576 51.6828572 -27.45725371 49.98673022 -27.53833008 48.29052734 C-61.01716835 48.24473257 -94.49599882 48.20949933 -127.97486147 48.18839668 C-131.92887905 48.18589532 -135.88289657 48.18330667 -139.83691406 48.18066406 C-141.01765632 48.17987713 -141.01765632 48.17987713 -142.22225196 48.1790743 C-154.96170512 48.17037574 -167.70114019 48.15460879 -180.44058263 48.13622175 C-193.51599844 48.11750743 -206.5914048 48.10640738 -219.66683346 48.10235035 C-227.73267068 48.09960848 -235.79845678 48.09095372 -243.86427826 48.07469441 C-250.05298848 48.06285581 -256.24165987 48.06161988 -262.43037987 48.06431198 C-264.96638046 48.06376195 -267.50238299 48.05978629 -270.03837204 48.05211639 C-273.50351175 48.04215077 -276.96843363 48.04456455 -280.43357849 48.05001831 C-281.43457327 48.04419263 -282.43556805 48.03836694 -283.466896 48.03236473 C-294.15325826 48.07775406 -302.35247929 49.48587948 -309.78833008 57.72802734 Z M68.46166992 272.29052734 C68.46166992 298.69052734 68.46166992 325.09052734 68.46166992 352.29052734 C77.51604492 352.33177734 86.57041992 352.37302734 95.89916992 352.41552734 C100.16165649 352.44283936 100.16165649 352.44283936 104.51025391 352.47070312 C106.78442191 352.47654911 109.05859202 352.48164442 111.33276367 352.48583984 C112.4958606 352.49607178 113.65895752 352.50630371 114.8572998 352.5168457 C123.96385032 352.51878347 132.17566405 352.28124329 139.46166992 346.29052734 C146.51014439 339.19134442 148.59781604 332.46711354 148.57519531 322.46875 C148.57501404 320.76440796 148.57501404 320.76440796 148.5748291 319.02563477 C148.56971313 317.84718994 148.56459717 316.66874512 148.55932617 315.45458984 C148.55831909 314.35977295 148.55731201 313.26495605 148.55627441 312.13696289 C148.55105843 308.06314032 148.53709719 303.98933274 148.52416992 299.91552734 C148.49323242 286.24115234 148.49323242 286.24115234 148.46166992 272.29052734 C122.06166992 272.29052734 95.66166992 272.29052734 68.46166992 272.29052734 Z " fill="#F37324" transform="translate(339.538330078125,71.70947265625)"/>
<path d="M0 0 C5.28 0 10.56 0 16 0 C16 10.56 16 21.12 16 32 C21.28 32 26.56 32 32 32 C32 21.44 32 10.88 32 0 C37.28 0 42.56 0 48 0 C48 10.56 48 21.12 48 32 C53.28 32 58.56 32 64 32 C64 21.44 64 10.88 64 0 C69.28 0 74.56 0 80 0 C80 10.56 80 21.12 80 32 C85.28 32 90.56 32 96 32 C96 21.44 96 10.88 96 0 C101.28 0 106.56 0 112 0 C112 10.56 112 21.12 112 32 C117.28 32 122.56 32 128 32 C128 21.44 128 10.88 128 0 C133.28 0 138.56 0 144 0 C144 10.56 144 21.12 144 32 C145.98 32 147.96 32 150 32 C154.75733745 34.47381547 157.52618453 37.24266255 160 42 C160 43.98 160 45.96 160 48 C170.56 48 181.12 48 192 48 C192 53.28 192 58.56 192 64 C181.44 64 170.88 64 160 64 C160 69.28 160 74.56 160 80 C170.56 80 181.12 80 192 80 C192 85.28 192 90.56 192 96 C181.44 96 170.88 96 160 96 C160 101.28 160 106.56 160 112 C170.56 112 181.12 112 192 112 C192 117.28 192 122.56 192 128 C181.44 128 170.88 128 160 128 C160 133.28 160 138.56 160 144 C170.56 144 181.12 144 192 144 C192 149.28 192 154.56 192 160 C181.44 160 170.88 160 160 160 C160 165.28 160 170.56 160 176 C170.56 176 181.12 176 192 176 C192 181.28 192 186.56 192 192 C181.44 192 170.88 192 160 192 C160 193.98 160 195.96 160 198 C157.52618453 202.75733745 154.75733745 205.52618453 150 208 C148.02 208 146.04 208 144 208 C144 218.56 144 229.12 144 240 C138.72 240 133.44 240 128 240 C128 229.44 128 218.88 128 208 C122.72 208 117.44 208 112 208 C112 218.56 112 229.12 112 240 C106.72 240 101.44 240 96 240 C96 229.44 96 218.88 96 208 C90.72 208 85.44 208 80 208 C80 218.56 80 229.12 80 240 C74.72 240 69.44 240 64 240 C64 229.44 64 218.88 64 208 C58.72 208 53.44 208 48 208 C48 218.56 48 229.12 48 240 C42.72 240 37.44 240 32 240 C32 229.44 32 218.88 32 208 C26.72 208 21.44 208 16 208 C16 218.56 16 229.12 16 240 C10.72 240 5.44 240 0 240 C0 229.44 0 218.88 0 208 C-1.98 208 -3.96 208 -6 208 C-10.75733745 205.52618453 -13.52618453 202.75733745 -16 198 C-16 196.02 -16 194.04 -16 192 C-26.56 192 -37.12 192 -48 192 C-48 186.72 -48 181.44 -48 176 C-37.44 176 -26.88 176 -16 176 C-16 170.72 -16 165.44 -16 160 C-26.56 160 -37.12 160 -48 160 C-48 154.72 -48 149.44 -48 144 C-37.44 144 -26.88 144 -16 144 C-16 138.72 -16 133.44 -16 128 C-26.56 128 -37.12 128 -48 128 C-48 122.72 -48 117.44 -48 112 C-37.44 112 -26.88 112 -16 112 C-16 106.72 -16 101.44 -16 96 C-26.56 96 -37.12 96 -48 96 C-48 90.72 -48 85.44 -48 80 C-37.44 80 -26.88 80 -16 80 C-16 74.72 -16 69.44 -16 64 C-26.56 64 -37.12 64 -48 64 C-48 58.72 -48 53.44 -48 48 C-37.44 48 -26.88 48 -16 48 C-16 46.02 -16 44.04 -16 42 C-13.52618453 37.24266255 -10.75733745 34.47381547 -6 32 C-4.02 32 -2.04 32 0 32 C0 21.44 0 10.88 0 0 Z M0 48 C0 95.52 0 143.04 0 192 C47.52 192 95.04 192 144 192 C144 144.48 144 96.96 144 48 C96.48 48 48.96 48 0 48 Z " fill="#F37324" transform="translate(104,168)"/>
<path d="M0 0 C36.96 0 73.92 0 112 0 C112 36.96 112 73.92 112 112 C75.04 112 38.08 112 0 112 C0 75.04 0 38.08 0 0 Z " fill="#F37324" transform="translate(120,232)"/>
<path d="M0 0 C47.52 0 95.04 0 144 0 C144 21.12 144 42.24 144 64 C96.48 64 48.96 64 0 64 C0 42.88 0 21.76 0 0 Z " fill="#F37324" transform="translate(328,248)"/>
<path d="M0 0 C8.34468007 4.97590182 13.53387008 11.86345977 16.109375 21.2578125 C17.10789012 32.35758522 16.45884702 41.9922991 9.359375 51.0703125 C3.68970122 57.1408723 -3.36319277 60.85433149 -11.66015625 61.59375 C-19.4412515 61.76746925 -26.16911331 61.58646603 -32.890625 57.2578125 C-33.59703125 56.82210937 -34.3034375 56.38640625 -35.03125 55.9375 C-41.93709584 51.25687115 -45.68778524 45.25759899 -47.890625 37.2578125 C-48.88914012 26.15803978 -48.24009702 16.5233259 -41.140625 7.4453125 C-30.84272373 -3.5807232 -13.59449082 -6.52353083 0 0 Z M-29.265625 20.8828125 C-31.46970393 25.46051489 -31.6877889 29.26333661 -30.890625 34.2578125 C-28.56093569 39.09639798 -25.72921048 41.92812319 -20.890625 44.2578125 C-15.89614911 45.0549764 -12.09332739 44.83689143 -7.515625 42.6328125 C-3.93154787 39.39007605 -1.29527259 36.79305354 -0.5078125 31.859375 C-0.25178581 26.17558256 -0.95435568 22.60842595 -4.890625 18.2578125 C-9.24123845 14.32154318 -12.80839506 13.61897331 -18.4921875 13.875 C-23.42586604 14.66246009 -26.02288855 17.29873537 -29.265625 20.8828125 Z " fill="#F37324" transform="translate(359.890625,346.7421875)"/>
<path d="M0 0 C8.34468007 4.97590182 13.53387008 11.86345977 16.109375 21.2578125 C17.10789012 32.35758522 16.45884702 41.9922991 9.359375 51.0703125 C3.68970122 57.1408723 -3.36319277 60.85433149 -11.66015625 61.59375 C-19.4412515 61.76746925 -26.16911331 61.58646603 -32.890625 57.2578125 C-33.59703125 56.82210937 -34.3034375 56.38640625 -35.03125 55.9375 C-41.93709584 51.25687115 -45.68778524 45.25759899 -47.890625 37.2578125 C-48.88914012 26.15803978 -48.24009702 16.5233259 -41.140625 7.4453125 C-30.84272373 -3.5807232 -13.59449082 -6.52353083 0 0 Z M-29.265625 20.8828125 C-31.46970393 25.46051489 -31.6877889 29.26333661 -30.890625 34.2578125 C-28.56093569 39.09639798 -25.72921048 41.92812319 -20.890625 44.2578125 C-15.89614911 45.0549764 -12.09332739 44.83689143 -7.515625 42.6328125 C-3.93154787 39.39007605 -1.29527259 36.79305354 -0.5078125 31.859375 C-0.25178581 26.17558256 -0.95435568 22.60842595 -4.890625 18.2578125 C-9.24123845 14.32154318 -12.80839506 13.61897331 -18.4921875 13.875 C-23.42586604 14.66246009 -26.02288855 17.29873537 -29.265625 20.8828125 Z " fill="#F37324" transform="translate(455.890625,170.7421875)"/>
<path d="M0 0 C8.34468007 4.97590182 13.53387008 11.86345977 16.109375 21.2578125 C17.10789012 32.35758522 16.45884702 41.9922991 9.359375 51.0703125 C3.68970122 57.1408723 -3.36319277 60.85433149 -11.66015625 61.59375 C-19.4412515 61.76746925 -26.16911331 61.58646603 -32.890625 57.2578125 C-33.59703125 56.82210937 -34.3034375 56.38640625 -35.03125 55.9375 C-41.93709584 51.25687115 -45.68778524 45.25759899 -47.890625 37.2578125 C-48.88914012 26.15803978 -48.24009702 16.5233259 -41.140625 7.4453125 C-30.84272373 -3.5807232 -13.59449082 -6.52353083 0 0 Z M-29.265625 20.8828125 C-31.46970393 25.46051489 -31.6877889 29.26333661 -30.890625 34.2578125 C-28.56093569 39.09639798 -25.72921048 41.92812319 -20.890625 44.2578125 C-15.89614911 45.0549764 -12.09332739 44.83689143 -7.515625 42.6328125 C-3.93154787 39.39007605 -1.29527259 36.79305354 -0.5078125 31.859375 C-0.25178581 26.17558256 -0.95435568 22.60842595 -4.890625 18.2578125 C-9.24123845 14.32154318 -12.80839506 13.61897331 -18.4921875 13.875 C-23.42586604 14.66246009 -26.02288855 17.29873537 -29.265625 20.8828125 Z " fill="#F37324" transform="translate(375.890625,170.7421875)"/>
<path d="M0 0 C5.82485779 3.51996782 10.54466582 8.98962934 12.5625 15.5 C13.36764105 23.33608208 13.68710392 31.11922577 8.5625 37.5 C3.75801361 42.54521222 -0.59927055 46.10562995 -7.70703125 46.8359375 C-16.22326573 46.92983204 -22.11345494 46.6177288 -28.40234375 40.62890625 C-34.7841668 33.72505269 -35.91792252 28.29832071 -35.7421875 18.9453125 C-35.04689797 11.08319245 -31.38995981 6.95041296 -25.53515625 1.9453125 C-18.47077988 -2.92213491 -7.84396301 -3.47595223 0 0 Z " fill="#F37324" transform="translate(459.4375,361.5)"/>
<path d="M0 0 C5.82485779 3.51996782 10.54466582 8.98962934 12.5625 15.5 C13.36764105 23.33608208 13.68710392 31.11922577 8.5625 37.5 C3.75801361 42.54521222 -0.59927055 46.10562995 -7.70703125 46.8359375 C-16.22326573 46.92983204 -22.11345494 46.6177288 -28.40234375 40.62890625 C-34.7841668 33.72505269 -35.91792252 28.29832071 -35.7421875 18.9453125 C-35.04689797 11.08319245 -31.38995981 6.95041296 -25.53515625 1.9453125 C-18.47077988 -2.92213491 -7.84396301 -3.47595223 0 0 Z M-16.8125 17.125 C-18.92456506 20.21186432 -19.04945145 21.8282913 -18.4375 25.5 C-16.9375 28 -16.9375 28 -14.4375 29.5 C-10.7657913 30.11195145 -9.14936432 29.98706506 -6.0625 27.875 C-3.95043494 24.78813568 -3.82554855 23.1717087 -4.4375 19.5 C-5.9375 17 -5.9375 17 -8.4375 15.5 C-12.1092087 14.88804855 -13.72563568 15.01293494 -16.8125 17.125 Z " fill="#F37324" transform="translate(75.4375,137.5)"/>
<path d="M0 0 C5.28 0 10.56 0 16 0 C16 5.28 16 10.56 16 16 C10.72 16 5.44 16 0 16 C0 10.72 0 5.44 0 0 Z " fill="#F37324" transform="translate(408,104)"/>
<path d="M0 0 C5.28 0 10.56 0 16 0 C16 5.28 16 10.56 16 16 C10.72 16 5.44 16 0 16 C0 10.72 0 5.44 0 0 Z " fill="#F37324" transform="translate(376,104)"/>
<path d="M0 0 C5.28 0 10.56 0 16 0 C16 5.28 16 10.56 16 16 C10.72 16 5.44 16 0 16 C0 10.72 0 5.44 0 0 Z " fill="#F37324" transform="translate(344,104)"/>
</svg>
