<?xml version="1.0" encoding="UTF-8"?>
<svg version="1.1" xmlns="http://www.w3.org/2000/svg" width="512" height="512">
<path d="M0 0 C5.28 0 10.56 0 16 0 C16 13.2 16 26.4 16 40 C21.28 40 26.56 40 32 40 C32 26.8 32 13.6 32 0 C37.28 0 42.56 0 48 0 C48 13.2 48 26.4 48 40 C53.28 40 58.56 40 64 40 C64 26.8 64 13.6 64 0 C69.28 0 74.56 0 80 0 C80 13.2 80 26.4 80 40 C85.28 40 90.56 40 96 40 C96 26.8 96 13.6 96 0 C101.28 0 106.56 0 112 0 C112 13.2 112 26.4 112 40 C117.28 40 122.56 40 128 40 C128 26.8 128 13.6 128 0 C133.28 0 138.56 0 144 0 C144 13.2 144 26.4 144 40 C149.28 40 154.56 40 160 40 C160 26.8 160 13.6 160 0 C165.28 0 170.56 0 176 0 C176 13.2 176 26.4 176 40 C181.28 40 186.56 40 192 40 C192 26.8 192 13.6 192 0 C197.28 0 202.56 0 208 0 C208 13.2 208 26.4 208 40 C213.28 40 218.56 40 224 40 C224 26.8 224 13.6 224 0 C229.28 0 234.56 0 240 0 C240 13.2 240 26.4 240 40 C245.28 40 250.56 40 256 40 C256 26.8 256 13.6 256 0 C261.28 0 266.56 0 272 0 C272 13.2 272 26.4 272 40 C277.28 40 282.56 40 288 40 C288 26.8 288 13.6 288 0 C293.28 0 298.56 0 304 0 C304 13.2 304 26.4 304 40 C307.96 40 311.92 40 316 40 C320 44 320 44 320 56 C333.2 56 346.4 56 360 56 C360 61.28 360 66.56 360 72 C346.8 72 333.6 72 320 72 C320 77.28 320 82.56 320 88 C333.2 88 346.4 88 360 88 C360 93.28 360 98.56 360 104 C346.8 104 333.6 104 320 104 C320 109.28 320 114.56 320 120 C333.2 120 346.4 120 360 120 C360 125.28 360 130.56 360 136 C346.8 136 333.6 136 320 136 C320 141.28 320 146.56 320 152 C333.2 152 346.4 152 360 152 C360 157.28 360 162.56 360 168 C346.8 168 333.6 168 320 168 C320 173.28 320 178.56 320 184 C333.2 184 346.4 184 360 184 C360 189.28 360 194.56 360 200 C346.8 200 333.6 200 320 200 C320 205.28 320 210.56 320 216 C333.2 216 346.4 216 360 216 C360 221.28 360 226.56 360 232 C346.8 232 333.6 232 320 232 C320 237.28 320 242.56 320 248 C333.2 248 346.4 248 360 248 C360 253.28 360 258.56 360 264 C346.8 264 333.6 264 320 264 C320 269.28 320 274.56 320 280 C333.2 280 346.4 280 360 280 C360 285.28 360 290.56 360 296 C346.8 296 333.6 296 320 296 C320 301.28 320 306.56 320 312 C333.2 312 346.4 312 360 312 C360 317.28 360 322.56 360 328 C346.8 328 333.6 328 320 328 C320 333.28 320 338.56 320 344 C333.2 344 346.4 344 360 344 C360 349.28 360 354.56 360 360 C346.8 360 333.6 360 320 360 C320 363.96 320 367.92 320 372 C318.68 373.32 317.36 374.64 316 376 C312.04 376 308.08 376 304 376 C304 389.2 304 402.4 304 416 C298.72 416 293.44 416 288 416 C288 402.8 288 389.6 288 376 C282.72 376 277.44 376 272 376 C272 389.2 272 402.4 272 416 C266.72 416 261.44 416 256 416 C256 402.8 256 389.6 256 376 C250.72 376 245.44 376 240 376 C240 389.2 240 402.4 240 416 C234.72 416 229.44 416 224 416 C224 402.8 224 389.6 224 376 C218.72 376 213.44 376 208 376 C208 389.2 208 402.4 208 416 C202.72 416 197.44 416 192 416 C192 402.8 192 389.6 192 376 C186.72 376 181.44 376 176 376 C176 389.2 176 402.4 176 416 C170.72 416 165.44 416 160 416 C160 402.8 160 389.6 160 376 C154.72 376 149.44 376 144 376 C144 389.2 144 402.4 144 416 C138.72 416 133.44 416 128 416 C128 402.8 128 389.6 128 376 C122.72 376 117.44 376 112 376 C112 389.2 112 402.4 112 416 C106.72 416 101.44 416 96 416 C96 402.8 96 389.6 96 376 C90.72 376 85.44 376 80 376 C80 389.2 80 402.4 80 416 C74.72 416 69.44 416 64 416 C64 402.8 64 389.6 64 376 C58.72 376 53.44 376 48 376 C48 389.2 48 402.4 48 416 C42.72 416 37.44 416 32 416 C32 402.8 32 389.6 32 376 C26.72 376 21.44 376 16 376 C16 389.2 16 402.4 16 416 C10.72 416 5.44 416 0 416 C0 402.8 0 389.6 0 376 C-3.96 376 -7.92 376 -12 376 C-13.32 374.68 -14.64 373.36 -16 372 C-16 368.04 -16 364.08 -16 360 C-29.2 360 -42.4 360 -56 360 C-56 354.72 -56 349.44 -56 344 C-42.8 344 -29.6 344 -16 344 C-16 338.72 -16 333.44 -16 328 C-29.2 328 -42.4 328 -56 328 C-56 322.72 -56 317.44 -56 312 C-42.8 312 -29.6 312 -16 312 C-16 306.72 -16 301.44 -16 296 C-29.2 296 -42.4 296 -56 296 C-56 290.72 -56 285.44 -56 280 C-42.8 280 -29.6 280 -16 280 C-16 274.72 -16 269.44 -16 264 C-29.2 264 -42.4 264 -56 264 C-56 258.72 -56 253.44 -56 248 C-42.8 248 -29.6 248 -16 248 C-16 242.72 -16 237.44 -16 232 C-29.2 232 -42.4 232 -56 232 C-56 226.72 -56 221.44 -56 216 C-42.8 216 -29.6 216 -16 216 C-16 210.72 -16 205.44 -16 200 C-29.2 200 -42.4 200 -56 200 C-56 194.72 -56 189.44 -56 184 C-42.8 184 -29.6 184 -16 184 C-16 178.72 -16 173.44 -16 168 C-29.2 168 -42.4 168 -56 168 C-56 162.72 -56 157.44 -56 152 C-42.8 152 -29.6 152 -16 152 C-16 146.72 -16 141.44 -16 136 C-29.2 136 -42.4 136 -56 136 C-56 130.72 -56 125.44 -56 120 C-42.8 120 -29.6 120 -16 120 C-16 114.72 -16 109.44 -16 104 C-29.2 104 -42.4 104 -56 104 C-56 98.72 -56 93.44 -56 88 C-42.8 88 -29.6 88 -16 88 C-16 82.72 -16 77.44 -16 72 C-29.2 72 -42.4 72 -56 72 C-56 66.72 -56 61.44 -56 56 C-42.8 56 -29.6 56 -16 56 C-16 52.04 -16 48.08 -16 44 C-14.68 42.68 -13.36 41.36 -12 40 C-8.04 40 -4.08 40 0 40 C0 26.8 0 13.6 0 0 Z M16 72 C16 77.28 16 82.56 16 88 C21.28 88 26.56 88 32 88 C32 82.72 32 77.44 32 72 C26.72 72 21.44 72 16 72 Z M272 72 C272 77.28 272 82.56 272 88 C277.28 88 282.56 88 288 88 C288 82.72 288 77.44 288 72 C282.72 72 277.44 72 272 72 Z M69.67871094 102.93310547 C68.88478943 103.7175705 68.09086792 104.50203552 67.27288818 105.31027222 C66.01632416 106.57594528 66.01632416 106.57594528 64.734375 107.8671875 C63.85976624 108.73892609 62.98515747 109.61066467 62.08404541 110.50881958 C60.24146729 112.34936041 58.40265551 114.19367848 56.56738281 116.04150391 C54.68710492 117.93253556 52.80355382 119.81900834 50.91113281 121.69775391 C48.17743749 124.41292053 45.45433194 127.13826533 42.734375 129.8671875 C41.88856873 130.70692108 41.04276245 131.54665466 40.17132568 132.41183472 C39.39001282 133.20260406 38.60869995 133.99337341 37.80371094 134.80810547 C36.77162506 135.84377151 36.77162506 135.84377151 35.71868896 136.90036011 C32.12254706 141.29359423 31.74861704 145.37450404 31.73930359 150.93882751 C31.73547804 151.62490304 31.73165249 152.31097857 31.72771102 153.01784426 C31.71741625 155.31007047 31.72136639 157.60204455 31.7253418 159.89428711 C31.72099338 161.54044323 31.7158098 163.18659732 31.70985413 164.83274841 C31.69646715 169.29967771 31.6958851 173.76652237 31.69841743 178.23346782 C31.69948729 181.96363778 31.69460339 185.69379063 31.689812 189.42395693 C31.67871796 198.22430137 31.6782789 207.02460312 31.68432617 215.82495117 C31.69036746 224.90166351 31.67805079 233.97822089 31.6567561 243.05490679 C31.63914018 250.85037599 31.63313871 258.64579587 31.63639385 266.44128424 C31.63820678 271.096076 31.6355694 275.7507572 31.62167931 280.40553093 C31.60910566 284.78289516 31.61104064 289.1600178 31.62409019 293.53737831 C31.6264565 295.14258277 31.62371933 296.74780421 31.61546707 298.3529892 C31.60500216 300.54700242 31.61309737 302.74020456 31.6257782 304.93418884 C31.62561046 306.16105376 31.62544271 307.38791868 31.62526989 308.65196133 C32.05160353 312.46105348 32.87437182 314.81189028 35 318 C39.25841021 320.72798992 44.16869625 320.28239138 49.06480408 320.26069641 C50.43693576 320.26643473 50.43693576 320.26643473 51.83678728 320.27228898 C54.9028873 320.28261022 57.96879974 320.27862847 61.03491211 320.2746582 C63.23278476 320.27900514 65.4306559 320.28418823 67.62852478 320.29014587 C73.59953256 320.30354865 79.5704771 320.30411314 85.54149699 320.30158257 C90.52427067 320.30051379 95.50703149 320.30539383 100.48980242 320.310188 C112.91567334 320.32192229 125.34151605 320.32105555 137.76738799 320.31463119 C148.55568543 320.30946173 159.34389258 320.32071846 170.13217216 320.33972941 C181.21326731 320.35910647 192.29432575 320.36707261 203.37543875 320.36360615 C209.59517764 320.36179147 215.81483382 320.36444803 222.03455925 320.37832069 C227.88273327 320.39087633 233.7307263 320.3889763 239.57889748 320.37590981 C241.72592098 320.37353959 243.87295712 320.37629457 246.01996613 320.38453293 C248.9495927 320.39496422 251.87860788 320.38692862 254.80821228 320.3742218 C255.65889705 320.38159609 256.50958182 320.38897037 257.38604492 320.39656812 C262.27965097 320.35187918 265.86174522 319.90286579 270 317 C272.60235141 312.86499955 272.28336465 308.28496791 272.26069641 303.5426178 C272.26452196 302.69320018 272.26834751 301.84378256 272.27228898 300.96862501 C272.28260411 298.12363294 272.27862965 295.27884325 272.2746582 292.43383789 C272.27900548 290.39359856 272.28418868 288.35336087 272.29014587 286.31312561 C272.303545 280.77185486 272.30411355 275.23065228 272.30158257 269.68936849 C272.30051354 265.06448168 272.30539447 260.43960871 272.310188 255.81472486 C272.32128623 244.90487443 272.32171872 233.99505843 272.31567383 223.08520508 C272.30963202 211.82724149 272.32194964 200.56940283 272.3432439 189.31146055 C272.36085132 179.64764358 272.36686263 169.9838664 272.36360615 160.32003397 C272.36179187 154.54742343 272.36444402 148.77490201 272.37832069 143.00230598 C272.39088047 137.57436446 272.38897239 132.1466179 272.37590981 126.71867943 C272.37354049 124.72646138 272.37629137 122.73422969 272.38453293 120.74202728 C272.39497194 118.02257966 272.3869226 115.3037897 272.3742218 112.58436584 C272.38159609 111.79593625 272.38897037 111.00750665 272.39656812 110.19518524 C272.34948154 105.40318904 271.74522168 101.97177313 269 98 C265.0658281 95.58766969 260.94667913 95.71495141 256.45375061 95.73930359 C255.70233825 95.73547804 254.95092588 95.73165249 254.17674345 95.72771102 C251.66341173 95.71740704 249.15030957 95.72136818 246.63696289 95.7253418 C244.83317351 95.72099389 243.02938598 95.71581048 241.2256012 95.70985413 C236.32893556 95.69646165 231.43234709 95.69588571 226.5356667 95.69841743 C222.44761007 95.69948692 218.35956907 95.69460435 214.27151579 95.689812 C204.62736908 95.67871607 194.98326133 95.67827998 185.33911133 95.68432617 C175.38989911 95.6903677 165.44082825 95.67805059 155.49164015 95.6567561 C146.94883194 95.63914403 138.40606874 95.6331381 129.86324304 95.63639385 C124.76132421 95.63820739 119.65950623 95.63556332 114.55760384 95.62167931 C109.76000951 95.60911194 104.96263569 95.61103475 100.16504478 95.62409019 C98.4050349 95.62645786 96.64500955 95.62371448 94.8850174 95.61546707 C92.48083311 95.60501391 90.07739069 95.61308836 87.67323303 95.6257782 C86.97818619 95.61840391 86.28313935 95.61102963 85.56703049 95.60343188 C78.7809778 95.67869105 74.38428796 98.24377633 69.67871094 102.93310547 Z M16 328 C16 333.28 16 338.56 16 344 C21.28 344 26.56 344 32 344 C32 338.72 32 333.44 32 328 C26.72 328 21.44 328 16 328 Z M272 328 C272 333.28 272 338.56 272 344 C277.28 344 282.56 344 288 344 C288 338.72 288 333.44 288 328 C282.72 328 277.44 328 272 328 Z " fill="#F37324" transform="translate(104,48)"/>
<path d="M0 0 C0.75638711 -0.00350607 1.51277423 -0.00701215 2.29208216 -0.01062447 C4.83515579 -0.01995323 7.37800116 -0.01501137 9.9210844 -0.01015663 C11.759361 -0.01389215 13.59763601 -0.01849327 15.4359085 -0.02388728 C20.49428691 -0.03614488 25.55259933 -0.03585356 30.61098921 -0.03349853 C36.0637401 -0.03309106 41.51646964 -0.04412281 46.96921062 -0.05361366 C57.6547246 -0.0702397 68.34021651 -0.07572393 79.02574233 -0.07683842 C87.70976914 -0.07778812 96.39378865 -0.08189452 105.07781315 -0.08823967 C129.68828817 -0.10585635 154.29874675 -0.11509 178.909228 -0.11357872 C179.90431272 -0.11351889 179.90431272 -0.11351889 180.91950017 -0.11345784 C182.26103627 -0.11337697 183.60257238 -0.11329337 184.94410849 -0.11320706 C205.8164818 -0.11198153 226.68879012 -0.12699458 247.56114483 -0.15435219 C271.00866959 -0.1850724 294.45615872 -0.20225938 317.90370578 -0.20042574 C330.31962197 -0.19976121 342.7354649 -0.20528116 355.15136433 -0.22678185 C365.72195607 -0.24496941 376.29244132 -0.24936091 386.86304191 -0.235763 C392.25742712 -0.22922116 397.65160787 -0.22916007 403.04597378 -0.2464695 C407.98386355 -0.26215139 412.92138593 -0.25938656 417.85926648 -0.24190123 C419.6459248 -0.23882056 421.43261021 -0.24250372 423.21923659 -0.25362138 C441.17507946 -0.35795818 441.17507946 -0.35795818 448.68394756 6.22211266 C449.22277569 6.87308922 449.76160381 7.52406578 450.31676006 8.19476891 C450.87105694 8.84316734 451.42535381 9.49156578 451.99644756 10.15961266 C455.25074934 14.88274793 455.73201959 19.19660697 455.69902897 24.81550884 C455.70253504 25.57189596 455.70604112 26.32828307 455.70965344 27.107591 C455.7189822 29.65066463 455.71404033 32.19351 455.7091856 34.73659325 C455.71292112 36.57486985 455.71752224 38.41314486 455.72291625 40.25141734 C455.73517384 45.30979575 455.73488253 50.36810817 455.73252749 55.42649806 C455.73212003 60.87924895 455.74315178 66.33197848 455.75264263 71.78471947 C455.76926867 82.47023344 455.7747529 93.15572535 455.77586739 103.84125117 C455.77681709 112.52527798 455.78092348 121.20929749 455.78726864 129.89332199 C455.80488531 154.50379701 455.81411897 179.11425559 455.81260769 203.72473685 C455.8125678 204.38812666 455.81252791 205.05151647 455.81248681 205.73500901 C455.81240594 207.07654512 455.81232234 208.41808123 455.81223603 209.75961734 C455.8110105 230.63199064 455.82602355 251.50429896 455.85338116 272.37665367 C455.88410137 295.82417843 455.90128835 319.27166757 455.89945471 342.71921462 C455.89879018 355.13513082 455.90431012 367.55097374 455.92581081 379.96687317 C455.94399838 390.53746491 455.94838988 401.10795016 455.93479197 411.67855076 C455.92825013 417.07293596 455.92818904 422.46711671 455.94549847 427.86148262 C455.96118036 432.7993724 455.95841553 437.73689478 455.9409302 442.67477532 C455.93784953 444.46143364 455.94153269 446.24811905 455.95265035 448.03474543 C456.05698714 465.9905883 456.05698714 465.9905883 449.47691631 473.49945641 C448.82593975 474.03828453 448.17496319 474.57711266 447.50426006 475.13226891 C446.85586163 475.68656578 446.20746319 476.24086266 445.53941631 476.81195641 C440.81628104 480.06625818 436.502422 480.54752843 430.88352013 480.51453781 C430.12713301 480.51804389 429.3707459 480.52154996 428.59143797 480.52516228 C426.04836434 480.53449104 423.50551897 480.52954918 420.96243572 480.52469444 C419.12415912 480.52842996 417.28588411 480.53303108 415.44761163 480.53842509 C410.38923322 480.55068269 405.3309208 480.55039137 400.27253091 480.54803634 C394.81978002 480.54762887 389.36705049 480.55866062 383.9143095 480.56815147 C373.22879553 480.58477751 362.54330362 480.59026174 351.8577778 480.59137623 C343.17375099 480.59232593 334.48973148 480.59643233 325.80570698 480.60277748 C301.19523196 480.62039416 276.58477338 480.62962781 251.97429212 480.62811653 C251.31090231 480.62807664 250.6475125 480.62803675 249.96401996 480.62799565 C248.62248385 480.62791478 247.28094774 480.62783118 245.93941163 480.62774487 C225.06703833 480.62651935 204.19473001 480.64153239 183.3223753 480.66889 C159.87485053 480.69961021 136.4273614 480.71679719 112.97981435 480.71496356 C100.56389815 480.71429902 88.14805523 480.71981897 75.7321558 480.74131966 C65.16156406 480.75950722 54.59107881 480.76389872 44.02047821 480.75030081 C38.62609301 480.74375897 33.23191226 480.74369788 27.83754635 480.76100731 C22.89965657 480.7766892 17.96213419 480.77392437 13.02425364 480.75643905 C11.23759533 480.75335838 9.45090992 480.75704153 7.66428354 480.7681592 C-10.29155933 480.87249599 -10.29155933 480.87249599 -17.80042744 474.29242516 C-18.33925556 473.64144859 -18.87808369 472.99047203 -19.43323994 472.31976891 C-19.98753681 471.67137047 -20.54183369 471.02297203 -21.11292744 470.35492516 C-24.36722921 465.63178988 -24.84849946 461.31793084 -24.81550884 455.69902897 C-24.82076795 454.5644483 -24.82076795 454.5644483 -24.82613331 453.40694681 C-24.83546207 450.86387318 -24.83052021 448.32102781 -24.82566547 445.77794456 C-24.82940099 443.93966797 -24.83400211 442.10139295 -24.83939612 440.26312047 C-24.85165372 435.20474206 -24.85136241 430.14642964 -24.84900737 425.08803976 C-24.8485999 419.63528886 -24.85963165 414.18255933 -24.86912251 408.72981834 C-24.88574854 398.04430437 -24.89123277 387.35881246 -24.89234726 376.67328664 C-24.89329696 367.98925983 -24.89740336 359.30524032 -24.90374851 350.62121582 C-24.92136519 326.0107408 -24.93059884 301.40028222 -24.92908756 276.78980096 C-24.92904767 276.12641115 -24.92900778 275.46302134 -24.92896668 274.7795288 C-24.92888581 273.43799269 -24.92880221 272.09645658 -24.9287159 270.75492048 C-24.92749038 249.88254717 -24.94250342 229.01023885 -24.96986103 208.13788414 C-25.00058124 184.69035938 -25.01776822 161.24287024 -25.01593459 137.79532319 C-25.01527006 125.37940699 -25.02079 112.96356407 -25.04229069 100.54766464 C-25.06047825 89.9770729 -25.06486975 79.40658765 -25.05127184 68.83598705 C-25.04473 63.44160185 -25.04466891 58.0474211 -25.06197834 52.65305519 C-25.07766023 47.71516542 -25.0748954 42.77764304 -25.05741008 37.83976249 C-25.05432941 36.05310417 -25.05801256 34.26641876 -25.06913023 32.47979238 C-25.17346702 14.52394951 -25.17346702 14.52394951 -18.59339619 7.01508141 C-17.94241962 6.47625328 -17.29144306 5.93742516 -16.62073994 5.38226891 C-15.9723415 4.82797203 -15.32394306 4.27367516 -14.65589619 3.70258141 C-9.93276091 0.44827963 -5.61890187 -0.03299062 0 0 Z M-6.55823994 19.25726891 C-8.96296317 23.20014765 -8.80970716 27.06561974 -8.81271553 31.60245228 C-8.81592201 32.33580135 -8.81912849 33.06915043 -8.82243213 33.8247222 C-8.83075321 36.28941311 -8.82480051 38.75386234 -8.81893635 41.21855736 C-8.82195607 43.00051187 -8.82584464 44.78246508 -8.83052891 46.56441599 C-8.84084074 51.46703769 -8.83861901 56.36958653 -8.83434832 61.27221429 C-8.83188688 66.55723388 -8.84088799 71.84223565 -8.84838581 77.12724876 C-8.86115086 87.48322725 -8.86292427 97.83917983 -8.86058555 108.19516485 C-8.85880432 116.61032982 -8.86054784 125.02548691 -8.86480999 133.44065094 C-8.86540518 134.63719721 -8.86600037 135.83374348 -8.86661359 137.06654872 C-8.86782531 139.49713067 -8.86903945 141.92771261 -8.87025597 144.35829455 C-8.88113838 167.16448033 -8.87896564 189.97065134 -8.87287112 212.77683795 C-8.86770081 233.65289924 -8.87895919 254.52891387 -8.89796934 275.40496593 C-8.91732836 296.82793271 -8.92560718 318.25087739 -8.92184609 339.67385298 C-8.91993117 351.70627633 -8.92244991 363.73865997 -8.93656063 375.7710762 C-8.94845072 386.01379738 -8.949906 396.25645441 -8.93777046 406.49917644 C-8.9318652 411.72720913 -8.93082772 416.95512434 -8.94277287 422.18314934 C-8.95357562 426.96668258 -8.9505955 431.74999944 -8.93651118 436.53352232 C-8.93384873 438.26630787 -8.93627898 439.99911007 -8.94424704 441.73187935 C-8.9543128 444.08359729 -8.94596613 446.4345572 -8.93297005 448.78624439 C-8.93302506 450.09356917 -8.93308008 451.40089394 -8.93313676 452.74783462 C-8.51693421 456.6439346 -7.74467564 459.00884991 -5.55823994 462.25726891 C-1.61536119 464.66199214 2.2501109 464.50873613 6.78694344 464.5117445 C7.52029251 464.51495098 8.25364158 464.51815746 9.00921336 464.5214611 C11.47390426 464.52978218 13.9383535 464.52382948 16.40304852 464.51796532 C18.18500302 464.52098504 19.96695624 464.52487361 21.74890715 464.52955788 C26.65152885 464.53986971 31.55407768 464.53764798 36.45670545 464.53337729 C41.74172503 464.53091585 47.02672681 464.53991696 52.31173992 464.54741478 C62.66771841 464.56017983 73.02367098 464.56195324 83.37965601 464.55961452 C91.79482098 464.55783329 100.20997807 464.5595768 108.6251421 464.56383896 C109.82168837 464.56443415 111.01823463 464.56502934 112.25103988 464.56564256 C114.68162183 464.56685428 117.11220377 464.56806841 119.54278571 464.56928494 C142.34897149 464.58016735 165.15514249 464.57799461 187.96132911 464.57190009 C208.83739039 464.56672978 229.71340503 464.57798816 250.58945709 464.59699831 C272.01242386 464.61635733 293.43536855 464.62463615 314.85834414 464.62087506 C326.89076749 464.61896014 338.92315113 464.62147888 350.95556736 464.6355896 C361.19828854 464.64747969 371.44094557 464.64893497 381.68366759 464.63679943 C386.91170029 464.63089417 392.1396155 464.62985669 397.3676405 464.64180183 C402.15117374 464.65260459 406.93449059 464.64962447 411.71801347 464.63554015 C413.45079902 464.6328777 415.18360123 464.63530795 416.9163705 464.64327601 C419.26808845 464.65334177 421.61904835 464.6449951 423.97073555 464.63199902 C425.27806033 464.63205403 426.5853851 464.63210905 427.93232578 464.63216573 C431.82842576 464.21596318 434.19334107 463.44370461 437.44176006 461.25726891 C439.8464833 457.31439016 439.69322729 453.44891807 439.69623566 448.91208553 C439.69944213 448.17873646 439.70264861 447.44538738 439.70595226 446.68981561 C439.71427334 444.22512471 439.70832064 441.76067547 439.70245647 439.29598045 C439.70547619 437.51402594 439.70936477 435.73207273 439.71404904 433.95012182 C439.72436087 429.04750012 439.72213913 424.14495128 439.71786845 419.24232352 C439.715407 413.95730393 439.72440811 408.67230216 439.73190594 403.38728905 C439.74467099 393.03131056 439.7464444 382.67535799 439.74410567 372.31937296 C439.74232444 363.90420799 439.74406796 355.4890509 439.74833012 347.07388687 C439.7492229 345.27906747 439.7492229 345.27906747 439.75013372 343.44798909 C439.75134544 341.01740714 439.75255957 338.5868252 439.7537761 336.15624326 C439.7646585 313.35005748 439.76248577 290.54388647 439.75639125 267.73769986 C439.75122094 246.86163858 439.76247931 225.98562394 439.78148947 205.10957188 C439.80084849 183.6866051 439.80912731 162.26366042 439.80536622 140.84068483 C439.8034513 128.80826148 439.80597004 116.77587784 439.82008076 104.74346161 C439.83197085 94.50074043 439.83342612 84.2580834 439.82129059 74.01536138 C439.81538533 68.78732868 439.81434784 63.55941347 439.82629299 58.33138847 C439.83709575 53.54785523 439.83411563 48.76453837 439.82003131 43.9810155 C439.81736886 42.24822995 439.81979911 40.51542774 439.82776717 38.78265847 C439.83783293 36.43094052 439.82948626 34.07998061 439.81649017 31.72829342 C439.8165727 29.76730625 439.8165727 29.76730625 439.81665689 27.76670319 C439.40045433 23.87060321 438.62819577 21.5056879 436.44176006 18.25726891 C432.49888132 15.85254567 428.63340923 16.00580168 424.09657669 16.00279331 C422.99655308 15.99798359 422.99655308 15.99798359 421.87430677 15.99307671 C419.40961586 15.98475563 416.94516663 15.99070833 414.48047161 15.99657249 C412.6985171 15.99355278 410.91656389 15.9896642 409.13461298 15.98497993 C404.23199128 15.9746681 399.32944244 15.97688983 394.42681468 15.98116052 C389.14179509 15.98362196 383.85679332 15.97462086 378.5717802 15.96712303 C368.21580172 15.95435798 357.85984914 15.95258457 347.50386412 15.95492329 C339.08869915 15.95670453 330.67354206 15.95496101 322.25837803 15.95069885 C321.06183176 15.95010366 319.86528549 15.94950847 318.63248025 15.94889525 C316.2018983 15.94768353 313.77131636 15.9464694 311.34073441 15.94525287 C288.53454863 15.93437046 265.72837763 15.9365432 242.92219102 15.94263772 C222.04612973 15.94780803 201.17011509 15.93654965 180.29406304 15.9175395 C158.87109626 15.89818048 137.44815157 15.88990166 116.02517599 15.89366275 C103.99275264 15.89557767 91.960369 15.89305893 79.92795277 15.87894821 C69.68523158 15.86705812 59.44257456 15.86560285 49.19985253 15.87773838 C43.97181984 15.88364364 38.74390463 15.88468112 33.51587963 15.87273598 C28.73234639 15.86193322 23.94902953 15.86491334 19.16550665 15.87899766 C17.4327211 15.88166011 15.6999189 15.87922986 13.96714962 15.8712618 C11.61543168 15.86119604 9.26447177 15.86954271 6.91278458 15.8825388 C5.6054598 15.88248378 4.29813502 15.88242876 2.95119435 15.88237208 C-0.94490563 16.29857463 -3.30982094 17.0708332 -6.55823994 19.25726891 Z " fill="#F37324" transform="translate(40.55823993682861,15.742731094360352)"/>
<path d="M0 0 C3.48260797 0.11417467 6.96563994 0.12322133 10.44983053 0.14445734 C17.0179992 0.19994167 23.58063782 0.34695697 30.14639318 0.52874815 C38.37042109 0.75140433 46.5953882 0.84858127 54.82168722 0.94618464 C69.46269109 1.12043996 84.09166521 1.48106581 98.73184347 1.82509089 C98.73184347 20.30509089 98.73184347 38.78509089 98.73184347 57.82509089 C79.10684347 58.13759089 79.10684347 58.13759089 72.94424582 58.21303034 C71.31873449 58.24533834 69.6932439 58.27871461 68.06778097 58.31337214 C67.2348049 58.31961603 66.40182882 58.32585993 65.54361105 58.33229303 C58.71314949 58.50015514 53.94647565 60.17985591 49.08340597 65.18055964 C48.47110128 65.80253229 47.8587966 66.42450495 47.22793722 67.06532526 C46.61047628 67.70792292 45.99301535 68.35052057 45.35684347 69.01259089 C44.71617941 69.6667901 44.07551535 70.32098932 43.41543722 70.99501276 C41.84716055 72.5984001 40.28636129 74.2083796 38.73184347 75.82509089 C39.64307074 76.93375073 40.56111006 78.03681307 41.48184347 79.13759089 C41.99231222 79.7524737 42.50278097 80.36735651 43.02871847 81.00087214 C44.78722881 82.88441418 46.63103983 84.34082745 48.73184347 85.82509089 C49.36896261 84.96754206 50.00608175 84.10999323 50.66250753 83.22645807 C54.75187459 78.21037542 58.61881416 73.79247327 65.28457785 72.83485651 C70.38069272 72.50725183 75.3848281 72.77804976 80.48184347 73.07509089 C89.51559347 73.44634089 89.51559347 73.44634089 98.73184347 73.82509089 C98.73184347 92.30509089 98.73184347 110.78509089 98.73184347 129.82509089 C51.21184347 129.82509089 3.69184347 129.82509089 -45.26815653 129.82509089 C-45.26815653 119.26509089 -45.26815653 108.70509089 -45.26815653 97.82509089 C-37.39397575 97.57229317 -29.53472269 97.33221905 -21.66000223 97.20408869 C-17.99244087 97.141072 -14.32828345 97.05713039 -10.66268778 96.91981745 C16.28444558 95.9354625 16.28444558 95.9354625 23.18979025 102.1714654 C25.36536792 104.59514365 27.09541475 107.00662045 28.73184347 109.82509089 C29.2399758 109.40324518 29.74810812 108.98139948 30.27163839 108.54677057 C31.48363384 107.54058568 32.69562928 106.53440078 33.90762472 105.52821589 C35.79286787 103.76811736 37.21183483 101.90174881 38.73184347 99.82509089 C36.34853743 97.35434464 33.94816401 94.90086977 31.54434347 92.45009089 C30.53404074 91.40208307 30.53404074 91.40208307 29.50332785 90.33290339 C28.84268332 89.66259089 28.18203878 88.99227839 27.50137472 88.30165339 C26.89914083 87.68370905 26.29690695 87.06576471 25.67642355 86.42909479 C21.55037129 83.02568446 17.51906504 82.56813493 12.28921652 82.50624323 C11.00826605 82.48637354 9.72731558 82.46650385 8.40754843 82.44603205 C7.01955478 82.43415745 5.63155931 82.42249448 4.24356222 82.41102839 C2.81580132 82.39230684 1.38805137 82.37273269 -0.03968668 82.35234308 C-3.78620799 82.30111988 -7.53276514 82.26144195 -11.27944803 82.22419977 C-15.78086978 82.17704009 -20.28211509 82.11548451 -24.78339243 82.05635309 C-31.61157552 81.96826042 -38.43972686 81.89841112 -45.26815653 81.82509089 C-45.26815653 71.26509089 -45.26815653 60.70509089 -45.26815653 49.82509089 C-40.1402659 49.78770807 -35.01237528 49.75032526 -29.72909403 49.71180964 C-26.47515454 49.68152375 -23.22126935 49.65037194 -19.96737528 49.61610651 C-14.80578237 49.56183418 -9.64429685 49.5107222 -4.482512 49.47865534 C-0.31965411 49.4525932 3.84284201 49.41217048 8.00547552 49.36190462 C9.59139004 49.34525553 11.1773671 49.33372906 12.76335669 49.32747698 C14.98972641 49.31781427 17.21517473 49.28973101 19.44131613 49.25746393 C21.33993902 49.24080935 21.33993902 49.24080935 23.27691793 49.2238183 C29.81211629 48.46960154 33.63281017 45.29646007 38.13028097 40.71962214 C38.85001593 39.99351992 38.85001593 39.99351992 39.58429098 39.25274897 C41.09906695 37.72132422 42.60301046 36.179755 44.10684347 34.63759089 C45.13869433 33.59067533 46.17124015 32.54444425 47.20449972 31.49891901 C49.72169537 28.94883789 52.22929251 26.38955475 54.73184347 23.82509089 C53.8206162 22.71643104 52.90257688 21.6133687 51.98184347 20.51259089 C51.47137472 19.89770807 50.96090597 19.28282526 50.43496847 18.64930964 C48.67486995 16.76406649 46.80850139 15.34509953 44.73184347 13.82509089 C44.31581869 14.42440424 43.89979391 15.02371759 43.47116232 15.64119196 C37.05439137 24.41223349 29.9096607 33.46864071 18.67559195 35.24679041 C9.45188277 36.2248772 0.14773301 35.71853198 -9.09078836 35.1983819 C-13.17902973 34.99073172 -17.26987129 34.90181985 -21.36190653 34.80165339 C-29.33762661 34.58952063 -37.30095048 34.25009849 -45.26815653 33.82509089 C-46.80789617 27.91325103 -46.88487395 22.8249832 -43.97400141 17.42372751 C-32.58364946 0.67634473 -19.02768963 -0.73146451 0 0 Z " fill="#F37324" transform="translate(229.2681565284729,190.17490911483765)"/>
<path d="M0 0 C28.00875 0.70125 56.0175 1.4025 84.875 2.125 C84.875 65.485 84.875 128.845 84.875 194.125 C16.235 194.125 -52.405 194.125 -123.125 194.125 C-123.82625 168.75625 -124.5275 143.3875 -125.25 117.25 C-125.55953613 109.3108252 -125.86907227 101.37165039 -126.18798828 93.19189453 C-127.70307444 31.45673415 -127.70307444 31.45673415 -111.5625 14.1875 C-86.40057771 -10.17845676 -30.07221978 -1.06085271 0 0 Z M-86.890625 26.4921875 C-87.41009705 27.00878937 -87.92956909 27.52539124 -88.46478271 28.05764771 C-89.55410318 29.14493807 -90.63969017 30.23598059 -91.72167969 31.33056641 C-93.37374924 32.99873705 -95.04126539 34.65025 -96.7109375 36.30078125 C-97.7717968 37.36362253 -98.83172535 38.42739382 -99.890625 39.4921875 C-100.63436371 40.22681717 -100.63436371 40.22681717 -101.39312744 40.97628784 C-105.70046427 45.37198464 -107.3712676 49.10896666 -107.38569641 55.24156189 C-107.39278122 56.24946274 -107.39986603 57.25736359 -107.40716553 58.29580688 C-107.40468811 59.39049286 -107.40221069 60.48517883 -107.3996582 61.61303711 C-107.40476913 62.77455795 -107.40988007 63.9360788 -107.41514587 65.13279724 C-107.42904709 68.97269848 -107.42808472 72.81242034 -107.42578125 76.65234375 C-107.42868543 78.64668788 -107.43159426 80.64103208 -107.435188 82.63537508 C-107.4462733 88.90431457 -107.44672606 95.17319413 -107.44067383 101.44213867 C-107.43463363 107.90135997 -107.44694829 114.36036345 -107.4682439 120.81954759 C-107.4858776 126.37300118 -107.49185849 131.92638555 -107.48860615 137.47986609 C-107.486796 140.79329188 -107.49072129 144.10652792 -107.50332069 147.41993523 C-107.51565052 151.1159839 -107.50891363 154.81152783 -107.49731445 158.50756836 C-107.50495819 159.6002301 -107.51260193 160.69289185 -107.52047729 161.81866455 C-107.48571967 169.42358286 -107.48571967 169.42358286 -104.125 176.125 C-100.19540072 178.15252695 -96.87336049 178.37798869 -92.48988342 178.38569641 C-91.83647632 178.38952196 -91.18306921 178.39334751 -90.50986189 178.39728898 C-88.32818788 178.40757846 -86.14677904 178.40363465 -83.96508789 178.3996582 C-82.39774839 178.40400692 -80.83041101 178.4091906 -79.26307678 178.41514587 C-75.01101551 178.42852968 -70.75904315 178.42911526 -66.50696492 178.42658257 C-62.95573825 178.42551249 -59.40452954 178.43039717 -55.85330671 178.435188 C-47.47486332 178.44628094 -39.09646476 178.44672171 -30.71801758 178.44067383 C-22.07755478 178.43463268 -13.43725477 178.4469491 -4.79681975 178.4682439 C2.62498002 178.48586203 10.04672798 178.49186094 17.46854788 178.48860615 C21.89977639 178.48679356 26.33088876 178.4894271 30.76209831 178.50332069 C34.92934803 178.51589796 39.09634402 178.51395597 43.26358986 178.50090981 C44.79139161 178.49854428 46.31921121 178.50127787 47.84699249 178.50953293 C49.93592192 178.52000462 52.0240006 178.51189745 54.11289978 178.4992218 C55.86470503 178.49947341 55.86470503 178.49947341 57.65190029 178.49973011 C61.39329585 178.06474091 63.73465859 177.20407223 66.875 175.125 C69.0031263 171.505669 69.12759405 168.23953407 69.13569641 164.0973053 C69.14278122 162.88746475 69.14986603 161.67762421 69.15716553 160.43112183 C69.15468811 159.11201813 69.15221069 157.79291443 69.1496582 156.43383789 C69.15400761 155.02413157 69.15919152 153.61442762 69.16514587 152.20472717 C69.1785223 148.38240154 69.17911608 144.56017487 69.17658257 140.7378304 C69.17551198 137.54449019 69.18039847 134.35116993 69.185188 131.15783399 C69.1962784 123.62319247 69.19672316 116.08860081 69.19067383 108.55395508 C69.184633 100.78599033 69.19694883 93.01820666 69.2182439 85.25027281 C69.23586721 78.57581175 69.24186012 71.9014083 69.23860615 65.22692484 C69.23679438 61.2428221 69.23941891 57.25884855 69.25332069 53.27476692 C69.26590643 49.52774485 69.26394807 45.78100484 69.25090981 42.03398705 C69.24742101 40.00745278 69.25871638 37.98090988 69.27047729 35.95440674 C69.26346298 34.74174637 69.25644867 33.529086 69.2492218 32.27967834 C69.24938954 31.22979768 69.24955729 30.17991701 69.24973011 29.09822178 C68.79528206 25.49249382 67.86177159 23.16808372 65.875 20.125 C62.33718919 18.06175529 59.19437943 17.87268362 55.15101624 17.86430359 C54.00848892 17.85721878 52.86596161 17.85013397 51.68881226 17.84283447 C50.44451447 17.84531189 49.20021667 17.84778931 47.91821289 17.8503418 C46.60063492 17.84523087 45.28305695 17.84011993 43.92555237 17.83485413 C40.31809431 17.82148205 36.71074114 17.82088343 33.10326314 17.82341743 C30.08886609 17.82448832 27.07449016 17.81960077 24.06009763 17.814812 C16.94735691 17.8037231 9.83466901 17.80327599 2.72192383 17.80932617 C-4.60979253 17.81536682 -11.94131703 17.80305133 -19.27300066 17.7817561 C-25.57379246 17.76412974 -31.87452326 17.75814036 -38.1753388 17.76139385 C-41.93587911 17.76320514 -45.69628253 17.76058592 -49.45680046 17.74667931 C-53.65093281 17.73174898 -57.84467552 17.7410801 -62.03881836 17.75268555 C-63.28109192 17.74504181 -64.52336548 17.73739807 -65.80328369 17.72952271 C-75.22570472 17.78722731 -80.22991413 19.74854438 -86.890625 26.4921875 Z " fill="#F37324" transform="translate(275.125,157.875)"/>
</svg>
