<?xml version="1.0" encoding="UTF-8"?>
<svg version="1.1" xmlns="http://www.w3.org/2000/svg" width="512" height="512">
<path d="M0 0 C1.20049406 -0.00872064 1.20049406 -0.00872064 2.42524052 -0.01761746 C5.12400532 -0.03228879 7.82187076 -0.01829931 10.52062988 -0.00457001 C12.46814186 -0.00917611 14.41565036 -0.01552706 16.36315155 -0.02347898 C21.72802851 -0.04023539 27.09262224 -0.03189731 32.45750046 -0.01953411 C38.23808498 -0.0105117 44.01861961 -0.02443935 49.79919434 -0.0354538 C61.12856818 -0.05327369 72.45783623 -0.04938359 83.78721428 -0.03780323 C92.99190008 -0.02878282 102.19655617 -0.02753887 111.40124512 -0.0318985 C113.3636556 -0.0328179 113.3636556 -0.0328179 115.36571074 -0.03375587 C118.02314568 -0.03503472 120.68058062 -0.03633158 123.33801556 -0.03764623 C147.56630949 -0.04913871 171.79454987 -0.03722043 196.02283466 -0.01627585 C218.1503859 0.00270724 240.27784507 0.00100876 262.40539551 -0.01811981 C287.25373009 -0.0395285 312.102013 -0.04796347 336.95035553 -0.03567076 C339.59821064 -0.03439651 342.24606577 -0.03313903 344.8939209 -0.0318985 C346.84829677 -0.03097285 346.84829677 -0.03097285 348.84215498 -0.03002849 C358.03959861 -0.02656961 367.23700966 -0.03241553 376.43444824 -0.04181671 C387.63759776 -0.05301593 398.84063513 -0.05004045 410.04377174 -0.02869374 C415.76371054 -0.01815534 421.4834621 -0.01410892 427.20339966 -0.02729034 C432.43410968 -0.03916237 437.66445797 -0.03273775 442.89513493 -0.01138014 C444.7927823 -0.00689197 446.69045991 -0.00922955 448.58808804 -0.01888329 C451.15755532 -0.03095757 453.72576562 -0.01866467 456.29516602 0 C457.41356542 -0.014047 457.41356542 -0.014047 458.55455875 -0.02837777 C461.83614702 0.01962848 463.84914618 0.30503229 466.60689878 2.13775301 C468.6158748 5.22239346 468.64885181 7.18233791 468.65094757 10.85651398 C468.66137856 12.17176811 468.67180955 13.48702225 468.68255663 14.84213257 C468.67390802 16.30538397 468.66488138 17.76863318 468.65551758 19.23188019 C468.66012472 20.78341254 468.66647638 22.33494053 468.67442656 23.88645935 C468.69116882 28.15680948 468.68285144 32.42680336 468.67048168 36.697155 C468.66145345 41.29981943 468.67538982 45.90242141 468.68640137 50.50507355 C468.70421505 59.52436315 468.70033394 68.54351983 468.6887508 77.56281471 C468.67972794 84.89107227 468.6784875 92.2192925 468.68284607 99.54755402 C468.683459 100.58939299 468.68407193 101.63123197 468.68470344 102.70464182 C468.6859823 104.82092477 468.68727916 106.93720771 468.6885938 109.05349064 C468.70000795 128.91148283 468.68687282 148.76940123 468.66539234 168.62738132 C468.64752061 185.6772252 468.65062448 202.72696015 468.66906738 219.77680206 C468.69045937 239.56231989 468.69890924 259.347773 468.68661833 279.13330078 C468.68534409 281.24192555 468.68408661 283.35055032 468.68284607 285.45917511 C468.68192042 287.0155191 468.68192042 287.0155191 468.68097606 288.60330439 C468.67751814 295.92523148 468.68336102 303.24711763 468.69276428 310.56903839 C468.70396708 319.48849573 468.7009805 328.40781221 468.67964131 337.32725334 C468.66910768 341.88065471 468.66504826 346.43382098 468.67823792 350.98722076 C468.69012002 355.15212073 468.68366895 359.31656675 468.66232771 363.48142529 C468.6578438 364.99145653 468.66016782 366.5015258 468.66983086 368.01153278 C468.68192501 370.05773418 468.66717531 372.10404236 468.65094757 374.15021515 C468.65029816 375.28872673 468.64964875 376.42723831 468.64897966 377.60025024 C468.14758301 380.50336456 468.14758301 380.50336456 466.60689878 382.86897612 C463.22531981 385.11627338 460.22100107 385.05603726 456.29516602 385.00672913 C455.09467196 385.01544977 455.09467196 385.01544977 453.8699255 385.02434659 C451.1711607 385.03901792 448.47329526 385.02502843 445.77453613 385.01129913 C443.82702416 385.01590523 441.87951565 385.02225618 439.93201447 385.03020811 C434.5671375 385.04696451 429.20254377 385.03862644 423.83766556 385.02626324 C418.05708103 385.01724083 412.2765464 385.03116848 406.49597168 385.04218292 C395.16659784 385.06000282 383.83732978 385.05611271 372.50795174 385.04453236 C363.30326593 385.03551194 354.09860985 385.034268 344.8939209 385.03862762 C343.58564724 385.03924056 342.27737359 385.03985349 340.92945528 385.04048499 C338.27202033 385.04176385 335.61458539 385.0430607 332.95715046 385.04437536 C308.72885652 385.05586783 284.50061615 385.04394956 260.27233136 385.02300497 C238.14478012 385.00402189 216.01732094 385.00572037 193.88977051 385.02484894 C169.04143593 385.04625763 144.19315301 385.0546926 119.34481049 385.04239988 C116.69695537 385.04112564 114.04910025 385.03986816 111.40124512 385.03862762 C109.44686925 385.03770197 109.44686925 385.03770197 107.45301104 385.03675762 C98.2555674 385.03329873 89.05815636 385.03914465 79.86071777 385.04854584 C68.65756825 385.05974505 57.45453088 385.05676958 46.25139427 385.03542286 C40.53145548 385.02488446 34.81170392 385.02083805 29.09176636 385.03401947 C23.86105633 385.0458915 18.63070804 385.03946687 13.40003109 385.01810926 C11.50238371 385.0136211 9.60470611 385.01595868 7.70707798 385.02561241 C5.1376107 385.03768669 2.56940039 385.0253938 0 385.00672913 C-1.11839941 385.02077612 -1.11839941 385.02077612 -2.25939274 385.0351069 C-5.54098101 384.98710064 -7.55398017 384.70169684 -10.31173277 382.86897612 C-12.32070878 379.78433567 -12.3536858 377.82439122 -12.35578156 374.15021515 C-12.36621254 372.83496101 -12.37664353 371.51970688 -12.38739061 370.16459656 C-12.37874201 368.70134515 -12.36971536 367.23809594 -12.36035156 365.77484894 C-12.36495871 364.22331659 -12.37131037 362.6717886 -12.37926054 361.12026978 C-12.3960028 356.84991965 -12.38768543 352.57992576 -12.37531567 348.30957413 C-12.36628744 343.7069097 -12.3802238 339.10430771 -12.39123535 334.50165558 C-12.40904903 325.48236597 -12.40516793 316.46320929 -12.39358479 307.44391441 C-12.38456193 300.11565685 -12.38332149 292.78743663 -12.38768005 285.45917511 C-12.38829299 284.41733613 -12.38890592 283.37549716 -12.38953742 282.30208731 C-12.39081629 280.18580436 -12.39211314 278.06952142 -12.39342779 275.95323849 C-12.40484193 256.0952463 -12.3917068 236.23732789 -12.37022632 216.3793478 C-12.35235459 199.32950393 -12.35545847 182.27976897 -12.37390137 165.22992706 C-12.39529335 145.44440923 -12.40374322 125.65895612 -12.39145231 105.87342834 C-12.39017808 103.76480358 -12.38892059 101.6561788 -12.38768005 99.54755402 C-12.38706295 98.50999135 -12.38644585 97.47242869 -12.38581005 96.40342474 C-12.38235213 89.08149764 -12.388195 81.75961149 -12.39759827 74.43769073 C-12.40880107 65.5182334 -12.40581448 56.59891692 -12.38447529 47.67947578 C-12.37394166 43.12607442 -12.36988225 38.57290814 -12.3830719 34.01950836 C-12.394954 29.8546084 -12.38850293 25.69016237 -12.36716169 21.52530384 C-12.36267778 20.01527259 -12.36500181 18.50520333 -12.37466484 16.99519634 C-12.386759 14.94899495 -12.3720093 12.90268677 -12.35578156 10.85651398 C-12.35513215 9.7180024 -12.35448274 8.57949081 -12.35381365 7.40647888 C-11.85241699 4.50336456 -11.85241699 4.50336456 -10.31173277 2.13775301 C-6.93015379 -0.10954425 -3.92583506 -0.04930814 0 0 Z M4.14758301 16.50336456 C4.14758301 32.34336456 4.14758301 48.18336456 4.14758301 64.50336456 C151.98758301 64.50336456 299.82758301 64.50336456 452.14758301 64.50336456 C452.14758301 48.66336456 452.14758301 32.82336456 452.14758301 16.50336456 C304.30758301 16.50336456 156.46758301 16.50336456 4.14758301 16.50336456 Z M4.14758301 80.50336456 C4.14758301 175.54336456 4.14758301 270.58336456 4.14758301 368.50336456 C151.98758301 368.50336456 299.82758301 368.50336456 452.14758301 368.50336456 C452.14758301 273.46336456 452.14758301 178.42336456 452.14758301 80.50336456 C304.30758301 80.50336456 156.46758301 80.50336456 4.14758301 80.50336456 Z " fill="#F37324" transform="translate(27.8524169921875,55.49663543701172)"/>
<path d="M0 0 C1.01766449 -0.00145523 2.03532898 -0.00291046 3.08383179 -0.00440979 C5.22356038 -0.0027577 7.36330171 0.00872563 9.50292969 0.02954102 C12.77069663 0.0585694 16.03684614 0.05011986 19.3046875 0.03710938 C21.39063285 0.04334549 23.47657311 0.05173543 25.5625 0.0625 C26.53450348 0.05956436 27.50650696 0.05662872 28.50796509 0.05360413 C35.09732945 0.14497899 39.67944511 0.96037184 44.4609375 5.87109375 C47.62363913 10.79085185 47.33971566 16.15682912 47.46484375 21.859375 C47.48562485 22.65135788 47.50640594 23.44334076 47.52781677 24.25932312 C47.59291554 26.77566303 47.65201173 29.29210247 47.7109375 31.80859375 C47.7541605 33.52019236 47.79777598 35.2317811 47.84179688 36.94335938 C47.94855597 41.12750359 48.04993385 45.31174737 48.1484375 49.49609375 C48.90987061 48.7189502 49.67130371 47.94180664 50.45581055 47.14111328 C53.290231 44.25227997 56.1346608 41.37347875 58.98217773 38.49755859 C60.2118089 37.25286675 61.43873079 36.00549221 62.6628418 34.75537109 C64.4256708 32.95604015 66.19810698 31.16667023 67.97265625 29.37890625 C68.51556808 28.82051056 69.05847992 28.26211487 69.61784363 27.6867981 C73.75306897 23.54977136 76.7816402 21.71125714 82.5859375 21.18359375 C90.11033209 21.84362836 94.39602322 26.30783363 99.4453125 31.4296875 C100.45757904 32.44120628 100.45757904 32.44120628 101.49029541 33.47315979 C102.9090868 34.89428316 104.32420713 36.31907998 105.73583984 37.74731445 C107.89650744 39.93164255 110.07025713 42.10227692 112.24609375 44.27148438 C113.62579501 45.65676073 115.00472812 47.04280265 116.3828125 48.4296875 C117.35622589 49.40173378 117.35622589 49.40173378 118.3493042 50.39341736 C118.9504303 51.00407547 119.5515564 51.61473358 120.17089844 52.24389648 C120.69907166 52.77667709 121.22724487 53.3094577 121.77142334 53.85838318 C124.40711625 56.99306565 125.4519997 59.7991392 125.5234375 63.87109375 C125.55179688 64.60070312 125.58015625 65.3303125 125.609375 66.08203125 C124.48521023 71.96960605 119.6483588 76.27623394 115.5078125 80.33203125 C114.98076721 80.85624664 114.45372192 81.38046204 113.91070557 81.92056274 C112.24463059 83.57554209 110.57170167 85.22338664 108.8984375 86.87109375 C107.75995415 87.99953356 106.62192872 89.12843556 105.484375 90.2578125 C102.71099238 93.00927583 99.93144516 95.75436758 97.1484375 98.49609375 C98.73712646 98.52582275 98.73712646 98.52582275 100.35791016 98.55615234 C104.3054085 98.63250069 108.25255223 98.721172 112.19970703 98.81347656 C113.90471369 98.85164594 115.60979756 98.88651941 117.31494141 98.91796875 C119.77274076 98.96388211 122.23001402 99.02183144 124.6875 99.08203125 C125.44398834 99.09358246 126.20047668 99.10513367 126.97988892 99.11703491 C133.92618646 99.30865222 139.09722941 100.585197 144.1484375 105.49609375 C146.88747559 110.34286525 146.47205807 115.57665949 146.484375 120.984375 C146.4910318 122.00154099 146.4976886 123.01870697 146.50454712 124.06669617 C146.5146575 126.21591386 146.51936464 128.36516285 146.51904297 130.5144043 C146.52340846 133.78682781 146.55972502 137.05789372 146.59765625 140.33007812 C146.60352641 142.4231725 146.60749447 144.51627324 146.609375 146.609375 C146.62374603 147.58046707 146.63811707 148.55155914 146.65292358 149.55207825 C146.61260122 155.60858327 145.94623272 160.59789153 142.1484375 165.49609375 C137.40475866 168.9793143 132.70082846 168.96374518 127.03125 169.0078125 C126.17409393 169.0257637 125.31693787 169.0437149 124.43380737 169.06221008 C121.71373314 169.1161078 118.9938323 169.15014233 116.2734375 169.18359375 C114.42185098 169.21678501 112.57028728 169.25127634 110.71875 169.28710938 C106.19543802 169.37182227 101.67217564 169.43873095 97.1484375 169.49609375 C97.89005127 170.22199707 98.63166504 170.94790039 99.39575195 171.69580078 C102.1598044 174.40532475 104.91372949 177.12495231 107.66479492 179.84765625 C108.85413613 181.02196297 110.04616277 182.1935566 111.2409668 183.36230469 C112.96345293 185.04817273 114.67586661 186.74374255 116.38671875 188.44140625 C116.91807938 188.95728302 117.44944 189.47315979 117.99690247 190.00466919 C122.29386208 194.29968262 125.57461599 198.74662198 125.5859375 204.99609375 C125.60527344 205.70765625 125.62460937 206.41921875 125.64453125 207.15234375 C124.33296572 213.34871632 118.94733363 218.00460114 114.625 222.3203125 C114.00120453 222.9483931 113.37740906 223.57647369 112.73471069 224.22358704 C111.42106096 225.54295221 110.10482001 226.85974196 108.78613281 228.17407227 C106.77777959 230.1792585 104.78313981 232.19742524 102.7890625 234.21679688 C101.50601961 235.50211243 100.22219139 236.78664463 98.9375 238.0703125 C98.34667633 238.67034592 97.75585266 239.27037933 97.14712524 239.88859558 C92.80759828 244.18047057 88.91349361 247.19983774 82.6484375 247.87109375 C75.84470898 247.14212284 71.71246346 243.49171749 67.09375 238.734375 C66.54733856 238.18371872 66.00092712 237.63306244 65.43795776 237.0657196 C63.70922548 235.32031099 61.99127042 233.56472384 60.2734375 231.80859375 C59.09705299 230.61714815 57.9199763 229.42638556 56.7421875 228.23632812 C53.86953754 225.33075566 51.00650061 222.41601283 48.1484375 219.49609375 C48.13385498 220.54998291 48.11927246 221.60387207 48.10424805 222.68969727 C48.04598805 226.62427588 47.96875846 230.55829868 47.88598633 234.49243164 C47.85286667 236.19058161 47.82479489 237.88883823 47.80200195 239.5871582 C47.76821581 242.03773162 47.71589111 244.48733906 47.66015625 246.9375 C47.65376633 247.68882706 47.6473764 248.44015411 47.64079285 249.21424866 C47.47260502 255.33382967 46.20351565 260.12964013 42.0859375 264.87109375 C39.01850686 267.44377752 37.17590909 267.63284555 33.24316406 267.68896484 C31.71082123 267.71305923 31.71082123 267.71305923 30.14752197 267.73764038 C25.46847152 267.78207116 20.78956366 267.82316256 16.11035156 267.84619141 C13.64280767 267.86274557 11.17531162 267.89002809 8.70800781 267.92822266 C5.15143944 267.98300505 1.59599606 268.0048695 -1.9609375 268.01953125 C-3.0611322 268.04220062 -4.1613269 268.06487 -5.29486084 268.08822632 C-13.84832719 268.0646541 -13.84832719 268.0646541 -17.46972656 265.21337891 C-20.57484499 261.67094675 -22.08066551 259.09666845 -22.17041016 254.37011719 C-22.19027985 253.56958923 -22.21014954 252.76906128 -22.23062134 251.9442749 C-22.24217255 251.08996887 -22.25372375 250.23566284 -22.265625 249.35546875 C-22.28499115 248.47328674 -22.3043573 247.59110474 -22.3243103 246.68218994 C-22.38399098 243.87025559 -22.43044533 241.05828005 -22.4765625 238.24609375 C-22.51475288 236.33722194 -22.55380523 234.42836716 -22.59375 232.51953125 C-22.68968308 227.84519079 -22.77375666 223.17076966 -22.8515625 218.49609375 C-23.64328857 219.30353027 -24.43501465 220.1109668 -25.25073242 220.94287109 C-28.1969766 223.94351556 -31.15322023 226.93413866 -34.11254883 229.921875 C-35.39068043 231.21507012 -36.66610361 232.51094806 -37.9387207 233.80957031 C-39.77105351 235.67839237 -41.61298889 237.53727136 -43.45703125 239.39453125 C-44.02181686 239.97480072 -44.58660248 240.55507019 -45.16850281 241.15292358 C-48.74749445 244.73341652 -51.78619157 247.23193252 -57.02734375 247.68359375 C-66.74428895 246.83091849 -71.84117842 240.7345004 -77.94140625 233.6875 C-82.58156057 228.46711053 -87.70581107 223.67338755 -92.73193359 218.82910156 C-93.49199707 218.08370117 -94.25206055 217.33830078 -95.03515625 216.5703125 C-95.72150146 215.90604248 -96.40784668 215.24177246 -97.11499023 214.55737305 C-100.01671081 211.11308416 -101.25011623 207.66704226 -100.9140625 203.18359375 C-99.36362832 193.51408406 -88.54844922 186.07075183 -81.9140625 179.49609375 C-80.9340094 178.52106989 -79.9541901 177.54581095 -78.97460938 176.5703125 C-76.60253937 174.20992757 -74.2281539 171.8519247 -71.8515625 169.49609375 C-73.03186035 169.48674805 -74.2121582 169.47740234 -75.42822266 169.46777344 C-79.82313248 169.42778727 -84.21734863 169.3620046 -88.61181641 169.28857422 C-90.51081404 169.26041455 -92.4099278 169.23917517 -94.30908203 169.22509766 C-97.04519888 169.20359857 -99.77992702 169.15691367 -102.515625 169.10546875 C-103.78160019 169.10362579 -103.78160019 169.10362579 -105.07315063 169.10174561 C-110.45583085 168.96913425 -113.60687747 168.10164844 -117.8515625 164.49609375 C-120.62714648 161.41899005 -121.22881653 159.46832354 -121.23974609 155.34790039 C-121.24920258 154.32326187 -121.25865906 153.29862335 -121.2684021 152.24293518 C-121.26232941 151.14182907 -121.25625671 150.04072296 -121.25 148.90625 C-121.25287018 147.76957382 -121.25574036 146.63289764 -121.25869751 145.46177673 C-121.26073846 143.05857851 -121.2552065 140.65536369 -121.24267578 138.25219727 C-121.22663824 134.57595583 -121.2425167 130.90081635 -121.26171875 127.22460938 C-121.25973603 124.88932049 -121.25589177 122.55403229 -121.25 120.21875 C-121.25607269 119.11966812 -121.26214539 118.02058624 -121.2684021 116.88819885 C-121.25894562 115.86040817 -121.24948914 114.83261749 -121.23974609 113.77368164 C-121.23616592 112.42277184 -121.23616592 112.42277184 -121.23251343 111.04457092 C-120.76630079 107.92571181 -119.67516757 106.0493767 -117.8515625 103.49609375 C-112.32182485 99.5260257 -107.2255123 99.32439573 -100.5859375 99.1796875 C-99.79253967 99.1589064 -98.99914185 99.13812531 -98.18170166 99.11671448 C-95.65507406 99.05149402 -93.12834529 98.99246231 -90.6015625 98.93359375 C-88.88540634 98.89038235 -87.16926028 98.84676722 -85.453125 98.80273438 C-81.25270704 98.69584092 -77.05218761 98.59449646 -72.8515625 98.49609375 C-73.62870605 97.73466064 -74.40584961 96.97322754 -75.20654297 96.1887207 C-78.09537628 93.35430025 -80.9741775 90.50987045 -83.85009766 87.66235352 C-85.0947895 86.43272235 -86.34216404 85.20580046 -87.59228516 83.98168945 C-89.3916161 82.21886045 -91.18098602 80.44642427 -92.96875 78.671875 C-93.52714569 78.12896317 -94.08554138 77.58605133 -94.66085815 77.02668762 C-98.77101803 72.91831744 -100.58817787 69.86655539 -101.2265625 64.12109375 C-100.44679712 56.58336175 -95.48953346 51.68293749 -90.328125 46.57421875 C-89.70432953 45.9475531 -89.08053406 45.32088745 -88.43783569 44.67523193 C-87.125326 43.3606923 -85.80906641 42.04988709 -84.48925781 40.74267578 C-82.47884042 38.74835344 -80.48497081 36.73848831 -78.4921875 34.7265625 C-77.20929431 33.4456514 -75.92547099 32.16567105 -74.640625 30.88671875 C-74.04980133 30.28982239 -73.45897766 29.69292603 -72.85025024 29.07794189 C-68.35111103 24.6538083 -64.4064096 21.82575144 -57.9765625 20.99609375 C-47.89189304 21.51201514 -40.43967494 31.55757153 -33.8515625 38.30859375 C-32.78065484 39.39457777 -31.70904548 40.4798703 -30.63671875 41.56445312 C-28.03352805 44.20040986 -25.43995896 46.8455987 -22.8515625 49.49609375 C-22.83697998 48.31055908 -22.82239746 47.12502441 -22.80737305 45.90356445 C-22.74930312 41.49570898 -22.67207066 37.08835971 -22.58911133 32.6809082 C-22.55590288 30.77506744 -22.52785825 28.86912929 -22.50512695 26.96313477 C-22.47150582 24.2197936 -22.41918655 21.47734153 -22.36328125 18.734375 C-22.35689133 17.88523026 -22.3505014 17.03608551 -22.34391785 16.16120911 C-22.22923241 11.52346556 -22.09616612 8.07799768 -18.8515625 4.49609375 C-12.95285076 0.17769501 -7.09991069 -0.08240077 0 0 Z M-5.8515625 17.49609375 C-5.87734375 20.74710938 -5.903125 23.998125 -5.9296875 27.34765625 C-5.96812796 30.5051327 -6.01328188 33.66244696 -6.05908203 36.81982422 C-6.0872631 39.00984928 -6.10849184 41.19997552 -6.12255859 43.39013672 C-6.14402727 46.54316902 -6.19069925 49.6949886 -6.2421875 52.84765625 C-6.24341614 53.82288239 -6.24464478 54.79810852 -6.24591064 55.80288696 C-6.37123112 61.65307448 -6.97165342 65.02960297 -10.8515625 69.49609375 C-14.72864694 71.86542313 -19.41391 72.44300694 -23.8515625 71.49609375 C-28.66184314 68.61397015 -32.42759864 65.18760562 -36.34375 61.19921875 C-36.93455353 60.60558533 -37.52535706 60.0119519 -38.13406372 59.40032959 C-40.00301632 57.52026388 -41.86485791 55.63333415 -43.7265625 53.74609375 C-44.99953493 52.46308007 -46.27296795 51.1805232 -47.546875 49.8984375 C-50.65378917 46.76958075 -53.75434925 43.63455241 -56.8515625 40.49609375 C-60.61760119 42.05892357 -62.98795401 44.40244125 -65.8359375 47.28515625 C-66.52662323 47.98008682 -66.52662323 47.98008682 -67.23126221 48.6890564 C-68.69281328 50.16175273 -70.14723418 51.64126778 -71.6015625 53.12109375 C-72.59458861 54.12415697 -73.58807339 55.12676632 -74.58203125 56.12890625 C-77.01054191 58.5794021 -79.43270925 61.03606045 -81.8515625 63.49609375 C-80.49083389 66.57957197 -78.9915458 68.55083872 -76.5078125 70.81640625 C-75.84289795 71.4295166 -75.1779834 72.04262695 -74.49291992 72.67431641 C-73.78627197 73.31675293 -73.07962402 73.95918945 -72.3515625 74.62109375 C-70.89870296 75.96372289 -69.44687996 77.30747453 -67.99609375 78.65234375 C-67.28791504 79.3071875 -66.57973633 79.96203125 -65.85009766 80.63671875 C-63.20785552 83.09497872 -60.61194024 85.59014439 -58.0390625 88.12109375 C-57.29011719 88.85585937 -56.54117188 89.590625 -55.76953125 90.34765625 C-51.256665 95.40280175 -50.25995337 99.16235119 -50.421875 105.828125 C-51.09547572 110.01057308 -52.7444196 111.68486922 -55.8515625 114.49609375 C-58.22539235 115.68300868 -59.74335143 115.65182242 -62.39306641 115.70141602 C-63.33389069 115.72136124 -64.27471497 115.74130646 -65.24404907 115.76185608 C-66.26179413 115.77856857 -67.27953918 115.79528107 -68.328125 115.8125 C-69.36850922 115.8332811 -70.40889343 115.85406219 -71.48080444 115.87547302 C-74.81265499 115.94099247 -78.144586 115.99986467 -81.4765625 116.05859375 C-83.73177924 116.10177669 -85.98698777 116.1453909 -88.2421875 116.18945312 C-93.77856448 116.29748994 -99.31500026 116.39654577 -104.8515625 116.49609375 C-104.8515625 128.37609375 -104.8515625 140.25609375 -104.8515625 152.49609375 C-101.51675781 152.53347656 -98.18195313 152.57085937 -94.74609375 152.609375 C-91.5125476 152.65560012 -88.27911676 152.7068303 -85.0456543 152.75854492 C-82.800283 152.79177726 -80.5548285 152.81981444 -78.30932617 152.8425293 C-75.07955507 152.87610577 -71.85054523 152.92842448 -68.62109375 152.984375 C-67.61883255 152.99076492 -66.61657135 152.99715485 -65.5839386 153.0037384 C-56.84633978 153.18761449 -56.84633978 153.18761449 -52.8515625 156.49609375 C-50.71677767 159.53009663 -49.78072202 162.92372072 -49.94772339 166.63047791 C-51.18190694 173.09462883 -53.89309801 176.48503597 -58.609375 180.9375 C-59.27242645 181.59064682 -59.93547791 182.24379364 -60.61862183 182.91673279 C-62.7219652 184.9811655 -64.84839011 187.01979785 -66.9765625 189.05859375 C-68.41436243 190.46125034 -69.85057834 191.8655326 -71.28515625 193.27148438 C-74.78925024 196.69876251 -78.31424795 200.10312701 -81.8515625 203.49609375 C-80.11396103 207.21323111 -77.99479372 209.58350387 -75.0625 212.48046875 C-74.59921295 212.9409259 -74.1359259 213.40138306 -73.65859985 213.87579346 C-72.18590352 215.33734453 -70.70638847 216.79176543 -69.2265625 218.24609375 C-68.22349928 219.23911986 -67.22088993 220.23260464 -66.21875 221.2265625 C-63.76825415 223.65507316 -61.3115958 226.0772405 -58.8515625 228.49609375 C-54.59736504 226.85511553 -51.80359875 223.66567997 -48.6953125 220.46484375 C-48.11116577 219.87312378 -47.52701904 219.28140381 -46.9251709 218.67175293 C-45.06241136 216.78460618 -43.2062388 214.89118323 -41.3515625 212.99609375 C-38.90942338 210.5007407 -36.4607475 208.01208013 -34.0078125 205.52734375 C-33.45041382 204.95334839 -32.89301514 204.37935303 -32.31872559 203.78796387 C-28.91638072 200.34299548 -26.31989846 197.80513744 -21.44921875 197.1953125 C-12.40977795 197.15352772 -12.40977795 197.15352772 -8.8515625 200.49609375 C-5.73209272 206.31106013 -5.38487414 211.2768422 -5.33984375 217.8046875 C-5.31291695 219.25476952 -5.31291695 219.25476952 -5.28544617 220.73414612 C-5.23156739 223.80058522 -5.19751941 226.86687067 -5.1640625 229.93359375 C-5.13086964 232.02150565 -5.09637817 234.10939734 -5.06054688 236.19726562 C-4.97342568 241.29689438 -4.91316492 246.39583842 -4.8515625 251.49609375 C6.6984375 251.49609375 18.2484375 251.49609375 30.1484375 251.49609375 C30.18582031 248.23347656 30.22320312 244.97085938 30.26171875 241.609375 C30.30794579 238.44532614 30.35917526 235.28139502 30.41088867 232.11743164 C30.44411805 229.92056448 30.47215616 227.72361235 30.49487305 225.52661133 C30.52845504 222.36633132 30.58077384 219.20682854 30.63671875 216.046875 C30.64310867 215.06648758 30.6494986 214.08610016 30.65608215 213.07600403 C30.78731398 206.97273947 31.44008228 203.20444897 35.8984375 198.74609375 C40.42479782 196.23144913 44.00561258 196.17113973 48.9375 197.57348633 C53.70016172 199.46353052 56.77104158 202.4780105 60.2734375 206.1328125 C60.90580322 206.77225296 61.53816895 207.41169342 62.18969727 208.07051086 C64.18809002 210.09668143 66.16829554 212.13959956 68.1484375 214.18359375 C69.50794565 215.568206 70.86861214 216.95168192 72.23046875 218.33398438 C75.5499974 221.70836185 78.85333811 225.09786385 82.1484375 228.49609375 C86.07931886 225.180103 89.92558768 221.8447021 93.55078125 218.19140625 C94.29521484 217.44375 95.03964844 216.69609375 95.80664062 215.92578125 C96.55880859 215.16523438 97.31097656 214.4046875 98.0859375 213.62109375 C99.25479492 212.44546875 99.25479492 212.44546875 100.44726562 211.24609375 C102.34997835 209.33170794 104.25029921 207.41501341 106.1484375 205.49609375 C104.52821453 201.35421691 101.50611029 198.65123184 98.37109375 195.62890625 C97.20625984 194.4844975 96.04155017 193.33996229 94.87695312 192.1953125 C93.0449289 190.40671513 91.21050234 188.62067137 89.37329102 186.83740234 C87.59517343 185.10779408 85.82654997 183.3688912 84.05859375 181.62890625 C83.23815331 180.84110275 83.23815331 180.84110275 82.40113831 180.03738403 C78.67082356 176.35557664 75.79230697 172.65163421 74.71484375 167.37109375 C74.70434256 162.33052301 75.7017431 159.39630057 79.1484375 155.49609375 C84.45810475 152.03566968 89.23029524 152.02642036 95.359375 151.984375 C96.32751129 151.9664238 97.29564758 151.9484726 98.29312134 151.92997742 C101.36984977 151.8760158 104.4464243 151.84202386 107.5234375 151.80859375 C109.61590676 151.77540822 111.70835576 151.74091742 113.80078125 151.70507812 C118.91655539 151.62029729 124.03228501 151.55341847 129.1484375 151.49609375 C129.30800125 139.79475226 128.81252159 128.17685863 128.1484375 116.49609375 C127.31944695 116.48729439 127.31944695 116.48729439 126.47370911 116.47831726 C120.71447803 116.41431553 114.95580224 116.32987859 109.19702148 116.23364258 C107.04865852 116.20041629 104.90020875 116.17237722 102.75170898 116.1496582 C99.66091974 116.11607044 96.57092438 116.06375154 93.48046875 116.0078125 C92.52195511 116.00142258 91.56344147 115.99503265 90.57588196 115.9884491 C84.53840492 115.85574579 80.93705199 115.08552149 76.3984375 110.87109375 C74.50504317 107.27364453 73.84664574 103.55060042 74.1484375 99.49609375 C76.34727705 94.04575266 79.65851538 90.589798 83.78515625 86.56640625 C84.42459671 85.93121063 85.06403717 85.29601501 85.72285461 84.64157104 C87.75357714 82.62755265 89.79451157 80.62425648 91.8359375 78.62109375 C93.22009022 77.25199849 94.60356141 75.88221384 95.98632812 74.51171875 C99.36586097 71.16514548 102.75458799 67.82814471 106.1484375 64.49609375 C102.76677016 60.48317647 99.35213613 56.5751279 95.625 52.875 C94.83222656 52.08544922 94.03945313 51.29589844 93.22265625 50.48242188 C92.41441406 49.68255859 91.60617187 48.88269531 90.7734375 48.05859375 C89.52626953 46.81819336 89.52626953 46.81819336 88.25390625 45.55273438 C86.2210271 43.53153844 84.18583787 41.5127304 82.1484375 39.49609375 C77.05349102 43.76270055 72.26941894 48.22134988 67.5859375 52.93359375 C66.95236328 53.56330078 66.31878906 54.19300781 65.66601562 54.84179688 C62.09570712 58.41945926 58.72196487 62.07303789 55.52905273 65.99267578 C52.11275588 69.71284484 48.10251518 71.70446243 43.0234375 71.93359375 C37.72255219 71.3351067 35.47978953 70.05717048 32.04589844 66.03076172 C29.24089598 61.68479193 29.54553928 57.09201788 29.5390625 52.06640625 C29.52252625 51.07607391 29.50598999 50.08574158 29.48895264 49.06539917 C29.44055421 45.91723375 29.41911939 42.76955114 29.3984375 39.62109375 C29.37027106 37.48044457 29.3403427 35.3398178 29.30859375 33.19921875 C29.23149506 27.9646234 29.19089856 22.731542 29.1484375 17.49609375 C17.5984375 17.49609375 6.0484375 17.49609375 -5.8515625 17.49609375 Z " fill="#F37324" transform="translate(172.8515625,148.50390625)"/>
<path d="M0 0 C2.12534979 1.79428001 3.69561406 3.33401145 5.4375 5.4375 C6.14616211 6.25166382 6.14616211 6.25166382 6.86914062 7.08227539 C10.32686017 11.08832732 13.6462938 15.21007123 16.91015625 19.375 C19.35821394 22.44994349 21.88963461 25.44521402 24.4375 28.4375 C28.67164593 33.41910603 32.88185709 38.41655826 36.984375 43.5078125 C38.26088577 45.08613395 39.56054027 46.6462427 40.890625 48.1796875 C43.62545585 51.46404043 45.37664914 53.89985429 45.625 58.25 C45 62 45 62 41 66 C36.71 66 32.42 66 28 66 C28 80.19 28 94.38 28 109 C22.39 109 16.78 109 11 109 C10.92575597 101.70428689 10.87135253 94.4087945 10.83520508 87.11279297 C10.82013338 84.6316342 10.79967254 82.15050201 10.77368164 79.66943359 C10.73722833 76.09986811 10.72025708 72.53065539 10.70703125 68.9609375 C10.69154739 67.85446869 10.67606354 66.74799988 10.66011047 65.60800171 C10.65889391 60.02092514 10.70363896 55.76279168 14 51 C16.1875 49.625 16.1875 49.625 18 49 C17.45472656 48.40574219 16.90945313 47.81148437 16.34765625 47.19921875 C9.23957698 39.38640684 2.59076169 31.24956014 -4 23 C-7.71563534 24.23854511 -8.59458591 25.69017178 -11 28.75 C-11.78375 29.73355469 -12.5675 30.71710938 -13.375 31.73046875 C-13.79523438 32.25817871 -14.21546875 32.78588867 -14.6484375 33.32958984 C-17.51084218 36.86726557 -20.49210228 40.30699173 -23.45703125 43.75878906 C-25.99353837 46.69674882 -25.99353837 46.69674882 -28 50 C-27.21625 50.2475 -26.4325 50.495 -25.625 50.75 C-22.54539063 52.21648065 -22.18388247 52.8916123 -21 56 C-20.75390434 58.35065842 -20.75390434 58.35065842 -20.75949097 60.99871826 C-20.75674164 62.00550125 -20.75399231 63.01228424 -20.75115967 64.04957581 C-20.75835022 65.14793259 -20.76554077 66.24628937 -20.77294922 67.37792969 C-20.77265717 68.53918869 -20.77236511 69.70044769 -20.77206421 70.89689636 C-20.77345852 74.73863168 -20.7890248 78.58017352 -20.8046875 82.421875 C-20.80841727 85.08417082 -20.81136278 87.7464559 -20.81326294 90.40875244 C-20.81947721 96.70207001 -20.8358873 102.99531802 -20.85596192 109.28860497 C-20.87832257 116.45421061 -20.88931476 123.61981957 -20.89935279 130.78545141 C-20.92025358 145.52367066 -20.95583177 160.26183182 -21 175 C-26.61 175 -32.22 175 -38 175 C-38 139.03 -38 103.06 -38 66 C-41.96 66 -45.92 66 -50 66 C-53.25 63.875 -53.25 63.875 -55 61 C-55.73326587 57.17072268 -55.33547501 55.55291252 -53.3125 52.21875 C-50.84734824 48.78752525 -48.21676675 45.61399831 -45.4375 42.4375 C-44.36683541 41.20082558 -43.29653099 39.96383925 -42.2265625 38.7265625 C-41.68805664 38.10555664 -41.14955078 37.48455078 -40.59472656 36.84472656 C-32.47670489 27.45406953 -24.40352808 17.98035833 -16.8046875 8.1640625 C-16.10601562 7.26429688 -15.40734375 6.36453125 -14.6875 5.4375 C-14.07261719 4.63183594 -13.45773437 3.82617188 -12.82421875 2.99609375 C-8.8244842 -1.38048945 -5.7199686 -1.53735826 0 0 Z " fill="#F37324" transform="translate(411,150)"/>
<path d="M0 0 C8.12187401 6.13991499 13.09919118 14.43488156 14.96875 24.39453125 C16.38994123 34.75882828 14.74925614 45.32660088 8.6015625 54.04296875 C0.55325823 63.58394099 -7.54304773 69.23107446 -20.0859375 70.66796875 C-30.76652076 71.16999382 -40.24086218 68.28978633 -48.7109375 61.73046875 C-56.81014569 54.16373446 -61.69180337 45.84687028 -62.7109375 34.73046875 C-62.84161086 22.9263085 -60.03857311 12.38185693 -51.7109375 3.73046875 C-36.62754076 -9.65570367 -16.77040165 -10.78097249 0 0 Z M-41.48828125 18.74609375 C-44.77916469 24.08720808 -46.46466262 29.51628924 -45.2734375 35.7578125 C-43.41713037 42.26777847 -40.64802809 46.69775937 -34.9765625 50.53125 C-29.21734619 53.57966277 -23.84808231 54.33322396 -17.5234375 52.73046875 C-11.70109963 50.6190715 -7.44520903 47.84906978 -4.39453125 42.36328125 C-1.46778862 35.65318838 -0.57829769 30.19991253 -3.2109375 23.23046875 C-6.12293258 17.1896279 -10.70853087 13.16912193 -16.7109375 10.29296875 C-26.61749431 8.43548935 -35.16079265 10.49744565 -41.48828125 18.74609375 Z " fill="#F37324" transform="translate(208.7109375,251.26953125)"/>
<path d="M0 0 C5.61 0 11.22 0 17 0 C17 5.94 17 11.88 17 18 C11.39 18 5.78 18 0 18 C0 12.06 0 6.12 0 0 Z " fill="#F37324" transform="translate(423,374)"/>
<path d="M0 0 C5.61 0 11.22 0 17 0 C17 5.94 17 11.88 17 18 C11.39 18 5.78 18 0 18 C0 12.06 0 6.12 0 0 Z " fill="#F37324" transform="translate(373,374)"/>
<path d="M0 0 C5.61 0 11.22 0 17 0 C17 5.94 17 11.88 17 18 C11.39 18 5.78 18 0 18 C0 12.06 0 6.12 0 0 Z " fill="#F37324" transform="translate(423,307)"/>
<path d="M0 0 C5.61 0 11.22 0 17 0 C17 5.94 17 11.88 17 18 C11.39 18 5.78 18 0 18 C0 12.06 0 6.12 0 0 Z " fill="#F37324" transform="translate(423,274)"/>
<path d="M0 0 C5.61 0 11.22 0 17 0 C17 5.61 17 11.22 17 17 C11.39 17 5.78 17 0 17 C0 11.39 0 5.78 0 0 Z " fill="#F37324" transform="translate(423,341)"/>
<path d="M0 0 C5.61 0 11.22 0 17 0 C17 5.61 17 11.22 17 17 C11.39 17 5.78 17 0 17 C0 11.39 0 5.78 0 0 Z " fill="#F37324" transform="translate(373,341)"/>
<path d="M0 0 C5.28 0 10.56 0 16 0 C16 5.28 16 10.56 16 16 C10.72 16 5.44 16 0 16 C0 10.72 0 5.44 0 0 Z " fill="#F37324" transform="translate(112,88)"/>
<path d="M0 0 C5.28 0 10.56 0 16 0 C16 5.28 16 10.56 16 16 C10.72 16 5.44 16 0 16 C0 10.72 0 5.44 0 0 Z " fill="#F37324" transform="translate(80,88)"/>
<path d="M0 0 C5.28 0 10.56 0 16 0 C16 5.28 16 10.56 16 16 C10.72 16 5.44 16 0 16 C0 10.72 0 5.44 0 0 Z " fill="#F37324" transform="translate(48,88)"/>
</svg>
